<?xml version="1.0" encoding="UTF-8" standalone="no"?>
<!-- Generator: Adobe Illustrator 19.0.0, SVG Export Plug-In . SVG Version: 6.00 Build 0)  -->

<svg
   xmlns:dc="http://purl.org/dc/elements/1.1/"
   xmlns:cc="http://creativecommons.org/ns#"
   xmlns:rdf="http://www.w3.org/1999/02/22-rdf-syntax-ns#"
   xmlns:svg="http://www.w3.org/2000/svg"
   xmlns="http://www.w3.org/2000/svg"
   xmlns:sodipodi="http://sodipodi.sourceforge.net/DTD/sodipodi-0.dtd"
   xmlns:inkscape="http://www.inkscape.org/namespaces/inkscape"
   version="1.1"
   id="Capa_1"
   x="0px"
   y="0px"
   viewBox="0 0 58 58"
   style="enable-background:new 0 0 58 58;"
   xml:space="preserve"
   sodipodi:docname="calculadora.svg"
   inkscape:version="0.92.3 (2405546, 2018-03-11)"><metadata
   id="metadata51"><rdf:RDF><cc:Work
       rdf:about=""><dc:format>image/svg+xml</dc:format><dc:type
         rdf:resource="http://purl.org/dc/dcmitype/StillImage" /><dc:title></dc:title></cc:Work></rdf:RDF></metadata><defs
   id="defs49" /><sodipodi:namedview
   pagecolor="#ffffff"
   bordercolor="#666666"
   borderopacity="1"
   objecttolerance="10"
   gridtolerance="10"
   guidetolerance="10"
   inkscape:pageopacity="0"
   inkscape:pageshadow="2"
   inkscape:window-width="830"
   inkscape:window-height="480"
   id="namedview47"
   showgrid="false"
   inkscape:zoom="4.0689655"
   inkscape:cx="29"
   inkscape:cy="29"
   inkscape:window-x="587"
   inkscape:window-y="155"
   inkscape:window-maximized="0"
   inkscape:current-layer="Capa_1" />
<g
   id="g14"
   style="fill:#ff0000">
	<path
   d="M21,14h-5V9c0-0.553-0.448-1-1-1s-1,0.447-1,1v5H9c-0.552,0-1,0.447-1,1s0.448,1,1,1h5v5c0,0.553,0.448,1,1,1s1-0.447,1-1   v-5h5c0.552,0,1-0.447,1-1S21.552,14,21,14z"
   id="path2"
   style="fill:#ff0000" />
	<path
   d="M49,14H37c-0.552,0-1,0.447-1,1s0.448,1,1,1h12c0.552,0,1-0.447,1-1S49.552,14,49,14z"
   id="path4"
   style="fill:#ff0000" />
	<path
   d="M30,0h-2H0v28v2v28h28h2h28V30v-2V0H30z M2,2h26v26H2V2z M2,56V30h26v26H2z M56,56H30V30h26V56z M30,28V2h26v26H30z"
   id="path6"
   style="fill:#ff0000" />
	<path
   d="M37,47h12c0.552,0,1-0.447,1-1s-0.448-1-1-1H37c-0.552,0-1,0.447-1,1S36.448,47,37,47z"
   id="path8"
   style="fill:#ff0000" />
	<path
   d="M37,41h12c0.552,0,1-0.447,1-1s-0.448-1-1-1H37c-0.552,0-1,0.447-1,1S36.448,41,37,41z"
   id="path10"
   style="fill:#ff0000" />
	<path
   d="M20.707,37.293c-0.391-0.391-1.023-0.391-1.414,0L15,41.586l-4.293-4.293c-0.391-0.391-1.023-0.391-1.414,0   s-0.391,1.023,0,1.414L13.586,43l-4.293,4.293c-0.391,0.391-0.391,1.023,0,1.414C9.488,48.902,9.744,49,10,49   s0.512-0.098,0.707-0.293L15,44.414l4.293,4.293C19.488,48.902,19.744,49,20,49s0.512-0.098,0.707-0.293   c0.391-0.391,0.391-1.023,0-1.414L16.414,43l4.293-4.293C21.098,38.316,21.098,37.684,20.707,37.293z"
   id="path12"
   style="fill:#ff0000" />
</g>
<g
   id="g16">
</g>
<g
   id="g18">
</g>
<g
   id="g20">
</g>
<g
   id="g22">
</g>
<g
   id="g24">
</g>
<g
   id="g26">
</g>
<g
   id="g28">
</g>
<g
   id="g30">
</g>
<g
   id="g32">
</g>
<g
   id="g34">
</g>
<g
   id="g36">
</g>
<g
   id="g38">
</g>
<g
   id="g40">
</g>
<g
   id="g42">
</g>
<g
   id="g44">
</g>
</svg>