<?xml version="1.0" encoding="UTF-8" standalone="no"?>
<!-- Generator: Adobe Illustrator 16.0.0, SVG Export Plug-In . SVG Version: 6.00 Build 0)  -->

<svg
   xmlns:dc="http://purl.org/dc/elements/1.1/"
   xmlns:cc="http://creativecommons.org/ns#"
   xmlns:rdf="http://www.w3.org/1999/02/22-rdf-syntax-ns#"
   xmlns:svg="http://www.w3.org/2000/svg"
   xmlns="http://www.w3.org/2000/svg"
   xmlns:sodipodi="http://sodipodi.sourceforge.net/DTD/sodipodi-0.dtd"
   xmlns:inkscape="http://www.inkscape.org/namespaces/inkscape"
   version="1.1"
   id="Capa_1"
   x="0px"
   y="0px"
   width="33.375px"
   height="33.375px"
   viewBox="0 0 33.375 33.375"
   style="enable-background:new 0 0 33.375 33.375;"
   xml:space="preserve"
   sodipodi:docname="calendario.svg"
   inkscape:version="0.92.3 (2405546, 2018-03-11)"><metadata
   id="metadata47"><rdf:RDF><cc:Work
       rdf:about=""><dc:format>image/svg+xml</dc:format><dc:type
         rdf:resource="http://purl.org/dc/dcmitype/StillImage" /></cc:Work></rdf:RDF></metadata><defs
   id="defs45" /><sodipodi:namedview
   pagecolor="#ffffff"
   bordercolor="#666666"
   borderopacity="1"
   objecttolerance="10"
   gridtolerance="10"
   guidetolerance="10"
   inkscape:pageopacity="0"
   inkscape:pageshadow="2"
   inkscape:window-width="830"
   inkscape:window-height="480"
   id="namedview43"
   showgrid="false"
   inkscape:zoom="7.071161"
   inkscape:cx="16.6875"
   inkscape:cy="16.6875"
   inkscape:window-x="0"
   inkscape:window-y="50"
   inkscape:window-maximized="0"
   inkscape:current-layer="Capa_1" />
<g
   id="g10"
   style="fill:#ff0000">
	<g
   id="g8"
   style="fill:#ff0000">
		<path
   d="M11.977,22.088c0.487-0.46,1.077-1.029,1.77-1.71c0.44-0.413,0.803-0.787,1.09-1.12s0.517-0.67,0.69-1.011    c0.173-0.341,0.293-0.703,0.36-1.091c0.066-0.386,0.1-0.846,0.1-1.379c0-0.56-0.067-1.08-0.2-1.56    c-0.133-0.48-0.367-0.896-0.7-1.25c-0.333-0.354-0.783-0.634-1.35-0.84c-0.567-0.207-1.277-0.311-2.13-0.311    c-3.04,0-4.56,1.42-4.56,4.26v0.46h3.12c0-0.267,0.007-0.553,0.02-0.859c0.013-0.306,0.06-0.59,0.14-0.851    c0.08-0.26,0.207-0.473,0.38-0.64s0.42-0.25,0.74-0.25c0.48,0,0.796,0.17,0.95,0.51c0.154,0.34,0.23,0.79,0.23,1.351    c0,0.267-0.013,0.513-0.04,0.739c-0.027,0.228-0.12,0.478-0.28,0.75c-0.16,0.272-0.407,0.594-0.74,0.96    c-0.333,0.367-0.8,0.816-1.4,1.352c-0.307,0.266-0.644,0.594-1.01,0.979c-0.367,0.388-0.713,0.841-1.04,1.359    c-0.327,0.521-0.6,1.113-0.82,1.78c-0.22,0.667-0.33,1.421-0.33,2.261h9.04v-2.601h-5.02C11.16,22.979,11.49,22.548,11.977,22.088    z"
   id="path2"
   style="fill:#ff0000" />
		<path
   d="M22.376,22.088c0.487-0.46,1.078-1.029,1.771-1.71c0.44-0.413,0.804-0.787,1.09-1.12c0.287-0.333,0.517-0.67,0.69-1.011    c0.173-0.341,0.293-0.703,0.359-1.091c0.066-0.386,0.101-0.846,0.101-1.379c0-0.56-0.067-1.08-0.2-1.56    c-0.133-0.48-0.367-0.896-0.7-1.25c-0.333-0.354-0.782-0.634-1.35-0.84c-0.567-0.207-1.277-0.311-2.13-0.311    c-3.041,0-4.561,1.42-4.561,4.26v0.46h3.12c0-0.267,0.007-0.553,0.021-0.859c0.013-0.306,0.06-0.59,0.14-0.851    c0.08-0.26,0.207-0.473,0.38-0.64s0.42-0.25,0.74-0.25c0.48,0,0.796,0.17,0.949,0.51c0.154,0.34,0.23,0.79,0.23,1.351    c0,0.267-0.013,0.513-0.04,0.739c-0.026,0.228-0.12,0.478-0.28,0.75s-0.406,0.594-0.74,0.96c-0.332,0.367-0.799,0.816-1.399,1.352    c-0.308,0.266-0.644,0.594-1.01,0.979c-0.367,0.388-0.713,0.841-1.04,1.359c-0.327,0.521-0.6,1.113-0.82,1.78    c-0.22,0.667-0.33,1.421-0.33,2.261h9.041v-2.601h-5.021C21.56,22.979,21.89,22.548,22.376,22.088z"
   id="path4"
   style="fill:#ff0000" />
		<path
   d="M27.96,1.375h-0.682V1c0-0.552-0.447-1-1-1c-0.552,0-1,0.448-1,1v0.375h-1.837V1c0-0.552-0.448-1-1-1s-1,0.448-1,1v0.375    h-1.837V1c0-0.552-0.447-1-1-1c-0.552,0-1,0.448-1,1v0.375h-1.837V1c0-0.552-0.448-1-1-1c-0.552,0-1,0.448-1,1v0.375h-1.837V1    c0-0.552-0.448-1-1-1c-0.552,0-1,0.448-1,1v0.375H8.094V1c0-0.552-0.448-1-1-1c-0.552,0-1,0.448-1,1v0.375H5.412    c-2.605,0-4.725,2.12-4.725,4.726v22.547c0,2.605,2.12,4.727,4.727,4.727H27.96c2.606,0,4.728-2.12,4.728-4.727V6.101    C32.687,3.495,30.567,1.375,27.96,1.375z M25.78,1c0-0.276,0.224-0.5,0.5-0.5s0.5,0.224,0.5,0.5v6.482c0,0.276-0.224,0.5-0.5,0.5    s-0.5-0.224-0.5-0.5V1z M21.943,1c0-0.276,0.225-0.5,0.5-0.5c0.276,0,0.5,0.224,0.5,0.5v6.482c0,0.276-0.224,0.5-0.5,0.5    c-0.275,0-0.5-0.224-0.5-0.5V1z M18.106,1c0-0.276,0.224-0.5,0.5-0.5s0.5,0.224,0.5,0.5v6.482c0,0.276-0.224,0.5-0.5,0.5    s-0.5-0.224-0.5-0.5V1z M14.269,1c0-0.276,0.224-0.5,0.5-0.5s0.5,0.224,0.5,0.5v6.482c0,0.276-0.224,0.5-0.5,0.5    s-0.5-0.224-0.5-0.5V1z M10.432,1c0-0.276,0.224-0.5,0.5-0.5s0.5,0.224,0.5,0.5v6.482c0,0.276-0.224,0.5-0.5,0.5    s-0.5-0.224-0.5-0.5V1z M6.595,1c0-0.276,0.224-0.5,0.5-0.5c0.276,0,0.5,0.224,0.5,0.5v6.482c0,0.276-0.224,0.5-0.5,0.5    c-0.276,0-0.5-0.224-0.5-0.5V1z M30.279,28.648c0,1.277-1.04,2.317-2.318,2.317H5.414c-1.278,0-2.318-1.04-2.318-2.317V6.101    c0-1.278,1.04-2.318,2.318-2.318h0.682v2.513c-0.339,0.286-0.56,0.709-0.56,1.187c0,0.86,0.699,1.56,1.56,1.56    c0.861,0,1.56-0.699,1.56-1.56c0-0.478-0.221-0.9-0.56-1.187V3.783h1.837v2.513c-0.339,0.286-0.56,0.709-0.56,1.187    c0,0.86,0.699,1.56,1.56,1.56c0.861,0,1.56-0.699,1.56-1.56c0-0.478-0.221-0.9-0.56-1.187V3.783h1.837v2.513    c-0.339,0.286-0.56,0.709-0.56,1.187c0,0.86,0.699,1.56,1.56,1.56s1.56-0.699,1.56-1.56c0-0.478-0.221-0.9-0.56-1.187V3.783h1.837    v2.513c-0.339,0.286-0.56,0.709-0.56,1.187c0,0.86,0.699,1.56,1.56,1.56s1.561-0.699,1.561-1.56c0-0.478-0.222-0.9-0.561-1.187    V3.783h1.837v2.513c-0.339,0.286-0.56,0.709-0.56,1.187c0,0.86,0.699,1.56,1.56,1.56c0.861,0,1.56-0.699,1.56-1.56    c0-0.478-0.221-0.9-0.56-1.187V3.783h1.837v2.513c-0.339,0.286-0.56,0.709-0.56,1.187c0,0.86,0.698,1.56,1.56,1.56    s1.561-0.699,1.561-1.56c0-0.478-0.221-0.9-0.561-1.187V3.783h0.682c1.277,0,2.317,1.04,2.317,2.318L30.279,28.648L30.279,28.648z    "
   id="path6"
   style="fill:#ff0000" />
	</g>
</g>
<g
   id="g12">
</g>
<g
   id="g14">
</g>
<g
   id="g16">
</g>
<g
   id="g18">
</g>
<g
   id="g20">
</g>
<g
   id="g22">
</g>
<g
   id="g24">
</g>
<g
   id="g26">
</g>
<g
   id="g28">
</g>
<g
   id="g30">
</g>
<g
   id="g32">
</g>
<g
   id="g34">
</g>
<g
   id="g36">
</g>
<g
   id="g38">
</g>
<g
   id="g40">
</g>
</svg>