<?xml version="1.0" encoding="UTF-8" standalone="no"?>
<!-- Generator: Adobe Illustrator 19.0.0, SVG Export Plug-In . SVG Version: 6.00 Build 0)  -->

<svg
   xmlns:dc="http://purl.org/dc/elements/1.1/"
   xmlns:cc="http://creativecommons.org/ns#"
   xmlns:rdf="http://www.w3.org/1999/02/22-rdf-syntax-ns#"
   xmlns:svg="http://www.w3.org/2000/svg"
   xmlns="http://www.w3.org/2000/svg"
   xmlns:sodipodi="http://sodipodi.sourceforge.net/DTD/sodipodi-0.dtd"
   xmlns:inkscape="http://www.inkscape.org/namespaces/inkscape"
   version="1.1"
   id="Layer_1"
   x="0px"
   y="0px"
   viewBox="0 0 512 512"
   style="enable-background:new 0 0 512 512;"
   xml:space="preserve"
   sodipodi:docname="cerrar.svg"
   inkscape:version="0.92.3 (2405546, 2018-03-11)"><metadata
   id="metadata49"><rdf:RDF><cc:Work
       rdf:about=""><dc:format>image/svg+xml</dc:format><dc:type
         rdf:resource="http://purl.org/dc/dcmitype/StillImage" /><dc:title></dc:title></cc:Work></rdf:RDF></metadata><defs
   id="defs47" /><sodipodi:namedview
   pagecolor="#ffffff"
   bordercolor="#666666"
   borderopacity="1"
   objecttolerance="10"
   gridtolerance="10"
   guidetolerance="10"
   inkscape:pageopacity="0"
   inkscape:pageshadow="2"
   inkscape:window-width="830"
   inkscape:window-height="480"
   id="namedview45"
   showgrid="false"
   inkscape:zoom="0.4609375"
   inkscape:cx="256"
   inkscape:cy="256"
   inkscape:window-x="0"
   inkscape:window-y="50"
   inkscape:window-maximized="0"
   inkscape:current-layer="Layer_1" />
<g
   id="g6"
   style="fill:#ff0000">
	<g
   id="g4"
   style="fill:#ff0000">
		<path
   d="M360.507,171c8.284,0,15-6.716,15-15V45c0-24.813-20.187-45-45-45h-240c-24.813,0-45,20.187-45,45v422    c0,24.813,20.187,45,45,45h240c24.813,0,45-20.187,45-45V356c0-8.284-6.715-15-15-15c-8.284,0-15,6.716-15,15v111    c0,8.271-6.729,15-15,15h-240c-8.271,0-15-6.729-15-15V45c0-8.271,6.729-15,15-15h240c8.271,0,15,6.729,15,15v111    C345.507,164.284,352.223,171,360.507,171z"
   id="path2"
   style="fill:#ff0000" />
	</g>
</g>
<g
   id="g12"
   style="fill:#c60000">
	<g
   id="g10"
   style="fill:#c60000">
		<path
   d="M460.15,243.74l-61.421-43.301c-6.771-4.774-16.128-3.153-20.902,3.617c-4.773,6.771-3.154,16.129,3.617,20.903    L404.198,241h-231.19c-8.284,0-15,6.716-15,15s6.716,15,15,15h231.19l-22.754,16.042c-6.771,4.773-8.391,14.132-3.617,20.903    c4.776,6.774,14.135,8.389,20.902,3.617l61.421-43.301C468.685,262.244,468.529,249.646,460.15,243.74z"
   id="path8"
   style="fill:#c60000" />
	</g>
</g>
<g
   id="g14">
</g>
<g
   id="g16">
</g>
<g
   id="g18">
</g>
<g
   id="g20">
</g>
<g
   id="g22">
</g>
<g
   id="g24">
</g>
<g
   id="g26">
</g>
<g
   id="g28">
</g>
<g
   id="g30">
</g>
<g
   id="g32">
</g>
<g
   id="g34">
</g>
<g
   id="g36">
</g>
<g
   id="g38">
</g>
<g
   id="g40">
</g>
<g
   id="g42">
</g>
</svg>