<?xml version="1.0" encoding="UTF-8" standalone="no"?>
<!-- Generator: Adobe Illustrator 16.0.0, SVG Export Plug-In . SVG Version: 6.00 Build 0)  -->

<svg
   xmlns:dc="http://purl.org/dc/elements/1.1/"
   xmlns:cc="http://creativecommons.org/ns#"
   xmlns:rdf="http://www.w3.org/1999/02/22-rdf-syntax-ns#"
   xmlns:svg="http://www.w3.org/2000/svg"
   xmlns="http://www.w3.org/2000/svg"
   xmlns:sodipodi="http://sodipodi.sourceforge.net/DTD/sodipodi-0.dtd"
   xmlns:inkscape="http://www.inkscape.org/namespaces/inkscape"
   version="1.1"
   id="Capa_1"
   x="0px"
   y="0px"
   width="549.907px"
   height="549.908px"
   viewBox="0 0 549.907 549.908"
   style="enable-background:new 0 0 549.907 549.908;"
   xml:space="preserve"
   sodipodi:docname="cliente.svg"
   inkscape:version="0.92.3 (2405546, 2018-03-11)"><metadata
   id="metadata41"><rdf:RDF><cc:Work
       rdf:about=""><dc:format>image/svg+xml</dc:format><dc:type
         rdf:resource="http://purl.org/dc/dcmitype/StillImage" /></cc:Work></rdf:RDF></metadata><defs
   id="defs39">
	
</defs><sodipodi:namedview
   pagecolor="#ffffff"
   bordercolor="#666666"
   borderopacity="1"
   objecttolerance="10"
   gridtolerance="10"
   guidetolerance="10"
   inkscape:pageopacity="0"
   inkscape:pageshadow="2"
   inkscape:window-width="830"
   inkscape:window-height="480"
   id="namedview37"
   showgrid="false"
   inkscape:zoom="0.42916268"
   inkscape:cx="85.140886"
   inkscape:cy="237.577"
   inkscape:window-x="448"
   inkscape:window-y="144"
   inkscape:window-maximized="0"
   inkscape:current-layer="Capa_1" />

<g
   id="g6">
</g>
<g
   id="g8">
</g>
<g
   id="g10">
</g>
<g
   id="g12">
</g>
<g
   id="g14">
</g>
<g
   id="g16">
</g>
<g
   id="g18">
</g>
<g
   id="g20">
</g>
<g
   id="g22">
</g>
<g
   id="g24">
</g>
<g
   id="g26">
</g>
<g
   id="g28">
</g>
<g
   id="g30">
</g>
<g
   id="g32">
</g>
<g
   id="g34">
</g>
<path
   inkscape:connector-curvature="0"
   id="path2"
   d="m 197.46241,538.25741 c -139.408671,10e-6 -69.70433,10e-6 0,0 z m 141.504,-372.375 c -233.74467,248.25001 -116.87233,124.12501 0,0 z m 37.663,6.052 h -75.326 c -1.797,0 -3.547,0.189 -5.32,0.275 6.81,14.295 10.74,30.225 10.74,47.094 0,31.129 -13.057,59.205 -33.922,79.23 48.823,14.523 86.144,55.986 94.638,107.08 71.999,-3.145 113.504,-23.49 116.265,-24.885 l 5.94,-3.015 0.626,0.012 v -92.137 c 0.012,-62.664 -50.975,-113.654 -113.641,-113.654 z"
   style="fill:#66ff00"
   sodipodi:nodetypes="ccccsscsccccccs" /><ellipse
   style="fill:#c87137"
   id="path849-3"
   cx="337.8667"
   cy="88.54451"
   rx="92.128448"
   ry="87.518555" /><path
   inkscape:connector-curvature="0"
   id="path2-6"
   d="m 215.61334,279.43847 c -196.55825,-18.52376 -98.27913,-9.26188 0,0 z m 37.666,6.053 h -75.327 c -62.668,0 -113.654997,50.986 -113.654997,113.646 v 92.143 l 0.236,1.437 6.36,1.985 c 59.795997,18.679 111.763997,24.914 154.530997,24.914 83.531,0 131.94,-23.82 134.938,-25.333 l 5.94,-3.015 0.626,0.006 v -92.137 c 0,-62.66 -50.986,-113.646 -113.649,-113.646 z"
   style="fill:#3139ae"
   sodipodi:nodetypes="ccssscccscccss" /><path
   style="fill:#e0e1f3"
   inkscape:transform-center-x="-1.7335521"
   inkscape:transform-center-y="-7.0381834"
   d="m 213.89607,364.71142 c -81.97939,-71.94147 -33.07304,-30.83813 -81.97939,-71.94147 62.71713,-18.55719 131.60798,-21.9608 175.36591,3.68029 -17.31652,16.77001 -2.33012,0 -93.38652,68.26118 z"
   id="path881"
   inkscape:connector-curvature="0"
   sodipodi:nodetypes="cccc" /><ellipse
   style="fill:#ffaaaa"
   id="path849"
   cx="217.95485"
   cy="218.00522"
   rx="92.128448"
   ry="87.518555" /></svg>