<?xml version="1.0" encoding="iso-8859-1"?>
<!-- Generator: Adobe Illustrator 21.0.0, SVG Export Plug-In . SVG Version: 6.00 Build 0)  -->
<svg version="1.1" id="Capa_1" xmlns="http://www.w3.org/2000/svg" xmlns:xlink="http://www.w3.org/1999/xlink" x="0px" y="0px"
	 viewBox="0 0 512 512" style="enable-background:new 0 0 512 512;" xml:space="preserve">
<g>
	<path style="fill:#EBEBEB;" d="M344.423,377.364c35.112,0,63.567,28.455,63.567,63.567c0,17.562-7.107,33.451-18.618,44.949
		c-11.498,11.498-27.399,18.618-44.949,18.618H167.577V377.364H344.423z"/>
	<path style="fill:#EBEBEB;" d="M344.423,134.646H167.577c-35.099,0-63.567-28.468-63.567-63.58c0-17.55,7.12-33.438,18.618-44.949
		c11.511-11.498,27.399-18.618,44.949-18.618h176.847v127.147H344.423z"/>
</g>
<path style="fill:#FFA638;" d="M344.423,7.499c35.112,0,63.567,28.468,63.567,63.567c0,17.562-7.107,33.451-18.618,44.962
	c-11.498,11.498-27.399,18.618-44.949,18.618c-35.112,0-63.567-28.468-63.567-63.58C280.855,35.967,309.312,7.499,344.423,7.499z"/>
<path style="fill:#CCCCCC;" d="M167.577,377.364c35.112,0,63.58,28.455,63.58,63.567s-28.468,63.567-63.58,63.567
	c-35.099,0-63.567-28.455-63.567-63.567c0-17.562,7.12-33.451,18.618-44.949C134.138,384.485,150.027,377.364,167.577,377.364z"/>
<path style="fill:#EBEBEB;" d="M344.423,192.431c35.112,0,63.567,28.455,63.567,63.567c0,17.549-7.107,33.451-18.618,44.949
	c-11.498,11.511-27.399,18.618-44.949,18.618H167.577V192.431H344.423z"/>
<path style="fill:#CCCCCC;" d="M167.577,192.431c35.112,0,63.58,28.455,63.58,63.567s-28.468,63.567-63.58,63.567
	c-35.099,0-63.567-28.455-63.567-63.567c0-17.55,7.12-33.451,18.618-44.949C134.138,199.539,150.027,192.431,167.577,192.431z"/>
<path style="fill:#ED8300;" d="M358.229,9.019c14.602,8.939,24.345,25.035,24.345,43.405c0,14.051-5.686,26.763-14.896,35.972
	c-9.199,9.2-21.922,14.896-35.963,14.896c-25.102,0-45.937-18.191-50.091-42.104c-0.502,3.219-0.768,6.516-0.768,9.877
	c0,35.112,28.455,63.58,63.567,63.58c17.55,0,33.451-7.12,44.949-18.618c11.511-11.511,18.618-27.399,18.618-44.962
	C407.991,40.708,386.698,15.327,358.229,9.019z"/>
<g>
	<path style="fill:#ADADAD;" d="M181.388,193.185c14.602,8.939,24.345,25.035,24.345,43.405c0,14.051-5.686,26.763-14.896,35.973
		c-9.199,9.2-21.922,14.896-35.963,14.896c-25.102,0-45.937-18.191-50.091-42.104c-0.502,3.219-0.768,6.516-0.768,9.877
		c0,35.112,28.455,63.58,63.567,63.58c17.55,0,33.451-7.12,44.949-18.618c11.511-11.511,18.618-27.399,18.618-44.962
		C231.15,224.874,209.857,199.493,181.388,193.185z"/>
	<path style="fill:#ADADAD;" d="M181.388,378.118c14.602,8.939,24.345,25.035,24.345,43.405c0,14.051-5.686,26.763-14.896,35.973
		c-9.199,9.2-21.922,14.896-35.963,14.896c-25.102,0-45.937-18.191-50.091-42.104c-0.502,3.219-0.768,6.517-0.768,9.877
		c0,35.112,28.455,63.58,63.567,63.58c17.55,0,33.451-7.12,44.949-18.618c11.511-11.511,18.618-27.399,18.618-44.962
		C231.15,409.807,209.857,384.426,181.388,378.118z"/>
</g>
<path d="M167.581,142.139h17.417c4.142,0,7.5-3.358,7.5-7.5s-3.358-7.5-7.5-7.5h-17.417c-30.917,0-56.07-25.153-56.07-56.07
	S136.664,15,167.581,15h133.247c-16.703,13.016-27.477,33.302-27.477,56.069s10.774,43.054,27.477,56.07h-87.329
	c-4.142,0-7.5,3.358-7.5,7.5s3.358,7.5,7.5,7.5h130.921c39.188,0,71.07-31.882,71.07-71.07S383.607,0,344.419,0H167.581
	c-39.188,0-71.07,31.881-71.07,71.069S128.393,142.139,167.581,142.139z M400.489,71.069c0,30.917-25.153,56.07-56.07,56.07
	s-56.069-25.153-56.069-56.07C288.35,40.153,313.503,15,344.419,15C375.336,15,400.489,40.153,400.489,71.069z"/>
<path d="M344.419,183.66H167.581c-39.188,0-71.07,31.881-71.07,71.069s31.882,71.07,71.07,71.07h130.921c4.142,0,7.5-3.358,7.5-7.5
	s-3.358-7.5-7.5-7.5h-87.329c16.703-13.016,27.477-33.302,27.477-56.07s-10.774-43.054-27.477-56.069h133.247
	c30.917,0,56.07,25.153,56.07,56.069c0,30.917-25.153,56.07-56.07,56.07h-17.417c-4.142,0-7.5,3.358-7.5,7.5s3.358,7.5,7.5,7.5
	h17.417c39.188,0,71.07-31.882,71.07-71.07S383.607,183.66,344.419,183.66z M223.65,254.729c0,30.917-25.153,56.07-56.069,56.07
	c-30.917,0-56.07-25.153-56.07-56.07s25.153-56.069,56.07-56.069C198.497,198.66,223.65,223.813,223.65,254.729z"/>
<path d="M344.419,369.861H167.581c-39.188,0-71.07,31.882-71.07,71.07S128.393,512,167.581,512h130.921c4.142,0,7.5-3.358,7.5-7.5
	s-3.358-7.5-7.5-7.5h-87.329c16.703-13.016,27.477-33.302,27.477-56.07s-10.774-43.054-27.477-56.069h133.247
	c30.917,0,56.07,25.153,56.07,56.07S375.336,497,344.419,497h-17.417c-4.142,0-7.5,3.358-7.5,7.5s3.358,7.5,7.5,7.5h17.417
	c39.188,0,71.07-31.882,71.07-71.07S383.607,369.861,344.419,369.861z M223.65,440.93c0,30.917-25.153,56.07-56.069,56.07
	c-30.917,0-56.07-25.153-56.07-56.07s25.153-56.069,56.07-56.069C198.497,384.861,223.65,410.013,223.65,440.93z"/>
<g>
</g>
<g>
</g>
<g>
</g>
<g>
</g>
<g>
</g>
<g>
</g>
<g>
</g>
<g>
</g>
<g>
</g>
<g>
</g>
<g>
</g>
<g>
</g>
<g>
</g>
<g>
</g>
<g>
</g>
</svg>
