<?xml version="1.0" encoding="UTF-8" standalone="no"?>
<svg
   xmlns:dc="http://purl.org/dc/elements/1.1/"
   xmlns:cc="http://creativecommons.org/ns#"
   xmlns:rdf="http://www.w3.org/1999/02/22-rdf-syntax-ns#"
   xmlns:svg="http://www.w3.org/2000/svg"
   xmlns="http://www.w3.org/2000/svg"
   xmlns:sodipodi="http://sodipodi.sourceforge.net/DTD/sodipodi-0.dtd"
   xmlns:inkscape="http://www.inkscape.org/namespaces/inkscape"
   enable-background="new 0 0 52 57"
   height="512"
   viewBox="0 0 52 57"
   width="512"
   version="1.1"
   id="svg6"
   sodipodi:docname="convertir.svg"
   inkscape:version="0.92.3 (2405546, 2018-03-11)">
  <metadata
     id="metadata12">
    <rdf:RDF>
      <cc:Work
         rdf:about="">
        <dc:format>image/svg+xml</dc:format>
        <dc:type
           rdf:resource="http://purl.org/dc/dcmitype/StillImage" />
        <dc:title />
      </cc:Work>
    </rdf:RDF>
  </metadata>
  <defs
     id="defs10" />
  <sodipodi:namedview
     pagecolor="#ffffff"
     bordercolor="#666666"
     borderopacity="1"
     objecttolerance="10"
     gridtolerance="10"
     guidetolerance="10"
     inkscape:pageopacity="0"
     inkscape:pageshadow="2"
     inkscape:window-width="830"
     inkscape:window-height="480"
     id="namedview8"
     showgrid="false"
     inkscape:zoom="0.4609375"
     inkscape:cx="397.38259"
     inkscape:cy="256"
     inkscape:window-x="0"
     inkscape:window-y="50"
     inkscape:window-maximized="0"
     inkscape:current-layer="svg6" />
  <path
     d="m41 57h-36c-2.757 0-5-2.243-5-5v-36c0-2.757 2.243-5 5-5h5c.552 0 1 .448 1 1s-.448 1-1 1h-5c-1.654 0-3 1.346-3 3v36c0 1.654 1.346 3 3 3h36c1.654 0 3-1.346 3-3v-24c0-.552.448-1 1-1s1 .448 1 1v24c0 2.757-2.243 5-5 5z"
     id="path2"
     style="fill:#488b24" />
  <path
     d="m10 37c-.075 0-.151-.008-.227-.026-.452-.105-.773-.509-.773-.974 0-25.487 11.535-29 24-29h1v-6c0-.386.222-.737.57-.903.348-.167.761-.117 1.06.127l16 13c.234.19.37.475.37.776s-.136.586-.369.776l-16 13c-.3.243-.712.293-1.06.127-.349-.165-.571-.517-.571-.903v-6h-1c-12.083 0-17.416 5.908-22.103 15.441-.17.348-.522.559-.897.559zm23-28c-12.691 0-20.873 3.942-21.892 22.802 4.573-7.815 10.542-12.802 21.892-12.802h2c.552 0 1 .448 1 1v4.899l13.414-10.899-13.414-10.899v4.899c0 .552-.448 1-1 1z"
     id="path4"
     style="fill:#488b24" />
</svg>
