<?xml version="1.0" encoding="UTF-8" standalone="no"?>
<!-- Created with Inkscape (http://www.inkscape.org/) -->

<svg
   xmlns:dc="http://purl.org/dc/elements/1.1/"
   xmlns:cc="http://creativecommons.org/ns#"
   xmlns:rdf="http://www.w3.org/1999/02/22-rdf-syntax-ns#"
   xmlns:svg="http://www.w3.org/2000/svg"
   xmlns="http://www.w3.org/2000/svg"
   xmlns:sodipodi="http://sodipodi.sourceforge.net/DTD/sodipodi-0.dtd"
   xmlns:inkscape="http://www.inkscape.org/namespaces/inkscape"
   width="85.011177"
   height="85.006882"
   viewBox="0 0 22.492541 22.491404"
   version="1.1"
   id="svg5262"
   inkscape:version="0.92.5 (2060ec1f9f, 2020-04-08)"
   sodipodi:docname="ctl4bizlogosmall.svg"
   inkscape:export-filename="/home/madg/ctl4.biz/src/img/ctl4bizlogosmall.png"
   inkscape:export-xdpi="169.39806"
   inkscape:export-ydpi="169.39806">
  <defs
     id="defs5256" />
  <sodipodi:namedview
     id="base"
     pagecolor="#ffffff"
     bordercolor="#666666"
     borderopacity="1.0"
     inkscape:pageopacity="0.0"
     inkscape:pageshadow="2"
     inkscape:zoom="1"
     inkscape:cx="112.79183"
     inkscape:cy="97.234646"
     inkscape:document-units="mm"
     inkscape:current-layer="layer1"
     showgrid="false"
     inkscape:window-width="1464"
     inkscape:window-height="988"
     inkscape:window-x="24"
     inkscape:window-y="57"
     inkscape:window-maximized="0"
     units="px"
     borderlayer="false"
     fit-margin-top="0"
     fit-margin-left="0"
     fit-margin-right="0"
     fit-margin-bottom="0" />
  <metadata
     id="metadata5259">
    <rdf:RDF>
      <cc:Work
         rdf:about="">
        <dc:format>image/svg+xml</dc:format>
        <dc:type
           rdf:resource="http://purl.org/dc/dcmitype/StillImage" />
        <dc:title></dc:title>
      </cc:Work>
    </rdf:RDF>
  </metadata>
  <g
     inkscape:label="Layer 1"
     inkscape:groupmode="layer"
     id="layer1"
     transform="translate(-6867.8444,-93.815064)">
    <g
       transform="matrix(1.94148,0,0,1.8833084,6716.822,-116.73061)"
       id="g5227">
      <g
         id="g44"
         transform="matrix(0.27788863,0,0,0.27788863,60.450357,84.583548)">
        <rect
           ry="4.2905407"
           rx="4.1619849"
           y="97.959679"
           x="62.423115"
           height="42.905407"
           width="41.61985"
           id="rect28"
           style="fill:#3366cc;fill-opacity:1;stroke:#3366cc;stroke-width:0.07042957" />
        <g
           style="fill:#ff9900"
           id="g895"
           transform="matrix(0.01629461,0,0,0.02052104,79.461599,104.68623)">
          <path
             inkscape:connector-curvature="0"
             style="fill:#ff9900"
             id="path2"
             d="M 34.446,0 H 68.892 V 68.891 H 34.446 Z" />
          <path
             inkscape:connector-curvature="0"
             style="fill:#ff9900"
             id="path4"
             d="m 223.897,0 h 34.446 v 206.674 h -34.446 z" />
          <path
             inkscape:connector-curvature="0"
             style="fill:#ff9900"
             id="path6"
             d="m 413.348,0 h 34.446 v 137.783 h -34.446 z" />
          <path
             inkscape:connector-curvature="0"
             style="fill:#ff9900"
             id="path8"
             d="M 482.239,172.228 H 378.902 v 34.446 h 34.446 v 206.674 h 34.446 V 206.673 h 34.446 v -34.445 z" />
          <path
             inkscape:connector-curvature="0"
             style="fill:#ff9900"
             id="path10"
             d="m 189.451,275.565 h 34.446 v 137.783 h 34.446 V 275.565 h 34.446 V 241.119 H 189.451 Z" />
          <path
             inkscape:connector-curvature="0"
             style="fill:#ff9900"
             id="path12"
             d="M 0,137.782 H 34.446 V 413.347 H 68.892 V 137.782 h 34.446 V 103.336 H 0 Z" />
        </g>
        <g
           transform="matrix(0.26217229,0,0,0.27027027,61.411638,86.989675)"
           aria-label="CTL"
           style="font-style:normal;font-weight:normal;font-size:10.58333302px;line-height:1.25;font-family:sans-serif;letter-spacing:0px;word-spacing:0px;fill:#b4e2ff;fill-opacity:1;stroke:none;stroke-width:0.26458332"
           id="text1450">
          <path
             d="m 63.574345,139.61283 c 3.118556,0 6.053667,-1.32997 8.300862,-4.08164 l -3.852334,-4.08163 c -1.054805,1.46755 -2.293055,2.29305 -3.806472,2.29305 -3.210278,0 -5.961944,-3.07269 -5.961944,-11.7863 0,-8.53017 2.88925,-11.69459 5.640916,-11.69459 1.605139,0 2.614084,0.8255 3.760611,2.15547 l 3.852334,-4.21922 c -1.834445,-2.01789 -4.448528,-3.76061 -7.888111,-3.76061 -6.558139,0 -12.336639,5.31989 -12.336639,17.79411 0,12.52009 5.7785,17.38136 12.290777,17.38136 z"
             style="font-style:normal;font-variant:normal;font-weight:bold;font-stretch:normal;font-size:45.86111069px;font-family:'Noto Sans Mono CJK HK';-inkscape-font-specification:'Noto Sans Mono CJK HK Bold';fill:#b4e2ff;fill-opacity:1;stroke-width:0.26458332"
             id="path5202"
             inkscape:connector-curvature="0" />
          <path
             d="m 80.451234,139.0625 h 6.833306 v -28.38803 h 7.108472 v -5.68678 H 73.296901 v 5.68678 h 7.154333 z"
             style="font-style:normal;font-variant:normal;font-weight:bold;font-stretch:normal;font-size:45.86111069px;font-family:'Noto Sans Mono CJK HK';-inkscape-font-specification:'Noto Sans Mono CJK HK Bold';fill:#b4e2ff;fill-opacity:1;stroke-width:0.26458332"
             id="path5204"
             inkscape:connector-curvature="0" />
          <path
             d="m 98.749817,139.0625 h 17.427223 v -5.68678 h -10.59392 v -28.38803 h -6.833303 z"
             style="font-style:normal;font-variant:normal;font-weight:bold;font-stretch:normal;font-size:45.86111069px;font-family:'Noto Sans Mono CJK HK';-inkscape-font-specification:'Noto Sans Mono CJK HK Bold';fill:#b4e2ff;fill-opacity:1;stroke-width:0.26458332"
             id="path5206"
             inkscape:connector-curvature="0" />
        </g>
        <g
           aria-label="4.Biz"
           style="font-style:normal;font-weight:normal;font-size:10.58333302px;line-height:1.25;font-family:sans-serif;letter-spacing:-2.33891821px;word-spacing:0px;fill:#ff9900;fill-opacity:1;stroke:none;stroke-width:0.26458332"
           id="text1454"
           transform="matrix(0.26217229,0,0,0.27027027,61.490209,88.123643)">
          <path
             d="m 55.304893,158.39561 2.822222,-6.38528 c 0.493889,-1.41111 1.199445,-3.38667 1.693334,-5.04472 h 0.141111 c -0.105834,1.79916 -0.176389,3.98638 -0.176389,5.57388 v 5.85612 z m 11.535834,0 h -2.293056 v -15.20473 h -6.702778 l -6.914445,15.62806 v 3.56305 h 8.854723 v 6.35 h 4.7625 v -6.35 h 2.293056 z"
             style="font-style:normal;font-variant:normal;font-weight:bold;font-stretch:normal;font-size:35.27777863px;line-height:0;font-family:'Noto Sans Mono CJK HK';-inkscape-font-specification:'Noto Sans Mono CJK HK Bold';letter-spacing:-5.29166651px;fill:#ff9900;fill-opacity:1;stroke-width:0.26458332"
             id="path5191"
             inkscape:connector-curvature="0" />
          <path
             d="m 71.215172,169.15533 c 1.869722,0 3.280833,-1.37584 3.280833,-3.35139 0,-1.94028 -1.411111,-3.38667 -3.280833,-3.38667 -1.869722,0 -3.280834,1.44639 -3.280834,3.38667 0,1.97555 1.411112,3.35139 3.280834,3.35139 z"
             style="font-style:normal;font-variant:normal;font-weight:bold;font-stretch:normal;font-size:35.27777863px;line-height:0;font-family:'Noto Sans Mono CJK HK';-inkscape-font-specification:'Noto Sans Mono CJK HK Bold';letter-spacing:-5.29166651px;fill:#ff9900;fill-opacity:1;stroke-width:0.26458332"
             id="path5193"
             inkscape:connector-curvature="0" />
          <path
             d="m 76.824339,168.73199 h 6.314723 c 4.7625,0 8.219722,-2.43416 8.219722,-7.69055 0,-3.63361 -1.693333,-5.53861 -4.586111,-6.20889 v -0.14111 c 2.610556,-0.84667 3.774722,-3.28083 3.774722,-5.67972 0,-4.90361 -3.316111,-6.49111 -7.866944,-6.49111 h -5.856112 z m 5.221112,-15.48694 v -6.73806 h 0.705555 c 1.728611,0 2.645834,0.81139 2.645834,3.24556 0,2.39889 -0.881945,3.4925 -2.751667,3.4925 z m 0,11.43 v -7.72583 h 0.881944 c 2.2225,0 3.351389,1.16416 3.351389,3.73944 0,2.68111 -1.164167,3.98639 -3.457222,3.98639 z"
             style="font-style:normal;font-variant:normal;font-weight:bold;font-stretch:normal;font-size:35.27777863px;line-height:0;font-family:'Noto Sans Mono CJK HK';-inkscape-font-specification:'Noto Sans Mono CJK HK Bold';letter-spacing:-5.29166651px;fill:#ff9900;fill-opacity:1;stroke-width:0.26458332"
             id="path5195"
             inkscape:connector-curvature="0" />
          <path
             d="m 93.299061,168.73199 h 5.221111 v -19.82611 h -5.221111 z m 2.610555,-23.03638 c 1.834445,0 3.104445,-1.16417 3.104445,-2.8575 0,-1.65806 -1.27,-2.89278 -3.104445,-2.89278 -1.834444,0 -3.104444,1.23472 -3.104444,2.89278 0,1.69333 1.27,2.8575 3.104444,2.8575 z"
             style="font-style:normal;font-variant:normal;font-weight:bold;font-stretch:normal;font-size:35.27777863px;line-height:0;font-family:'Noto Sans Mono CJK HK';-inkscape-font-specification:'Noto Sans Mono CJK HK Bold';letter-spacing:-5.29166651px;fill:#ff9900;fill-opacity:1;stroke-width:0.26458332"
             id="path5197"
             inkscape:connector-curvature="0" />
          <path
             d="m 101.44823,168.73199 h 14.00528 v -4.09222 h -7.97278 l 7.83167,-12.94694 v -2.78695 h -13.05278 v 4.09223 h 7.09083 l -7.90222,13.0175 z"
             style="font-style:normal;font-variant:normal;font-weight:bold;font-stretch:normal;font-size:35.27777863px;line-height:0;font-family:'Noto Sans Mono CJK HK';-inkscape-font-specification:'Noto Sans Mono CJK HK Bold';letter-spacing:-5.29166651px;fill:#ff9900;fill-opacity:1;stroke-width:0.26458332"
             id="path5199"
             inkscape:connector-curvature="0" />
        </g>
      </g>
    </g>
  </g>
</svg>
