<?xml version="1.0" encoding="UTF-8" standalone="no"?>
<!-- Generator: Adobe Illustrator 19.0.0, SVG Export Plug-In . SVG Version: 6.00 Build 0)  -->

<svg
   xmlns:dc="http://purl.org/dc/elements/1.1/"
   xmlns:cc="http://creativecommons.org/ns#"
   xmlns:rdf="http://www.w3.org/1999/02/22-rdf-syntax-ns#"
   xmlns:svg="http://www.w3.org/2000/svg"
   xmlns="http://www.w3.org/2000/svg"
   xmlns:sodipodi="http://sodipodi.sourceforge.net/DTD/sodipodi-0.dtd"
   xmlns:inkscape="http://www.inkscape.org/namespaces/inkscape"
   version="1.1"
   id="Capa_1"
   x="0px"
   y="0px"
   viewBox="0 0 294.156 294.156"
   style="enable-background:new 0 0 294.156 294.156;"
   xml:space="preserve"
   sodipodi:docname="download.svg"
   inkscape:version="0.92.3 (2405546, 2018-03-11)"><metadata
   id="metadata45"><rdf:RDF><cc:Work
       rdf:about=""><dc:format>image/svg+xml</dc:format><dc:type
         rdf:resource="http://purl.org/dc/dcmitype/StillImage" /><dc:title></dc:title></cc:Work></rdf:RDF></metadata><defs
   id="defs43">
	
	
	
</defs><sodipodi:namedview
   pagecolor="#ffffff"
   bordercolor="#666666"
   borderopacity="1"
   objecttolerance="10"
   gridtolerance="10"
   guidetolerance="10"
   inkscape:pageopacity="0"
   inkscape:pageshadow="2"
   inkscape:window-width="830"
   inkscape:window-height="480"
   id="namedview41"
   showgrid="false"
   inkscape:zoom="0.80229536"
   inkscape:cx="147.078"
   inkscape:cy="147.078"
   inkscape:window-x="586"
   inkscape:window-y="145"
   inkscape:window-maximized="0"
   inkscape:current-layer="Capa_1" />
<path
   inkscape:connector-curvature="0"
   style="fill:#008dff"
   id="path2"
   d="m 227.002,108.256 c -2.755,-41.751 -37.6,-74.878 -80.036,-74.878 -42.447,0 -77.298,33.141 -80.038,74.907 C 28.978,113.059 0,145.39 0,184.184 c 0,42.234 34.36,76.595 76.595,76.595 h 116.483 c 3.313,0 6,-2.687 6,-6 0,-3.313 -2.687,-6 -6,-6 H 76.595 C 40.977,248.778 12,219.801 12,184.184 c 0,-34.275 26.833,-62.568 61.087,-64.411 3.184,-0.171 5.678,-2.803 5.678,-5.991 0,-0.119 -0.003,-0.236 -0.01,-0.355 0.09,-37.536 30.654,-68.049 68.211,-68.049 37.563,0 68.132,30.518 68.211,68.063 -0.005,0.116 -0.009,0.238 -0.009,0.329 0,3.196 2.505,5.831 5.696,5.992 34.37,1.741 61.292,30.038 61.292,64.421 0,19.526 -8.698,37.801 -23.864,50.138 -2.571,2.091 -2.959,5.87 -0.868,8.44 2.091,2.571 5.87,2.959 8.44,0.868 17.98,-14.626 28.292,-36.293 28.292,-59.447 0,-38.913 -29.076,-71.256 -67.154,-75.926 z" /><path
   inkscape:connector-curvature="0"
   style="fill:#ff1c00"
   id="path4"
   d="m 139.71958,102.43886 v 76.511 c 0,3.313 2.687,6 6,6 3.313,0 6,-2.687 6,-6 v -76.511 c 0,-3.312996 -2.687,-5.999996 -6,-5.999996 -3.313,0 -6,2.687 -6,5.999996 z" /><path
   inkscape:connector-curvature="0"
   style="fill:#ff0000"
   id="path6"
   d="m 110.96211,163.89153 c -1.53572,0.0297 -3.05909,0.64528 -4.20823,1.83873 -2.29724,2.38788 -2.22377,6.18617 0.16411,8.48341 l 34.97429,33.64687 c 2.38788,2.29725 6.18717,2.22375 8.48342,-0.16411 l 33.64686,-34.97429 c 2.29725,-2.38788 2.22377,-6.18617 -0.1641,-8.48341 -2.38788,-2.29725 -6.18717,-2.22376 -8.48342,0.1641 l -29.48672,30.65003 -30.65002,-29.48673 c -1.19443,-1.14811 -2.74148,-1.70429 -4.27619,-1.6746 z" />
<g
   id="g10">
</g>
<g
   id="g12">
</g>
<g
   id="g14">
</g>
<g
   id="g16">
</g>
<g
   id="g18">
</g>
<g
   id="g20">
</g>
<g
   id="g22">
</g>
<g
   id="g24">
</g>
<g
   id="g26">
</g>
<g
   id="g28">
</g>
<g
   id="g30">
</g>
<g
   id="g32">
</g>
<g
   id="g34">
</g>
<g
   id="g36">
</g>
<g
   id="g38">
</g>
</svg>