<?xml version="1.0" encoding="UTF-8" standalone="no"?>
<svg
   xmlns:dc="http://purl.org/dc/elements/1.1/"
   xmlns:cc="http://creativecommons.org/ns#"
   xmlns:rdf="http://www.w3.org/1999/02/22-rdf-syntax-ns#"
   xmlns:svg="http://www.w3.org/2000/svg"
   xmlns="http://www.w3.org/2000/svg"
   xmlns:sodipodi="http://sodipodi.sourceforge.net/DTD/sodipodi-0.dtd"
   xmlns:inkscape="http://www.inkscape.org/namespaces/inkscape"
   height="512"
   viewBox="0 0 58 60"
   width="512"
   version="1.1"
   id="svg11"
   sodipodi:docname="eliminar.svg"
   inkscape:version="0.92.3 (2405546, 2018-03-11)">
  <metadata
     id="metadata17">
    <rdf:RDF>
      <cc:Work
         rdf:about="">
        <dc:format>image/svg+xml</dc:format>
        <dc:type
           rdf:resource="http://purl.org/dc/dcmitype/StillImage" />
        <dc:title></dc:title>
      </cc:Work>
    </rdf:RDF>
  </metadata>
  <defs
     id="defs15" />
  <sodipodi:namedview
     pagecolor="#ffffff"
     bordercolor="#666666"
     borderopacity="1"
     objecttolerance="10"
     gridtolerance="10"
     guidetolerance="10"
     inkscape:pageopacity="0"
     inkscape:pageshadow="2"
     inkscape:window-width="830"
     inkscape:window-height="480"
     id="namedview13"
     showgrid="false"
     inkscape:zoom="0.4609375"
     inkscape:cx="256"
     inkscape:cy="256"
     inkscape:window-x="0"
     inkscape:window-y="50"
     inkscape:window-maximized="0"
     inkscape:current-layer="svg11" />
  <g
     id="Page-1"
     fill="none"
     fill-rule="evenodd"
     style="fill:#ff0000">
    <g
       id="047---Delete"
       fill="rgb(0,0,0)"
       fill-rule="nonzero"
       style="fill:#ff0000">
      <path
         id="Shape"
         d="m7.4531 57.2139c.24593878 1.6630605 1.7134602 2.868231 3.3926 2.7861h36.3086c1.6794712.0820715 3.147124-1.1236395 3.3926-2.7871l3.3841-42.307c2.5346757-.4790042 4.2880513-2.8088022 4.0466785-5.37702435-.2413728-2.56822213-2.3981392-4.5305278-4.9776785-4.52887565h-10.5195l-.6973-.8721c-2.0826643-2.61550816-5.246402-4.13586872-8.5898-4.1279h-8.3868c-3.3431613-.00816548-6.506675 1.5122644-8.5888 4.1279l-.6978.8721h-10.52c-2.5795393-.00165215-4.73630566 1.96065352-4.97767846 4.52887565-.2413728 2.56822215 1.51200281 4.89802015 4.04667846 5.37702435zm41.1-.1621c-.042.5234-.6689.9482-1.3984.9482h-36.309c-.73 0-1.3564-.4248-1.3984-.9473l-3.3643-42.0527h45.834zm-23.7465-55.0518h8.3868c2.556267-.00207043 4.9912341 1.08984308 6.69 3h-21.7655c1.6982162-1.91015689 4.1327983-3.00210992 6.6887-3zm-22.8066 8c.00181871-1.65610033 1.34389967-2.99818129 3-3h48c1.6568542 0 3 1.34314575 3 3 0 1.6568542-1.3431458 3-3 3h-48c-1.65610033-.0018187-2.99818129-1.3438997-3-3z"
         style="fill:#ff0000" />
      <path
         id="path3"
         d="m26 51c.5522847 0 1-.4477153 1-1v-27c0-1.1045695.8954305-2 2-2s2 .8954305 2 2c0 .5522847.4477153 1 1 1s1-.4477153 1-1c0-2.209139-1.790861-4-4-4s-4 1.790861-4 4v27c0 .5522847.4477153 1 1 1z"
         style="fill:#ff0000" />
      <path
         id="path5"
         d="m14 51c.5522847 0 1-.4477153 1-1v-27c0-1.1045695.8954305-2 2-2s2 .8954305 2 2c0 .5522847.4477153 1 1 1s1-.4477153 1-1c0-2.209139-1.790861-4-4-4s-4 1.790861-4 4v27c0 .5522847.4477153 1 1 1z"
         style="fill:#ff0000" />
      <path
         id="path7"
         d="m38 51c.5522847 0 1-.4477153 1-1v-27c0-1.1045695.8954305-2 2-2s2 .8954305 2 2c0 .5522847.4477153 1 1 1s1-.4477153 1-1c0-2.209139-1.790861-4-4-4s-4 1.790861-4 4v27c0 .5522847.4477153 1 1 1z"
         style="fill:#ff0000" />
    </g>
  </g>
</svg>
