<?xml version="1.0" encoding="UTF-8" standalone="no"?>
<!-- Generator: Adobe Illustrator 19.0.0, SVG Export Plug-In . SVG Version: 6.00 Build 0)  -->

<svg
   xmlns:dc="http://purl.org/dc/elements/1.1/"
   xmlns:cc="http://creativecommons.org/ns#"
   xmlns:rdf="http://www.w3.org/1999/02/22-rdf-syntax-ns#"
   xmlns:svg="http://www.w3.org/2000/svg"
   xmlns="http://www.w3.org/2000/svg"
   xmlns:sodipodi="http://sodipodi.sourceforge.net/DTD/sodipodi-0.dtd"
   xmlns:inkscape="http://www.inkscape.org/namespaces/inkscape"
   version="1.1"
   id="Capa_1"
   x="0px"
   y="0px"
   viewBox="0 0 512.001 512.001"
   style="enable-background:new 0 0 512.001 512.001;"
   xml:space="preserve"
   sodipodi:docname="english-language.svg"
   inkscape:version="0.92.3 (2405546, 2018-03-11)"><metadata
   id="metadata49"><rdf:RDF><cc:Work
       rdf:about=""><dc:format>image/svg+xml</dc:format><dc:type
         rdf:resource="http://purl.org/dc/dcmitype/StillImage" /><dc:title></dc:title></cc:Work></rdf:RDF></metadata><defs
   id="defs47">
	

		
	
			
			
			
		</defs><sodipodi:namedview
   pagecolor="#ffffff"
   bordercolor="#666666"
   borderopacity="1"
   objecttolerance="10"
   gridtolerance="10"
   guidetolerance="10"
   inkscape:pageopacity="0"
   inkscape:pageshadow="2"
   inkscape:window-width="1123"
   inkscape:window-height="480"
   id="namedview45"
   showgrid="false"
   showguides="false"
   inkscape:zoom="0.46093662"
   inkscape:cx="-270.10221"
   inkscape:cy="256.00049"
   inkscape:window-x="684"
   inkscape:window-y="137"
   inkscape:window-maximized="0"
   inkscape:current-layer="Capa_1" />
<path
   inkscape:connector-curvature="0"
   id="path2"
   d="m 305.271,182.764 c -7.789,0 -15.578,2.797 -15.578,9.387 v 67.9 l -32.352,-61.709 c -7.59,-14.579 -11.783,-15.578 -22.967,-15.578 -7.789,0 -15.577,2.996 -15.577,9.586 v 126.813 c 0,6.391 7.788,9.586 15.577,9.586 7.789,0 15.577,-3.195 15.577,-9.586 v -67.9 l 37.944,69.099 c 3.795,6.99 10.186,8.388 17.375,8.388 7.788,0 15.576,-3.195 15.576,-9.586 V 192.15 c 0,-6.589 -7.788,-9.386 -15.575,-9.386 z"
   style="fill:#0070ff" /><path
   inkscape:connector-curvature="0"
   id="path4"
   d="m 195.834,209.924 c 5.991,0 9.387,-6.39 9.387,-13.779 0,-6.391 -2.797,-13.381 -9.387,-13.381 h -71.096 c -6.79,0 -13.58,3.195 -13.58,9.586 v 126.814 c 0,6.391 6.79,9.586 13.58,9.586 h 71.096 c 6.59,0 9.387,-6.99 9.387,-13.381 0,-7.388 -3.396,-13.779 -9.387,-13.779 h -53.521 v -33.95 h 29.956 c 6.591,0 9.386,-6.39 9.386,-11.782 0,-6.391 -3.395,-12.183 -9.386,-12.183 h -29.956 v -33.751 z"
   style="fill:#0070ff" /><path
   inkscape:connector-curvature="0"
   id="path6"
   d="m 438.142,256 71.924,-151.419 c 2.943,-6.196 2.506,-13.469 -1.159,-19.267 C 505.241,79.516 498.859,76 492,76 H 20 C 8.954,76 0,84.954 0,96 v 320 c 0,11.046 8.954,20 20,20 h 472 c 6.859,0 13.241,-3.516 16.906,-9.314 3.665,-5.798 4.103,-13.07 1.159,-19.267 z M 40,396 V 116 h 420.358 l -62.424,131.419 c -2.579,5.43 -2.579,11.732 0,17.162 L 460.358,396 Z"
   style="fill:#0070ff" />
<g
   id="g14">
</g>
<g
   id="g16">
</g>
<g
   id="g18">
</g>
<g
   id="g20">
</g>
<g
   id="g22">
</g>
<g
   id="g24">
</g>
<g
   id="g26">
</g>
<g
   id="g28">
</g>
<g
   id="g30">
</g>
<g
   id="g32">
</g>
<g
   id="g34">
</g>
<g
   id="g36">
</g>
<g
   id="g38">
</g>
<g
   id="g40">
</g>
<g
   id="g42">
</g>
</svg>