<?xml version="1.0" encoding="UTF-8" standalone="no"?>
<svg
   xmlns:dc="http://purl.org/dc/elements/1.1/"
   xmlns:cc="http://creativecommons.org/ns#"
   xmlns:rdf="http://www.w3.org/1999/02/22-rdf-syntax-ns#"
   xmlns:svg="http://www.w3.org/2000/svg"
   xmlns="http://www.w3.org/2000/svg"
   xmlns:sodipodi="http://sodipodi.sourceforge.net/DTD/sodipodi-0.dtd"
   xmlns:inkscape="http://www.inkscape.org/namespaces/inkscape"
   id="Layer"
   enable-background="new 0 0 64 64"
   height="512"
   viewBox="0 0 64 64"
   width="512"
   version="1.1"
   sodipodi:docname="estaciones.svg"
   inkscape:version="0.92.3 (2405546, 2018-03-11)">
  <metadata
     id="metadata9">
    <rdf:RDF>
      <cc:Work
         rdf:about="">
        <dc:format>image/svg+xml</dc:format>
        <dc:type
           rdf:resource="http://purl.org/dc/dcmitype/StillImage" />
        <dc:title />
      </cc:Work>
    </rdf:RDF>
  </metadata>
  <defs
     id="defs7" />
  <sodipodi:namedview
     pagecolor="#ffffff"
     bordercolor="#666666"
     borderopacity="1"
     objecttolerance="10"
     gridtolerance="10"
     guidetolerance="10"
     inkscape:pageopacity="0"
     inkscape:pageshadow="2"
     inkscape:window-width="830"
     inkscape:window-height="480"
     id="namedview5"
     showgrid="false"
     inkscape:zoom="0.4609375"
     inkscape:cx="256"
     inkscape:cy="256"
     inkscape:window-x="0"
     inkscape:window-y="50"
     inkscape:window-maximized="0"
     inkscape:current-layer="Layer" />
  <path
     d="m52 32h-14v-4h6c2.206 0 4-1.794 4-4v-12c0-2.206-1.794-4-4-4h-24c-2.206 0-4 1.794-4 4v12c0 2.206 1.794 4 4 4h6v4h-14c-2.206 0-4 1.794-4 4v18c0 1.104.896 2 2 2s2-.896 2-2v-18h24v18c0 1.104.896 2 2 2h16c1.104 0 2-.896 2-2v-18c0-2.206-1.794-4-4-4zm0 4v6h-12v-6zm-32.002-24h.002 24v12h-24zm10.002 16h4v4h-4zm10 24v-6h12v6z"
     id="path2"
     style="fill:#8dcaff;fill-opacity:1" />
</svg>
