<?xml version="1.0" encoding="UTF-8" standalone="no"?>
<svg
   xmlns:dc="http://purl.org/dc/elements/1.1/"
   xmlns:cc="http://creativecommons.org/ns#"
   xmlns:rdf="http://www.w3.org/1999/02/22-rdf-syntax-ns#"
   xmlns:svg="http://www.w3.org/2000/svg"
   xmlns="http://www.w3.org/2000/svg"
   xmlns:sodipodi="http://sodipodi.sourceforge.net/DTD/sodipodi-0.dtd"
   xmlns:inkscape="http://www.inkscape.org/namespaces/inkscape"
   height="480pt"
   viewBox="-72 0 480 480"
   width="480pt"
   version="1.1"
   id="svg16"
   sodipodi:docname="facturarremito.svg"
   inkscape:version="0.92.3 (2405546, 2018-03-11)">
  <metadata
     id="metadata22">
    <rdf:RDF>
      <cc:Work
         rdf:about="">
        <dc:format>image/svg+xml</dc:format>
        <dc:type
           rdf:resource="http://purl.org/dc/dcmitype/StillImage" />
        <dc:title />
      </cc:Work>
    </rdf:RDF>
  </metadata>
  <defs
     id="defs20" />
  <sodipodi:namedview
     pagecolor="#ffffff"
     bordercolor="#666666"
     borderopacity="1"
     objecttolerance="10"
     gridtolerance="10"
     guidetolerance="10"
     inkscape:pageopacity="0"
     inkscape:pageshadow="2"
     inkscape:window-width="1374"
     inkscape:window-height="735"
     id="namedview18"
     showgrid="false"
     inkscape:zoom="0.36875"
     inkscape:cx="905.1076"
     inkscape:cy="276.61016"
     inkscape:window-x="0"
     inkscape:window-y="50"
     inkscape:window-maximized="0"
     inkscape:current-layer="svg16" />
  <path
     d="m312 0h-288c-13.601562 0-24 10.398438-24 24v432c0 13.601562 10.398438 24 24 24h219.199219l92.800781-92.800781v-363.199219c0-13.601562-10.398438-24-24-24zm8 380.800781-72 72v-52.800781c0-4.800781 3.199219-8 8-8h40v-16h-40c-13.601562 0-24 10.398438-24 24v64h-208c-4.800781 0-8-3.199219-8-8v-432c0-4.800781 3.199219-8 8-8h288c4.800781 0 8 3.199219 8 8zm0 0"
     id="path2"
     style="fill:#7fff7f" />
  <path
     d="M 239.99999,151.78383 V 54.182269 l -72,-35.999999 L 96,54.182269 v 97.601561 l 71.99999,36 z m -72,-62.40234 L 148,77.381489 l 47.99999,-27.19922 20,9.60156 z m 10.39844,-48.000001 -45.59765,26.40234 -12.80078,-8 47.99999,-23.999997 z m -66.39843,32 48,29.601561 v 46.39844 h 15.99999 v -46.39844 l 48,-29.601561 v 68.800781 l -56,28 -55.99999,-28 z m 0,0"
     id="path14"
     inkscape:connector-curvature="0"
     style="fill:#7fff7f" />
  <text
     xml:space="preserve"
     style="font-style:normal;font-weight:normal;font-size:192.71852112px;line-height:1.25;font-family:sans-serif;letter-spacing:0px;word-spacing:0px;fill:#7fff7f;fill-opacity:1;stroke:none;stroke-width:1.00374222;"
     x="95.40097"
     y="430.66241"
     id="text30"
     transform="scale(0.99674404,1.0032666)"><tspan
       sodipodi:role="line"
       id="tspan28"
       x="95.40097"
       y="430.66241"
       style="font-style:normal;font-variant:normal;font-weight:bold;font-stretch:normal;font-size:192.71852112px;font-family:sans-serif;-inkscape-font-specification:'sans-serif, Bold';font-variant-ligatures:normal;font-variant-caps:normal;font-variant-numeric:normal;font-feature-settings:normal;text-align:start;writing-mode:lr-tb;text-anchor:start;stroke-width:1.00374222;fill:#7fff7f;">$</tspan></text>
  <path
     sodipodi:type="star"
     style="fill:#7fff7f;stroke-width:0.75"
     id="path7667"
     sodipodi:sides="3"
     sodipodi:cx="161.8983"
     sodipodi:cy="221.69491"
     sodipodi:r1="61.050838"
     sodipodi:r2="30.525417"
     sodipodi:arg1="1.6041173"
     sodipodi:arg2="2.6513149"
     inkscape:flatsided="false"
     inkscape:rounded="0"
     inkscape:randomized="0"
     d="m 159.8644,282.71187 -24.89569,-46.64342 -24.89569,-46.64342 52.84223,1.76141 52.84223,1.76141 -27.94654,44.88201 z"
     inkscape:transform-center-x="1.0169492"
     inkscape:transform-center-y="14.373533" />
</svg>
