<?xml version="1.0" encoding="UTF-8" standalone="no"?>
<svg
   xmlns:dc="http://purl.org/dc/elements/1.1/"
   xmlns:cc="http://creativecommons.org/ns#"
   xmlns:rdf="http://www.w3.org/1999/02/22-rdf-syntax-ns#"
   xmlns:svg="http://www.w3.org/2000/svg"
   xmlns="http://www.w3.org/2000/svg"
   xmlns:sodipodi="http://sodipodi.sourceforge.net/DTD/sodipodi-0.dtd"
   xmlns:inkscape="http://www.inkscape.org/namespaces/inkscape"
   height="480pt"
   viewBox="-72 0 480 480"
   width="480pt"
   version="1.1"
   id="svg16"
   sodipodi:docname="facturarremito-compras.svg"
   inkscape:version="0.92.3 (2405546, 2018-03-11)">
  <metadata
     id="metadata22">
    <rdf:RDF>
      <cc:Work
         rdf:about="">
        <dc:format>image/svg+xml</dc:format>
        <dc:type
           rdf:resource="http://purl.org/dc/dcmitype/StillImage" />
        <dc:title />
      </cc:Work>
    </rdf:RDF>
  </metadata>
  <defs
     id="defs20" />
  <sodipodi:namedview
     pagecolor="#ffffff"
     bordercolor="#666666"
     borderopacity="1"
     objecttolerance="10"
     gridtolerance="10"
     guidetolerance="10"
     inkscape:pageopacity="0"
     inkscape:pageshadow="2"
     inkscape:window-width="1920"
     inkscape:window-height="1006"
     id="namedview18"
     showgrid="false"
     inkscape:zoom="0.36875"
     inkscape:cx="-133.53647"
     inkscape:cy="233.22032"
     inkscape:window-x="0"
     inkscape:window-y="50"
     inkscape:window-maximized="1"
     inkscape:current-layer="svg16" />
  <path
     d="M 240.81356,2.0338983 H -47.186441 c -13.601562,0 -24,10.3984377 -24,23.9999997 V 458.0339 c 0,13.60156 10.398438,24 24,24 H 172.01278 l 92.80078,-92.80078 V 26.033898 c 0,-13.601562 -10.39844,-23.9999997 -24,-23.9999997 z m 8,380.8007817 -72,72 V 402.0339 c 0,-4.80078 3.19922,-8 8,-8 h 40 v -16 h -40 c -13.60156,0 -24,10.39844 -24,24 v 64 H -47.186441 c -4.800781,0 -8,-3.19922 -8,-8 V 26.033898 c 0,-4.800781 3.199219,-8 8,-8 H 240.81356 c 4.80078,0 8,3.199219 8,8 z m 0,0"
     id="path2"
     style="fill:#8dcaff;fill-opacity:1"
     inkscape:connector-curvature="0" />
  <path
     d="M 168.81355,153.81773 V 56.216167 L 96.813549,20.216168 24.813559,56.216167 v 97.601563 l 71.99999,36 z M 96.813549,91.415388 76.813559,79.415387 l 47.999991,-27.19922 20,9.60156 z m 10.398441,-48.000001 -45.597651,26.40234 -12.80078,-8 47.99999,-23.999997 z m -66.398431,32 48,29.601563 v 46.39844 h 15.999991 v -46.39844 l 48,-29.601563 v 68.800783 l -56.000001,28 -55.99999,-28 z m 0,0"
     id="path14"
     inkscape:connector-curvature="0"
     style="fill:#8dcaff;fill-opacity:1" />
  <text
     xml:space="preserve"
     style="font-style:normal;font-weight:normal;font-size:192.71852112px;line-height:1.25;font-family:sans-serif;letter-spacing:0px;word-spacing:0px;fill:#8dcaff;fill-opacity:1;stroke:none;stroke-width:1.00374222;"
     x="23.981993"
     y="432.6897"
     id="text30"
     transform="scale(0.99674404,1.0032666)"><tspan
       sodipodi:role="line"
       id="tspan28"
       x="23.981993"
       y="432.6897"
       style="font-style:normal;font-variant:normal;font-weight:bold;font-stretch:normal;font-size:192.71852112px;font-family:sans-serif;-inkscape-font-specification:'sans-serif, Bold';font-variant-ligatures:normal;font-variant-caps:normal;font-variant-numeric:normal;font-feature-settings:normal;text-align:start;writing-mode:lr-tb;text-anchor:start;fill:#8dcaff;stroke-width:1.00374222;fill-opacity:1;">$</tspan></text>
  <path
     sodipodi:type="star"
     style="fill:#8dcaff;stroke-width:0.75;fill-opacity:1"
     id="path7667"
     sodipodi:sides="3"
     sodipodi:cx="90.711859"
     sodipodi:cy="223.72881"
     sodipodi:r1="61.050838"
     sodipodi:r2="30.525417"
     sodipodi:arg1="1.6041173"
     sodipodi:arg2="2.6513149"
     inkscape:flatsided="false"
     inkscape:rounded="0"
     inkscape:randomized="0"
     d="m 88.677964,284.74576 -24.895691,-46.64342 -24.895692,-46.64342 52.84223,1.76141 52.842229,1.76141 -27.94654,44.88201 z"
     inkscape:transform-center-x="1.0169492"
     inkscape:transform-center-y="14.373533" />
  <text
     xml:space="preserve"
     style="font-style:normal;font-weight:normal;font-size:43.15723419px;line-height:1.25;font-family:sans-serif;letter-spacing:0px;word-spacing:0px;fill:#8dcaff;fill-opacity:1;stroke:none;stroke-width:1.07893085;"
     x="240.26003"
     y="133.28613"
     id="text13"
     transform="scale(1.0401961,0.96135722)"><tspan
       sodipodi:role="line"
       id="tspan11"
       x="240.26003"
       y="133.28613"
       style="font-style:normal;font-variant:normal;font-weight:bold;font-stretch:normal;font-size:207.15472412px;font-family:sans-serif;-inkscape-font-specification:'sans-serif, Bold';font-variant-ligatures:normal;font-variant-caps:normal;font-variant-numeric:normal;font-feature-settings:normal;text-align:start;writing-mode:lr-tb;text-anchor:start;fill:#8dcaff;stroke-width:1.07893085;fill-opacity:1;">+</tspan></text>
</svg>
