<?xml version="1.0" encoding="UTF-8" standalone="no"?>
<!-- Generator: Adobe Illustrator 19.0.0, SVG Export Plug-In . SVG Version: 6.00 Build 0)  -->

<svg
   xmlns:dc="http://purl.org/dc/elements/1.1/"
   xmlns:cc="http://creativecommons.org/ns#"
   xmlns:rdf="http://www.w3.org/1999/02/22-rdf-syntax-ns#"
   xmlns:svg="http://www.w3.org/2000/svg"
   xmlns="http://www.w3.org/2000/svg"
   xmlns:sodipodi="http://sodipodi.sourceforge.net/DTD/sodipodi-0.dtd"
   xmlns:inkscape="http://www.inkscape.org/namespaces/inkscape"
   version="1.1"
   id="Capa_1"
   x="0px"
   y="0px"
   viewBox="0 0 512 512"
   style="enable-background:new 0 0 512 512;"
   xml:space="preserve"
   sodipodi:docname="factura-compras.svg"
   inkscape:version="0.92.3 (2405546, 2018-03-11)"><metadata
   id="metadata97"><rdf:RDF><cc:Work
       rdf:about=""><dc:format>image/svg+xml</dc:format><dc:type
         rdf:resource="http://purl.org/dc/dcmitype/StillImage" /><dc:title /></cc:Work></rdf:RDF></metadata><defs
   id="defs95" /><sodipodi:namedview
   pagecolor="#ffffff"
   bordercolor="#666666"
   borderopacity="1"
   objecttolerance="10"
   gridtolerance="10"
   guidetolerance="10"
   inkscape:pageopacity="0"
   inkscape:pageshadow="2"
   inkscape:window-width="1920"
   inkscape:window-height="1006"
   id="namedview93"
   showgrid="false"
   inkscape:zoom="0.65186406"
   inkscape:cx="-331.54581"
   inkscape:cy="214.09907"
   inkscape:window-x="0"
   inkscape:window-y="50"
   inkscape:window-maximized="1"
   inkscape:current-layer="Capa_1" />
<g
   id="g6"
   style="fill:#8dcaff;fill-opacity:1"
   transform="matrix(0.82917251,0,0,1,-19.931858,1.5340622)">
	<g
   id="g4"
   style="fill:#8dcaff;fill-opacity:1">
		<path
   d="m 474.994,246.001 h -74.012 v -236 c 0,-4.044 -2.437,-7.691 -6.173,-9.239 -3.738,-1.549 -8.039,-0.691 -10.898,2.167 L 355.582,31.257 327.255,2.93 c -3.905,-3.905 -10.237,-3.905 -14.143,0 L 284.784,31.258 256.459,2.93 c -3.905,-3.905 -10.237,-3.905 -14.143,0 L 213.988,31.258 185.659,2.93 c -3.905,-3.905 -10.237,-3.905 -14.142,0 L 143.189,31.258 114.863,2.93 c -3.905,-3.905 -10.237,-3.905 -14.143,0 L 72.392,31.258 44.065,2.93 C 40.184,-0.951 33.907,-0.971 29.992,2.875 27.936,4.896 26.939,7.589 27.008,10.264 v 449.738 c 0,28.672 23.326,51.998 51.998,51.998 h 353.976 c 0.002,0 0.003,0 0.005,0 0.003,0 0.006,0 0.009,0 28.672,0 51.998,-23.326 51.998,-51.998 V 256 c 0,-5.523 -4.477,-9.999 -10,-9.999 z M 79.006,492 C 61.361,492 47.007,477.645 47.007,460.001 V 34.156 L 65.321,52.47 c 3.905,3.905 10.237,3.905 14.143,0 L 107.792,24.142 136.12,52.47 c 3.905,3.905 10.237,3.905 14.143,0 L 178.591,24.142 206.92,52.47 c 3.905,3.905 10.237,3.905 14.142,0 L 249.39,24.142 277.718,52.47 c 3.905,3.905 10.237,3.905 14.143,0 l 28.328,-28.328 28.328,28.328 c 3.906,3.905 10.238,3.905 14.142,0 L 380.988,34.142 V 256 c 0,0.091 0.011,0.18 0.014,0.271 v 203.73 c 0,12.062 4.14,23.168 11.057,31.999 z m 385.988,-31.999 c 0,17.644 -14.355,31.999 -31.999,31.999 -17.644,0 -31.999,-14.355 -31.999,-31.999 V 266 h 63.998 z"
   id="path2"
   style="fill:#8dcaff;fill-opacity:1"
   inkscape:connector-curvature="0" />
	</g>
</g>
<g
   id="g12"
   style="fill:#8dcaff;fill-opacity:1"
   transform="matrix(1.1925126,0,0,1,-94.616693,1.5340622)">
	<g
   id="g10"
   style="fill:#8dcaff;fill-opacity:1">
		<path
   d="m 213.995,158.855 c -9.925,0 -17.999,-6.914 -17.999,-15.411 0,-8.498 8.075,-15.412 17.999,-15.412 9.925,0 17.999,6.914 17.999,15.412 0,5.523 4.477,10 10,10 5.523,0 10,-4.477 10,-10 0,-16.301 -11.884,-30.055 -27.999,-34.157 v -6.774 c 0,-5.523 -4.477,-10 -10,-10 -5.523,0 -10,4.477 -10,10 v 6.774 c -16.116,4.102 -27.999,17.857 -27.999,34.157 0,19.525 17.047,35.41 37.999,35.41 9.925,0 17.999,6.914 17.999,15.412 0,8.498 -8.074,15.411 -17.999,15.411 -9.925,0 -17.999,-6.914 -17.999,-15.411 0,-5.523 -4.477,-10 -10,-10 -5.523,0 -10,4.477 -10,10 0,16.301 11.884,30.055 27.999,34.157 v 8.16 c 0,5.523 4.477,10 10,10 5.523,0 10,-4.477 10,-10 v -8.16 c 16.116,-4.102 27.999,-17.856 27.999,-34.157 0,-19.525 -17.047,-35.411 -37.999,-35.411 z"
   id="path8"
   style="fill:#8dcaff;fill-opacity:1"
   inkscape:connector-curvature="0" />
	</g>
</g>
<g
   id="g18"
   style="fill:#8dcaff;fill-opacity:1"
   transform="matrix(0.82917251,0,0,1,-19.931858,1.5340622)">
	<g
   id="g16"
   style="fill:#8dcaff;fill-opacity:1">
		<path
   d="m 314.461,158.856 h -19.49 c -5.523,0 -10,4.477 -10,10 0,5.523 4.477,10 10,10 h 19.49 c 5.523,0 10,-4.477 10,-10 0,-5.523 -4.477,-10 -10,-10 z"
   id="path14"
   style="fill:#8dcaff;fill-opacity:1"
   inkscape:connector-curvature="0" />
	</g>
</g>
<g
   id="g24"
   style="fill:#8dcaff;fill-opacity:1"
   transform="matrix(0.82917251,0,0,1,-19.931858,1.5340622)">
	<g
   id="g22"
   style="fill:#8dcaff;fill-opacity:1">
		<path
   d="m 133.02,158.856 h -19.49 c -5.523,0 -10,4.477 -10,10 0,5.523 4.477,10 10,10 h 19.49 c 5.523,0 10,-4.477 10,-10 0,-5.523 -4.477,-10 -10,-10 z"
   id="path20"
   style="fill:#8dcaff;fill-opacity:1"
   inkscape:connector-curvature="0" />
	</g>
</g>
<g
   id="g30"
   style="fill:#8dcaff;fill-opacity:1"
   transform="matrix(0.82917251,0,0,1,-19.931858,1.5340622)">
	<g
   id="g28"
   style="fill:#8dcaff;fill-opacity:1">
		<path
   d="M 319.52,270.007 H 161.097 c -5.523,0 -10,4.477 -10,10 0,5.523 4.477,10 10,10 H 319.52 c 5.523,0 10,-4.477 10,-10 -10e-4,-5.523 -4.477,-10 -10,-10 z"
   id="path26"
   style="fill:#8dcaff;fill-opacity:1"
   inkscape:connector-curvature="0" />
	</g>
</g>
<g
   id="g36"
   style="fill:#8dcaff;fill-opacity:1"
   transform="matrix(0.82917251,0,0,1,-19.931858,1.5340622)">
	<g
   id="g34"
   style="fill:#8dcaff;fill-opacity:1">
		<path
   d="m 115.538,272.937 c -1.86,-1.86 -4.44,-2.93 -7.07,-2.93 -2.63,0 -5.21,1.07 -7.07,2.93 -1.86,1.86 -2.93,4.44 -2.93,7.07 0,2.63 1.07,5.21 2.93,7.07 1.86,1.86 4.44,2.93 7.07,2.93 2.63,0 5.21,-1.07 7.07,-2.93 1.86,-1.86 2.93,-4.44 2.93,-7.07 0,-2.63 -1.07,-5.21 -2.93,-7.07 z"
   id="path32"
   style="fill:#8dcaff;fill-opacity:1"
   inkscape:connector-curvature="0" />
	</g>
</g>
<g
   id="g42"
   style="fill:#8dcaff;fill-opacity:1"
   transform="matrix(0.82917251,0,0,1,-19.931858,1.5340622)">
	<g
   id="g40"
   style="fill:#8dcaff;fill-opacity:1">
		<path
   d="M 319.52,336.005 H 161.097 c -5.523,0 -10,4.477 -10,10 0,5.523 4.477,10 10,10 H 319.52 c 5.523,0 10,-4.477 10,-10 -10e-4,-5.523 -4.477,-10 -10,-10 z"
   id="path38"
   style="fill:#8dcaff;fill-opacity:1"
   inkscape:connector-curvature="0" />
	</g>
</g>
<g
   id="g48"
   style="fill:#8dcaff;fill-opacity:1"
   transform="matrix(0.82917251,0,0,1,-19.931858,1.5340622)">
	<g
   id="g46"
   style="fill:#8dcaff;fill-opacity:1">
		<path
   d="m 115.538,338.935 c -1.86,-1.86 -4.44,-2.93 -7.07,-2.93 -2.63,0 -5.21,1.07 -7.07,2.93 -1.86,1.86 -2.93,4.44 -2.93,7.07 0,2.63 1.07,5.21 2.93,7.07 1.86,1.86 4.44,2.93 7.07,2.93 2.63,0 5.21,-1.07 7.07,-2.93 1.86,-1.86 2.93,-4.44 2.93,-7.07 0,-2.63 -1.07,-5.21 -2.93,-7.07 z"
   id="path44"
   style="fill:#8dcaff;fill-opacity:1"
   inkscape:connector-curvature="0" />
	</g>
</g>
<g
   id="g54"
   style="fill:#8dcaff;fill-opacity:1"
   transform="matrix(0.82917251,0,0,1,-19.931858,1.5340622)">
	<g
   id="g52"
   style="fill:#8dcaff;fill-opacity:1">
		<path
   d="M 319.52,402.003 H 161.097 c -5.523,0 -10,4.477 -10,10 0,5.523 4.477,10 10,10 H 319.52 c 5.523,0 10,-4.477 10,-10 0,-5.523 -4.477,-10 -10,-10 z"
   id="path50"
   style="fill:#8dcaff;fill-opacity:1"
   inkscape:connector-curvature="0" />
	</g>
</g>
<g
   id="g60"
   style="fill:#8dcaff;fill-opacity:1"
   transform="matrix(0.82917251,0,0,1,-19.931858,1.5340622)">
	<g
   id="g58"
   style="fill:#8dcaff;fill-opacity:1">
		<path
   d="m 115.538,404.933 c -1.86,-1.86 -4.44,-2.93 -7.07,-2.93 -2.63,0 -5.21,1.07 -7.07,2.93 -1.86,1.86 -2.93,4.44 -2.93,7.07 0,2.63 1.07,5.21 2.93,7.07 1.86,1.86 4.44,2.93 7.07,2.93 2.63,0 5.21,-1.07 7.07,-2.93 1.86,-1.86 2.93,-4.44 2.93,-7.07 0,-2.63 -1.07,-5.21 -2.93,-7.07 z"
   id="path56"
   style="fill:#8dcaff;fill-opacity:1"
   inkscape:connector-curvature="0" />
	</g>
</g>
<g
   id="g62">
</g>
<g
   id="g64">
</g>
<g
   id="g66">
</g>
<g
   id="g68">
</g>
<g
   id="g70">
</g>
<g
   id="g72">
</g>
<g
   id="g74">
</g>
<g
   id="g76">
</g>
<g
   id="g78">
</g>
<g
   id="g80">
</g>
<g
   id="g82">
</g>
<g
   id="g84">
</g>
<g
   id="g86">
</g>
<g
   id="g88">
</g>
<g
   id="g90">
</g>
<text
   xml:space="preserve"
   style="font-style:normal;font-weight:normal;font-size:51.98794937px;line-height:1.25;font-family:sans-serif;letter-spacing:0px;word-spacing:0px;fill:#8dcaff;fill-opacity:1;stroke:none;stroke-width:1.29969871;"
   x="330.00946"
   y="159.94197"
   id="text53"
   transform="scale(0.99528438,1.004738)"><tspan
     sodipodi:role="line"
     id="tspan51"
     x="330.00946"
     y="159.94197"
     style="font-style:normal;font-variant:normal;font-weight:bold;font-stretch:normal;font-size:249.54216003px;font-family:sans-serif;-inkscape-font-specification:'sans-serif, Bold';font-variant-ligatures:normal;font-variant-caps:normal;font-variant-numeric:normal;font-feature-settings:normal;text-align:start;writing-mode:lr-tb;text-anchor:start;fill:#8dcaff;stroke-width:1.29969871;fill-opacity:1;">+</tspan></text>


</svg>