<?xml version="1.0" encoding="UTF-8" standalone="no"?>
<!-- Generator: Adobe Illustrator 16.0.0, SVG Export Plug-In . SVG Version: 6.00 Build 0)  -->

<svg
   xmlns:dc="http://purl.org/dc/elements/1.1/"
   xmlns:cc="http://creativecommons.org/ns#"
   xmlns:rdf="http://www.w3.org/1999/02/22-rdf-syntax-ns#"
   xmlns:svg="http://www.w3.org/2000/svg"
   xmlns="http://www.w3.org/2000/svg"
   xmlns:sodipodi="http://sodipodi.sourceforge.net/DTD/sodipodi-0.dtd"
   xmlns:inkscape="http://www.inkscape.org/namespaces/inkscape"
   version="1.1"
   id="Capa_1"
   x="0px"
   y="0px"
   width="124px"
   height="124px"
   viewBox="0 0 124 124"
   style="enable-background:new 0 0 124 124;"
   xml:space="preserve"
   sodipodi:docname="hr.svg"
   inkscape:version="0.92.3 (2405546, 2018-03-11)"><metadata
   id="metadata45"><rdf:RDF><cc:Work
       rdf:about=""><dc:format>image/svg+xml</dc:format><dc:type
         rdf:resource="http://purl.org/dc/dcmitype/StillImage" /><dc:title></dc:title></cc:Work></rdf:RDF></metadata><defs
   id="defs43" /><sodipodi:namedview
   pagecolor="#ffffff"
   bordercolor="#666666"
   borderopacity="1"
   objecttolerance="10"
   gridtolerance="10"
   guidetolerance="10"
   inkscape:pageopacity="0"
   inkscape:pageshadow="2"
   inkscape:window-width="640"
   inkscape:window-height="480"
   id="namedview41"
   showgrid="false"
   inkscape:zoom="1.9032258"
   inkscape:cx="62"
   inkscape:cy="62"
   inkscape:window-x="0"
   inkscape:window-y="50"
   inkscape:window-maximized="0"
   inkscape:current-layer="Capa_1" />
<g
   id="g8"
   style="fill:#7fff7f">
	<path
   d="M121.4,89.5H2.6c-1.4,0-2.6,1.2-2.6,2.6v9.801c0,1.399,1.2,2.6,2.6,2.6h118.8c1.399,0,2.6-1.2,2.6-2.6V92.1   C124,90.7,122.8,89.5,121.4,89.5z"
   id="path2"
   style="fill:#7fff7f" />
	<path
   d="M2.7,77.5h11.9c1.7,0,3.4-1.7,3.4-3.4V56.7c0-1.7,1-3.2,2.7-3.2h13.6c1.7,0,2.8,1.5,2.8,3.2v17.5   c0,1.7,1.6,3.399,3.3,3.399h12c1.7,0,2.7-1.699,2.7-3.399V22c0-1.7-1-2.5-2.7-2.5h-12c-1.7,0-3.3,0.9-3.3,2.5v14.3   c0,1.7-1.1,3.2-2.8,3.2H20.7C19,39.5,18,38,18,36.3V22c0-1.7-1.7-2.5-3.4-2.5H2.7C1,19.5,0,20.4,0,22v52.1C0,75.8,1,77.5,2.7,77.5z   "
   id="path4"
   style="fill:#7fff7f" />
	<path
   d="M109.9,50.3c0.899-0.3,1.6-0.7,2.3-1.1c2.399-1.5,4.3-3.4,5.7-5.7c1.399-2.3,2.1-5.1,2.1-8.3c0-3.7-0.9-6.8-2.7-9.4   c-1.8-2.6-4.2-4.1-7.1-5.1c-2.9-1-7.2-1.2-12.7-1.2H69.1c-0.899,0-2.1,0.2-2.1,1.1v55c0,0.9,1.2,1.9,2.1,1.9H84   c0.9,0,2.1-1,2.1-1.9V55.1c0-0.9,0.5-1.6,1.301-1.6c1.6,0,3,0.4,4.3,1.3c1,0.7,2,2.2,3.2,4.5l9.1,17.2c0.3,0.5,0.8,1,1.4,1h16.8   c1.2,0,2-1.4,1.399-2.5c-2.6-5.1-4.899-10.5-8.199-15.3c-1.301-1.9-2.7-4.1-4.4-5.6C109.9,53.2,107.7,51.2,109.9,50.3z M101,39.6   c-0.9,1.2-2.3,2-3.8,2.4c-3.2,0.9-6.601,0.6-9.9,0.6C86.4,42.6,86,41.9,86,41v-8.7c0-0.9,0.2-1.8,1.1-1.8H93.4   c2.8,0,5.8,0.2,7.6,2.8C102.3,35.1,102.3,37.8,101,39.6z"
   id="path6"
   style="fill:#7fff7f" />
</g>
<g
   id="g10">
</g>
<g
   id="g12">
</g>
<g
   id="g14">
</g>
<g
   id="g16">
</g>
<g
   id="g18">
</g>
<g
   id="g20">
</g>
<g
   id="g22">
</g>
<g
   id="g24">
</g>
<g
   id="g26">
</g>
<g
   id="g28">
</g>
<g
   id="g30">
</g>
<g
   id="g32">
</g>
<g
   id="g34">
</g>
<g
   id="g36">
</g>
<g
   id="g38">
</g>
</svg>