<?xml version="1.0" encoding="UTF-8" standalone="no"?>
<!-- Generator: Adobe Illustrator 19.0.0, SVG Export Plug-In . SVG Version: 6.00 Build 0)  -->

<svg
   xmlns:dc="http://purl.org/dc/elements/1.1/"
   xmlns:cc="http://creativecommons.org/ns#"
   xmlns:rdf="http://www.w3.org/1999/02/22-rdf-syntax-ns#"
   xmlns:svg="http://www.w3.org/2000/svg"
   xmlns="http://www.w3.org/2000/svg"
   xmlns:sodipodi="http://sodipodi.sourceforge.net/DTD/sodipodi-0.dtd"
   xmlns:inkscape="http://www.inkscape.org/namespaces/inkscape"
   version="1.1"
   id="Layer_1"
   x="0px"
   y="0px"
   viewBox="0 0 512 512"
   style="enable-background:new 0 0 512 512;"
   xml:space="preserve"
   sodipodi:docname="impuestos.svg"
   inkscape:version="0.92.3 (2405546, 2018-03-11)"><metadata
   id="metadata187"><rdf:RDF><cc:Work
       rdf:about=""><dc:format>image/svg+xml</dc:format><dc:type
         rdf:resource="http://purl.org/dc/dcmitype/StillImage" /><dc:title /></cc:Work></rdf:RDF></metadata><defs
   id="defs185" /><sodipodi:namedview
   pagecolor="#ffffff"
   bordercolor="#666666"
   borderopacity="1"
   objecttolerance="10"
   gridtolerance="10"
   guidetolerance="10"
   inkscape:pageopacity="0"
   inkscape:pageshadow="2"
   inkscape:window-width="830"
   inkscape:window-height="480"
   id="namedview183"
   showgrid="false"
   inkscape:zoom="0.4609375"
   inkscape:cx="277.20739"
   inkscape:cy="256"
   inkscape:window-x="0"
   inkscape:window-y="50"
   inkscape:window-maximized="0"
   inkscape:current-layer="Layer_1" />
<g
   id="g6"
   style="fill:#8dcaff;fill-opacity:1">
	<g
   id="g4"
   style="fill:#8dcaff;fill-opacity:1">
		<path
   d="M427.023,0H84.977C71.126,0,59.858,11.268,59.858,25.119v461.762c0,13.851,11.268,25.119,25.119,25.119h265.086    c2.126,0,4.166-0.844,5.668-2.348l94.063-94.063c1.504-1.503,2.348-3.542,2.348-5.668V25.119C452.142,11.268,440.874,0,427.023,0z     M358.079,484.63v-57.607c0-5.01,4.076-9.086,9.086-9.086h57.607L358.079,484.63z M436.109,401.904h-68.944    c-13.851,0-25.119,11.268-25.119,25.119v68.944H84.977c-5.01,0-9.086-4.076-9.086-9.086V25.119c0-5.01,4.076-9.086,9.086-9.086    h342.046c5.01,0,9.086,4.076,9.086,9.086V401.904z"
   id="path2"
   style="fill:#8dcaff;fill-opacity:1" />
	</g>
</g>
<g
   id="g12"
   style="fill:#8dcaff;fill-opacity:1">
	<g
   id="g10"
   style="fill:#8dcaff;fill-opacity:1">
		<path
   d="M204.693,68.409h-68.409c-4.427,0-8.017,3.589-8.017,8.017s3.589,8.017,8.017,8.017h26.188v77.495    c0,4.427,3.589,8.017,8.017,8.017s8.017-3.589,8.017-8.017V84.443h26.188c4.427,0,8.017-3.589,8.017-8.017    S209.12,68.409,204.693,68.409z"
   id="path8"
   style="fill:#8dcaff;fill-opacity:1" />
	</g>
</g>
<g
   id="g18"
   style="fill:#8dcaff;fill-opacity:1">
	<g
   id="g16"
   style="fill:#8dcaff;fill-opacity:1">
		<path
   d="M289.332,159.634l-23.826-79.418c-2.119-7.062-8.496-11.807-15.869-11.807h-4.378c-7.373,0-13.75,4.745-15.869,11.807    l-23.826,79.418c-1.272,4.241,1.134,8.71,5.375,9.982c4.241,1.275,8.71-1.134,9.982-5.374l3.416-11.39h46.219l3.417,11.389    c1.042,3.473,4.227,5.715,7.676,5.715c0.762,0,1.538-0.11,2.307-0.34C288.198,168.344,290.605,163.875,289.332,159.634z     M229.149,136.818l15.598-51.995c0.067-0.224,0.278-0.381,0.512-0.381h4.378c0.234,0,0.445,0.156,0.512,0.381l15.598,51.995    H229.149z"
   id="path14"
   style="fill:#8dcaff;fill-opacity:1" />
	</g>
</g>
<g
   id="g24"
   style="fill:#8dcaff;fill-opacity:1">
	<g
   id="g22"
   style="fill:#8dcaff;fill-opacity:1">
		<path
   d="M373.732,157.34l-26.712-38.158l26.712-38.158c2.539-3.627,1.657-8.626-1.97-11.165c-3.627-2.539-8.626-1.658-11.165,1.97    l-23.362,33.374l-23.362-33.374c-2.539-3.628-7.539-4.51-11.165-1.97c-3.628,2.539-4.51,7.538-1.97,11.165l26.712,38.158    L300.74,157.34c-2.539,3.627-1.657,8.626,1.97,11.165c1.399,0.98,3.003,1.449,4.59,1.449c2.527,0,5.015-1.192,6.574-3.42    l23.362-33.374l23.362,33.374c1.56,2.228,4.047,3.42,6.574,3.42c1.587,0,3.192-0.47,4.59-1.449    C375.389,165.966,376.272,160.967,373.732,157.34z"
   id="path20"
   style="fill:#8dcaff;fill-opacity:1" />
	</g>
</g>
<g
   id="g30"
   style="fill:#8dcaff;fill-opacity:1">
	<g
   id="g28"
   style="fill:#8dcaff;fill-opacity:1">
		<path
   d="M136.284,213.779h-17.102c-4.427,0-8.017,3.589-8.017,8.017s3.589,8.017,8.017,8.017h17.102    c4.427,0,8.017-3.589,8.017-8.017S140.711,213.779,136.284,213.779z"
   id="path26"
   style="fill:#8dcaff;fill-opacity:1" />
	</g>
</g>
<g
   id="g36"
   style="fill:#8dcaff;fill-opacity:1">
	<g
   id="g34"
   style="fill:#8dcaff;fill-opacity:1">
		<path
   d="M136.284,247.983h-17.102c-4.427,0-8.017,3.589-8.017,8.017s3.589,8.017,8.017,8.017h17.102    c4.427,0,8.017-3.589,8.017-8.017S140.711,247.983,136.284,247.983z"
   id="path32"
   style="fill:#8dcaff;fill-opacity:1" />
	</g>
</g>
<g
   id="g42"
   style="fill:#8dcaff;fill-opacity:1">
	<g
   id="g40"
   style="fill:#8dcaff;fill-opacity:1">
		<path
   d="M136.284,282.188h-17.102c-4.427,0-8.017,3.589-8.017,8.017s3.589,8.017,8.017,8.017h17.102    c4.427,0,8.017-3.589,8.017-8.017S140.711,282.188,136.284,282.188z"
   id="path38"
   style="fill:#8dcaff;fill-opacity:1" />
	</g>
</g>
<g
   id="g48"
   style="fill:#8dcaff;fill-opacity:1">
	<g
   id="g46"
   style="fill:#8dcaff;fill-opacity:1">
		<path
   d="M392.818,213.779h-17.102c-4.427,0-8.017,3.589-8.017,8.017s3.589,8.017,8.017,8.017h17.102    c4.427,0,8.017-3.589,8.017-8.017S397.246,213.779,392.818,213.779z"
   id="path44"
   style="fill:#8dcaff;fill-opacity:1" />
	</g>
</g>
<g
   id="g54"
   style="fill:#8dcaff;fill-opacity:1">
	<g
   id="g52"
   style="fill:#8dcaff;fill-opacity:1">
		<path
   d="M392.818,247.983h-17.102c-4.427,0-8.017,3.589-8.017,8.017s3.589,8.017,8.017,8.017h17.102    c4.427,0,8.017-3.589,8.017-8.017S397.246,247.983,392.818,247.983z"
   id="path50"
   style="fill:#8dcaff;fill-opacity:1" />
	</g>
</g>
<g
   id="g60"
   style="fill:#8dcaff;fill-opacity:1">
	<g
   id="g58"
   style="fill:#8dcaff;fill-opacity:1">
		<path
   d="M392.818,282.188h-17.102c-4.427,0-8.017,3.589-8.017,8.017s3.589,8.017,8.017,8.017h17.102    c4.427,0,8.017-3.589,8.017-8.017S397.246,282.188,392.818,282.188z"
   id="path56"
   style="fill:#8dcaff;fill-opacity:1" />
	</g>
</g>
<g
   id="g66"
   style="fill:#8dcaff;fill-opacity:1">
	<g
   id="g64"
   style="fill:#8dcaff;fill-opacity:1">
		<path
   d="M273.102,213.779H170.489c-4.427,0-8.017,3.589-8.017,8.017s3.589,8.017,8.017,8.017h102.614    c4.427,0,8.017-3.589,8.017-8.017S277.53,213.779,273.102,213.779z"
   id="path62"
   style="fill:#8dcaff;fill-opacity:1" />
	</g>
</g>
<g
   id="g72"
   style="fill:#8dcaff;fill-opacity:1">
	<g
   id="g70"
   style="fill:#8dcaff;fill-opacity:1">
		<path
   d="M238.898,247.983h-68.409c-4.427,0-8.017,3.589-8.017,8.017s3.589,8.017,8.017,8.017h68.409    c4.427,0,8.017-3.589,8.017-8.017S243.325,247.983,238.898,247.983z"
   id="path68"
   style="fill:#8dcaff;fill-opacity:1" />
	</g>
</g>
<g
   id="g78"
   style="fill:#8dcaff;fill-opacity:1">
	<g
   id="g76"
   style="fill:#8dcaff;fill-opacity:1">
		<path
   d="M273.102,282.188H170.489c-4.427,0-8.017,3.589-8.017,8.017s3.589,8.017,8.017,8.017h102.614    c4.427,0,8.017-3.589,8.017-8.017S277.53,282.188,273.102,282.188z"
   id="path74"
   style="fill:#8dcaff;fill-opacity:1" />
	</g>
</g>
<g
   id="g84"
   style="fill:#8dcaff;fill-opacity:1">
	<g
   id="g82"
   style="fill:#8dcaff;fill-opacity:1">
		<path
   d="M152.852,387.18v-27.859c5.907,1.936,9.62,5.833,9.62,9.447c0,4.427,3.589,8.017,8.017,8.017s8.017-3.589,8.017-8.017    c0-12.784-10.768-23.198-25.653-25.984v-1.273c0-4.427-3.589-8.017-8.017-8.017s-8.017,3.589-8.017,8.017v1.273    c-14.885,2.786-25.653,13.2-25.653,25.984c0,17.862,14.265,25.369,25.653,29.69v27.859c-5.907-1.936-9.62-5.834-9.62-9.447    c0-4.427-3.589-8.017-8.017-8.017s-8.017,3.589-8.017,8.017c0,12.784,10.768,23.198,25.653,25.984v1.273    c0,4.427,3.589,8.017,8.017,8.017s8.017-3.589,8.017-8.017v-1.273c14.885-2.786,25.653-13.2,25.653-25.984    C178.505,399.007,164.24,391.5,152.852,387.18z M136.818,380.966c-7.992-3.916-9.62-7.337-9.62-12.198    c0-3.614,3.713-7.511,9.62-9.447V380.966z M152.852,426.315V404.67c7.992,3.916,9.62,7.337,9.62,12.198    C162.472,420.482,158.758,424.38,152.852,426.315z"
   id="path80"
   style="fill:#8dcaff;fill-opacity:1" />
	</g>
</g>
<g
   id="g90"
   style="fill:#8dcaff;fill-opacity:1">
	<g
   id="g88"
   style="fill:#8dcaff;fill-opacity:1">
		<path
   d="M264.551,350.597h-59.858c-4.427,0-8.017,3.589-8.017,8.017s3.589,8.017,8.017,8.017h59.858    c4.427,0,8.017-3.589,8.017-8.017S268.979,350.597,264.551,350.597z"
   id="path86"
   style="fill:#8dcaff;fill-opacity:1" />
	</g>
</g>
<g
   id="g96"
   style="fill:#8dcaff;fill-opacity:1">
	<g
   id="g94"
   style="fill:#8dcaff;fill-opacity:1">
		<path
   d="M238.898,419.006h-34.205c-4.427,0-8.017,3.589-8.017,8.017c0,4.427,3.589,8.017,8.017,8.017h34.205    c4.427,0,8.017-3.589,8.017-8.017C246.914,422.596,243.325,419.006,238.898,419.006z"
   id="path92"
   style="fill:#8dcaff;fill-opacity:1" />
	</g>
</g>
<g
   id="g102"
   style="fill:#8dcaff;fill-opacity:1">
	<g
   id="g100"
   style="fill:#8dcaff;fill-opacity:1">
		<path
   d="M290.205,419.006h-17.102c-4.427,0-8.017,3.589-8.017,8.017c0,4.427,3.589,8.017,8.017,8.017h17.102    c4.427,0,8.017-3.589,8.017-8.017C298.221,422.596,294.632,419.006,290.205,419.006z"
   id="path98"
   style="fill:#8dcaff;fill-opacity:1" />
	</g>
</g>
<g
   id="g108"
   style="fill:#8dcaff;fill-opacity:1">
	<g
   id="g106"
   style="fill:#8dcaff;fill-opacity:1">
		<path
   d="M315.858,384.802H204.693c-4.427,0-8.017,3.589-8.017,8.017c0,4.427,3.589,8.017,8.017,8.017h111.165    c4.427,0,8.017-3.589,8.017-8.017C323.875,388.391,320.285,384.802,315.858,384.802z"
   id="path104"
   style="fill:#8dcaff;fill-opacity:1" />
	</g>
</g>
<g
   id="g114"
   style="fill:#8dcaff;fill-opacity:1">
	<g
   id="g112"
   style="fill:#8dcaff;fill-opacity:1">
		<circle
   cx="273.102"
   cy="256"
   r="8.017"
   id="circle110"
   style="fill:#8dcaff;fill-opacity:1" />
	</g>
</g>
<g
   id="g120"
   style="fill:#8dcaff;fill-opacity:1">
	<g
   id="g118"
   style="fill:#8dcaff;fill-opacity:1">
		<circle
   cx="307.307"
   cy="256"
   r="8.017"
   id="circle116"
   style="fill:#8dcaff;fill-opacity:1" />
	</g>
</g>
<g
   id="g126"
   style="fill:#8dcaff;fill-opacity:1">
	<g
   id="g124"
   style="fill:#8dcaff;fill-opacity:1">
		<circle
   cx="341.511"
   cy="256"
   r="8.017"
   id="circle122"
   style="fill:#8dcaff;fill-opacity:1" />
	</g>
</g>
<g
   id="g132"
   style="fill:#8dcaff;fill-opacity:1">
	<g
   id="g130"
   style="fill:#8dcaff;fill-opacity:1">
		<circle
   cx="307.307"
   cy="221.795"
   r="8.017"
   id="circle128"
   style="fill:#8dcaff;fill-opacity:1" />
	</g>
</g>
<g
   id="g138"
   style="fill:#8dcaff;fill-opacity:1">
	<g
   id="g136"
   style="fill:#8dcaff;fill-opacity:1">
		<circle
   cx="341.511"
   cy="221.795"
   r="8.017"
   id="circle134"
   style="fill:#8dcaff;fill-opacity:1" />
	</g>
</g>
<g
   id="g144"
   style="fill:#8dcaff;fill-opacity:1">
	<g
   id="g142"
   style="fill:#8dcaff;fill-opacity:1">
		<circle
   cx="307.307"
   cy="290.205"
   r="8.017"
   id="circle140"
   style="fill:#8dcaff;fill-opacity:1" />
	</g>
</g>
<g
   id="g150"
   style="fill:#8dcaff;fill-opacity:1">
	<g
   id="g148"
   style="fill:#8dcaff;fill-opacity:1">
		<circle
   cx="341.511"
   cy="290.205"
   r="8.017"
   id="circle146"
   style="fill:#8dcaff;fill-opacity:1" />
	</g>
</g>
<g
   id="g152">
</g>
<g
   id="g154">
</g>
<g
   id="g156">
</g>
<g
   id="g158">
</g>
<g
   id="g160">
</g>
<g
   id="g162">
</g>
<g
   id="g164">
</g>
<g
   id="g166">
</g>
<g
   id="g168">
</g>
<g
   id="g170">
</g>
<g
   id="g172">
</g>
<g
   id="g174">
</g>
<g
   id="g176">
</g>
<g
   id="g178">
</g>
<g
   id="g180">
</g>
</svg>