<?xml version="1.0" encoding="UTF-8" standalone="no"?>
<svg
   xmlns:dc="http://purl.org/dc/elements/1.1/"
   xmlns:cc="http://creativecommons.org/ns#"
   xmlns:rdf="http://www.w3.org/1999/02/22-rdf-syntax-ns#"
   xmlns:svg="http://www.w3.org/2000/svg"
   xmlns="http://www.w3.org/2000/svg"
   xmlns:sodipodi="http://sodipodi.sourceforge.net/DTD/sodipodi-0.dtd"
   xmlns:inkscape="http://www.inkscape.org/namespaces/inkscape"
   id="Layer_5"
   enable-background="new 0 0 64 64"
   height="512"
   viewBox="0 0 64 64"
   width="512"
   version="1.1"
   sodipodi:docname="librodiario.svg"
   inkscape:version="0.92.3 (2405546, 2018-03-11)">
  <metadata
     id="metadata29">
    <rdf:RDF>
      <cc:Work
         rdf:about="">
        <dc:format>image/svg+xml</dc:format>
        <dc:type
           rdf:resource="http://purl.org/dc/dcmitype/StillImage" />
        <dc:title></dc:title>
      </cc:Work>
    </rdf:RDF>
  </metadata>
  <defs
     id="defs27" />
  <sodipodi:namedview
     pagecolor="#ffffff"
     bordercolor="#666666"
     borderopacity="1"
     objecttolerance="10"
     gridtolerance="10"
     guidetolerance="10"
     inkscape:pageopacity="0"
     inkscape:pageshadow="2"
     inkscape:window-width="640"
     inkscape:window-height="480"
     id="namedview25"
     showgrid="false"
     inkscape:zoom="0.4609375"
     inkscape:cx="256"
     inkscape:cy="256"
     inkscape:window-x="0"
     inkscape:window-y="50"
     inkscape:window-maximized="0"
     inkscape:current-layer="Layer_5" />
  <path
     d="m59 25v-4h-4v-11c0-1.654-1.346-3-3-3-.352 0-.686.072-1 .184v-1.184c0-2.757-2.243-5-5-5s-5 2.243-5 5v15h-3c-2.548 0-4.775 1.373-6 3.413-.908-1.513-2.367-2.654-4.101-3.144 3.062-1.955 5.101-5.375 5.101-9.269 0-6.065-4.935-11-11-11s-11 4.935-11 11c0 3.72 1.861 7.008 4.695 9h-10.695v4h-4v29c0 2.757 2.243 5 5 5h21.101c.464 2.279 2.485 4 4.899 4s4.435-1.721 4.899-4h21.101c2.757 0 5-2.243 5-5v-29zm-52 26h24v2h-24zm26 0h24v2h-24zm19-42c.551 0 1 .448 1 1v12c0 .552-.449 1-1 1s-1-.448-1-1v-12c0-.552.449-1 1-1zm-3 21.111c0 .297-.023.594-.061.889h-5.877c-.039-.295-.062-.592-.062-.889v-13.111h6v5zm-.635 2.889c-.036.08-.065.164-.104.242l-1.708 3.416c-.211.422-.895.422-1.105 0l-1.708-3.416c-.04-.078-.068-.162-.105-.242zm-2.365-30c1.654 0 3 1.346 3 3v4 5h-6v-9c0-1.654 1.346-3 3-3zm-8 20h3v7.111c0 1.39.329 2.782.95 4.025l1.708 3.416c.446.893 1.344 1.448 2.342 1.448s1.896-.555 2.342-1.447l1.708-3.416c.622-1.243.95-2.636.95-4.025v-5.296c.314.112.648.184 1 .184 1.302 0 2.402-.839 2.816-2h2.184v26h-24v-21c0-2.757 2.243-5 5-5zm-25-11c0-4.963 4.038-9 9-9s9 4.037 9 9-4.038 9-9 9-9-4.037-9-9zm13 11c2.757 0 5 2.243 5 5v21h-24v-26zm35 31c0 1.654-1.346 3-3 3h-23v1c0 1.654-1.346 3-3 3s-3-1.346-3-3v-1h-23c-1.654 0-3-1.346-3-3v-27h2v28h54v-28h2z"
     id="path2"
     style="fill:#7fff7f" />
  <path
     d="m35 41h20v2h-20z"
     id="path4"
     style="fill:#7fff7f" />
  <path
     d="m35 45h16v2h-16z"
     id="path6"
     style="fill:#7fff7f" />
  <path
     d="m53 45h2v2h-2z"
     id="path8"
     style="fill:#7fff7f" />
  <path
     d="m53 27h2v2h-2z"
     id="path10"
     style="fill:#7fff7f" />
  <path
     d="m53 31h2v2h-2z"
     id="path12"
     style="fill:#7fff7f" />
  <path
     d="m53 35h2v2h-2z"
     id="path14"
     style="fill:#7fff7f" />
  <path
     d="m29 25h-20v22h20zm-2 4h-10v-2h10zm-6 2h2v14h-2zm-2 14h-2v-14h2zm-4-18v2h-4v-2zm-4 4h4v14h-4zm14 14v-14h2v14z"
     id="path16"
     style="fill:#7fff7f" />
  <path
     d="m22 9c.551 0 1 .448 1 1h2c0-1.302-.839-2.402-2-2.816v-2.184h-2v2h-2v3c0 1.654 1.346 3 3 3 .551 0 1 .448 1 1v1h-1c-.551 0-1-.448-1-1h-2c0 1.302.839 2.402 2 2.816v2.184h2v-2h2v-3c0-1.654-1.346-3-3-3-.551 0-1-.448-1-1v-1z"
     id="path18"
     style="fill:#7fff7f" />
  <circle
     cx="16"
     cy="12"
     r="1"
     id="circle20"
     style="fill:#7fff7f" />
  <circle
     cx="28"
     cy="12"
     r="1"
     id="circle22"
     style="fill:#7fff7f" />
</svg>
