<?xml version="1.0" encoding="UTF-8" standalone="no"?>
<!-- Generator: Adobe Illustrator 16.0.0, SVG Export Plug-In . SVG Version: 6.00 Build 0)  -->

<svg
   xmlns:dc="http://purl.org/dc/elements/1.1/"
   xmlns:cc="http://creativecommons.org/ns#"
   xmlns:rdf="http://www.w3.org/1999/02/22-rdf-syntax-ns#"
   xmlns:svg="http://www.w3.org/2000/svg"
   xmlns="http://www.w3.org/2000/svg"
   xmlns:sodipodi="http://sodipodi.sourceforge.net/DTD/sodipodi-0.dtd"
   xmlns:inkscape="http://www.inkscape.org/namespaces/inkscape"
   version="1.1"
   id="Capa_1"
   x="0px"
   y="0px"
   width="124px"
   height="124px"
   viewBox="0 0 124 124"
   style="enable-background:new 0 0 124 124;"
   xml:space="preserve"
   sodipodi:docname="menug.svg"
   inkscape:version="0.92.5 (2060ec1f9f, 2020-04-08)"><metadata
   id="metadata45"><rdf:RDF><cc:Work
       rdf:about=""><dc:format>image/svg+xml</dc:format><dc:type
         rdf:resource="http://purl.org/dc/dcmitype/StillImage" /><dc:title></dc:title></cc:Work></rdf:RDF></metadata><defs
   id="defs43">
	
	
	
</defs><sodipodi:namedview
   pagecolor="#ffffff"
   bordercolor="#666666"
   borderopacity="1"
   objecttolerance="10"
   gridtolerance="10"
   guidetolerance="10"
   inkscape:pageopacity="0"
   inkscape:pageshadow="2"
   inkscape:window-width="1048"
   inkscape:window-height="480"
   id="namedview41"
   showgrid="false"
   inkscape:zoom="1.9032258"
   inkscape:cx="62"
   inkscape:cy="57.79661"
   inkscape:window-x="387"
   inkscape:window-y="92"
   inkscape:window-maximized="0"
   inkscape:current-layer="Capa_1" />
<path
   inkscape:connector-curvature="0"
   style="fill:#8dcaff;fill-opacity:1"
   id="path2"
   d="M 112,6 H 12 C 5.4,6 0,11.4 0,18 0,24.6 5.4,30 12,30 h 100 c 6.6,0 12,-5.4 12,-12 0,-6.6 -5.4,-12 -12,-12 z" /><path
   inkscape:connector-curvature="0"
   style="fill:#8dcaff;fill-opacity:1"
   id="path4"
   d="M 112,50 H 12 C 5.4,50 0,55.4 0,62 0,68.6 5.4,74 12,74 h 100 c 6.6,0 12,-5.4 12,-12 0,-6.6 -5.4,-12 -12,-12 z" /><path
   inkscape:connector-curvature="0"
   style="fill:#8dcaff;fill-opacity:1"
   id="path6"
   d="M 112,94 H 12 c -6.6,0 -12,5.4 -12,12 0,6.6 5.4,12 12,12 h 100 c 6.6,0 12,-5.4 12,-12 0,-6.6 -5.4,-12 -12,-12 z" />
<g
   id="g10">
</g>
<g
   id="g12">
</g>
<g
   id="g14">
</g>
<g
   id="g16">
</g>
<g
   id="g18">
</g>
<g
   id="g20">
</g>
<g
   id="g22">
</g>
<g
   id="g24">
</g>
<g
   id="g26">
</g>
<g
   id="g28">
</g>
<g
   id="g30">
</g>
<g
   id="g32">
</g>
<g
   id="g34">
</g>
<g
   id="g36">
</g>
<g
   id="g38">
</g>
</svg>