<?xml version="1.0" encoding="UTF-8" standalone="no"?>
<!-- Generator: Adobe Illustrator 19.0.0, SVG Export Plug-In . SVG Version: 6.00 Build 0)  -->

<svg
   xmlns:dc="http://purl.org/dc/elements/1.1/"
   xmlns:cc="http://creativecommons.org/ns#"
   xmlns:rdf="http://www.w3.org/1999/02/22-rdf-syntax-ns#"
   xmlns:svg="http://www.w3.org/2000/svg"
   xmlns="http://www.w3.org/2000/svg"
   xmlns:sodipodi="http://sodipodi.sourceforge.net/DTD/sodipodi-0.dtd"
   xmlns:inkscape="http://www.inkscape.org/namespaces/inkscape"
   version="1.1"
   id="Capa_1"
   x="0px"
   y="0px"
   viewBox="0 0 512 512"
   style="enable-background:new 0 0 512 512;"
   xml:space="preserve"
   sodipodi:docname="metaproc.svg"
   inkscape:version="0.92.3 (2405546, 2018-03-11)"><metadata
   id="metadata49"><rdf:RDF><cc:Work
       rdf:about=""><dc:format>image/svg+xml</dc:format><dc:type
         rdf:resource="http://purl.org/dc/dcmitype/StillImage" /><dc:title /></cc:Work></rdf:RDF></metadata><defs
   id="defs47" /><sodipodi:namedview
   pagecolor="#ffffff"
   bordercolor="#666666"
   borderopacity="1"
   objecttolerance="10"
   gridtolerance="10"
   guidetolerance="10"
   inkscape:pageopacity="0"
   inkscape:pageshadow="2"
   inkscape:window-width="830"
   inkscape:window-height="480"
   id="namedview45"
   showgrid="false"
   inkscape:zoom="0.4609375"
   inkscape:cx="256"
   inkscape:cy="256"
   inkscape:window-x="0"
   inkscape:window-y="50"
   inkscape:window-maximized="0"
   inkscape:current-layer="Capa_1" />
<g
   id="g6"
   style="fill:#8dcaff;fill-opacity:1">
	<g
   id="g4"
   style="fill:#8dcaff;fill-opacity:1">
		<path
   d="M477.538,201.846h-57.919c-2.636-7.961-5.857-15.726-9.642-23.238l40.966-40.968c13.436-13.436,13.436-35.299,0-48.736    l-27.848-27.849c-13.437-13.437-35.301-13.436-48.737,0l-40.967,40.967c-7.512-3.784-15.276-7.007-23.238-9.642V34.462    C310.154,15.459,294.694,0,275.692,0h-39.385c-19.002,0-34.462,15.459-34.462,34.462v57.919    c-7.962,2.636-15.726,5.858-23.238,9.642l-40.967-40.967c-13.436-13.437-35.3-13.436-48.737,0L61.057,88.905    c-13.436,13.436-13.436,35.299,0,48.736l40.966,40.968c-3.785,7.512-7.007,15.277-9.642,23.238H34.462    C15.459,201.846,0,217.306,0,236.308v39.385c0,19.002,15.459,34.462,34.462,34.462h57.919c2.636,7.961,5.857,15.726,9.642,23.238    l-40.967,40.967c-13.436,13.436-13.436,35.298,0,48.736l27.849,27.849c13.436,13.437,35.3,13.437,48.737,0l40.966-40.967    c7.512,3.784,15.278,7.007,23.239,9.642v57.92c0,19.002,15.459,34.462,34.462,34.462h39.385c19.002,0,34.462-15.459,34.462-34.462    v-57.919c7.961-2.636,15.727-5.858,23.239-9.642l40.966,40.967c13.436,13.437,35.3,13.437,48.737,0l27.85-27.85    c13.435-13.436,13.435-35.299-0.001-48.735l-40.967-40.968c3.785-7.512,7.007-15.277,9.642-23.238h57.919    c19.002,0,34.462-15.459,34.462-34.462v-39.385C512,217.306,496.541,201.846,477.538,201.846z M482.462,275.692    c0,2.715-2.208,4.923-4.923,4.923h-68.963c-6.74,0-12.623,4.562-14.303,11.088c-3.316,12.886-8.454,25.268-15.269,36.803    c-3.428,5.803-2.494,13.19,2.273,17.956l48.783,48.783c1.919,1.919,1.919,5.043,0,6.962l-27.849,27.849    c-1.921,1.919-5.044,1.919-6.963,0l-48.782-48.782c-4.767-4.768-12.155-5.702-17.956-2.273    c-11.534,6.815-23.916,11.952-36.804,15.269c-6.526,1.68-11.088,7.564-11.088,14.302v68.964c0,2.715-2.208,4.923-4.923,4.923    h-39.385c-2.715,0-4.923-2.208-4.923-4.923v-68.963c0-6.739-4.562-12.624-11.088-14.303c-12.888-3.317-25.27-8.454-36.804-15.269    c-2.339-1.381-4.932-2.054-7.509-2.054c-3.82,0-7.602,1.48-10.448,4.326l-48.782,48.782c-1.919,1.919-5.044,1.919-6.963,0    l-27.848-27.849c-1.92-1.92-1.92-5.044-0.001-6.963l48.783-48.783c4.766-4.766,5.701-12.153,2.272-17.956    c-6.815-11.535-11.953-23.918-15.269-36.803c-1.68-6.526-7.564-11.088-14.303-11.088H34.462c-2.715,0-4.923-2.208-4.923-4.923    v-39.385c0-2.715,2.208-4.923,4.923-4.923h68.963c6.74,0,12.623-4.562,14.303-11.088c3.316-12.886,8.454-25.268,15.269-36.803    c3.428-5.803,2.494-13.19-2.273-17.956l-48.782-48.783c-1.919-1.92-1.919-5.043,0-6.962l27.848-27.849    c1.919-1.919,5.044-1.92,6.963,0l48.783,48.782c4.766,4.767,12.153,5.7,17.956,2.273c11.533-6.815,23.914-11.952,36.803-15.269    c6.526-1.68,11.088-7.564,11.088-14.303V34.462c0-2.715,2.208-4.923,4.923-4.923h39.385c2.715,0,4.923,2.208,4.923,4.923v68.963    c0,6.739,4.562,12.624,11.088,14.303c12.889,3.317,25.27,8.454,36.803,15.269c5.802,3.428,13.19,2.494,17.956-2.273l48.783-48.782    c1.921-1.919,5.044-1.919,6.963,0l27.848,27.849c1.919,1.92,1.919,5.043,0,6.962l-48.782,48.783    c-4.767,4.766-5.701,12.153-2.273,17.956c6.815,11.535,11.953,23.918,15.269,36.803c1.68,6.526,7.564,11.088,14.303,11.088h68.966    c2.715,0,4.923,2.208,4.923,4.923V275.692z"
   id="path2"
   style="fill:#8dcaff;fill-opacity:1" />
	</g>
</g>
<g
   id="g12"
   style="fill:#8dcaff;fill-opacity:1">
	<g
   id="g10"
   style="fill:#8dcaff;fill-opacity:1">
		<path
   d="M256,182.154c-40.719,0-73.846,33.127-73.846,73.846s33.127,73.846,73.846,73.846s73.846-33.127,73.846-73.846    S296.719,182.154,256,182.154z M256,300.308c-24.431,0-44.308-19.876-44.308-44.308s19.876-44.308,44.308-44.308    s44.308,19.876,44.308,44.308S280.431,300.308,256,300.308z"
   id="path8"
   style="fill:#8dcaff;fill-opacity:1" />
	</g>
</g>
<g
   id="g14">
</g>
<g
   id="g16">
</g>
<g
   id="g18">
</g>
<g
   id="g20">
</g>
<g
   id="g22">
</g>
<g
   id="g24">
</g>
<g
   id="g26">
</g>
<g
   id="g28">
</g>
<g
   id="g30">
</g>
<g
   id="g32">
</g>
<g
   id="g34">
</g>
<g
   id="g36">
</g>
<g
   id="g38">
</g>
<g
   id="g40">
</g>
<g
   id="g42">
</g>
</svg>