<?xml version="1.0" encoding="UTF-8" standalone="no"?>
<!-- Generator: Adobe Illustrator 16.0.0, SVG Export Plug-In . SVG Version: 6.00 Build 0)  -->

<svg
   xmlns:dc="http://purl.org/dc/elements/1.1/"
   xmlns:cc="http://creativecommons.org/ns#"
   xmlns:rdf="http://www.w3.org/1999/02/22-rdf-syntax-ns#"
   xmlns:svg="http://www.w3.org/2000/svg"
   xmlns="http://www.w3.org/2000/svg"
   xmlns:sodipodi="http://sodipodi.sourceforge.net/DTD/sodipodi-0.dtd"
   xmlns:inkscape="http://www.inkscape.org/namespaces/inkscape"
   version="1.1"
   id="Capa_1"
   x="0px"
   y="0px"
   width="612px"
   height="612px"
   viewBox="0 0 612 612"
   style="enable-background:new 0 0 612 612;"
   xml:space="preserve"
   sodipodi:docname="newlote.svg"
   inkscape:version="0.92.3 (2405546, 2018-03-11)"><metadata
   id="metadata41"><rdf:RDF><cc:Work
       rdf:about=""><dc:format>image/svg+xml</dc:format><dc:type
         rdf:resource="http://purl.org/dc/dcmitype/StillImage" /><dc:title></dc:title></cc:Work></rdf:RDF></metadata><defs
   id="defs39" /><sodipodi:namedview
   pagecolor="#ffffff"
   bordercolor="#666666"
   borderopacity="1"
   objecttolerance="10"
   gridtolerance="10"
   guidetolerance="10"
   inkscape:pageopacity="0"
   inkscape:pageshadow="2"
   inkscape:window-width="830"
   inkscape:window-height="480"
   id="namedview37"
   showgrid="false"
   inkscape:zoom="0.38562092"
   inkscape:cx="306"
   inkscape:cy="306"
   inkscape:window-x="587"
   inkscape:window-y="145"
   inkscape:window-maximized="0"
   inkscape:current-layer="Capa_1" />
<g
   id="g4"
   style="fill:#008dff">
	<path
   d="M1.659,484.737L1.001,206.595c-0.032-13.686,13.95-22.938,26.534-17.559l253.206,108.241   c6.997,2.991,11.542,9.859,11.56,17.468l0.658,278.142c0.032,13.687-13.95,22.939-26.534,17.56L13.219,502.206   C6.222,499.215,1.676,492.347,1.659,484.737z M581.805,219.687L348.142,320.883l0.608,257.406l233.664-101.196L581.805,219.687    M591.26,186.131c10.043-0.025,19.056,8.054,19.081,19.022l0.658,278.142c0.018,7.609-4.495,14.5-11.478,17.523l-252.69,109.438   c-2.493,1.079-5.047,1.583-7.534,1.59c-10.044,0.023-19.058-8.055-19.083-19.022l-0.658-278.143   c-0.019-7.609,4.495-14.5,11.479-17.523l252.69-109.437C586.218,186.64,588.771,186.137,591.26,186.131L591.26,186.131z    M304.152,29.466L61.767,137.691l242.894,107.075l242.386-108.224L304.152,29.466 M304.083,0c2.632-0.006,5.266,0.533,7.728,1.618   l266.403,117.439c15.112,6.663,15.163,28.088,0.082,34.821L312.451,272.577c-2.456,1.097-5.088,1.648-7.721,1.655   c-2.632,0.006-5.266-0.533-7.728-1.618L30.6,155.175c-15.113-6.662-15.163-28.088-0.083-34.821L296.361,1.655   C298.818,0.558,301.449,0.006,304.083,0L304.083,0z"
   id="path2"
   style="fill:#008dff" />
</g>
<g
   id="g6">
</g>
<g
   id="g8">
</g>
<g
   id="g10">
</g>
<g
   id="g12">
</g>
<g
   id="g14">
</g>
<g
   id="g16">
</g>
<g
   id="g18">
</g>
<g
   id="g20">
</g>
<g
   id="g22">
</g>
<g
   id="g24">
</g>
<g
   id="g26">
</g>
<g
   id="g28">
</g>
<g
   id="g30">
</g>
<g
   id="g32">
</g>
<g
   id="g34">
</g>
</svg>