<?xml version="1.0" encoding="UTF-8" standalone="no"?>
<!-- Generator: Adobe Illustrator 19.0.0, SVG Export Plug-In . SVG Version: 6.00 Build 0)  -->

<svg
   xmlns:dc="http://purl.org/dc/elements/1.1/"
   xmlns:cc="http://creativecommons.org/ns#"
   xmlns:rdf="http://www.w3.org/1999/02/22-rdf-syntax-ns#"
   xmlns:svg="http://www.w3.org/2000/svg"
   xmlns="http://www.w3.org/2000/svg"
   xmlns:sodipodi="http://sodipodi.sourceforge.net/DTD/sodipodi-0.dtd"
   xmlns:inkscape="http://www.inkscape.org/namespaces/inkscape"
   version="1.1"
   id="Layer_1"
   x="0px"
   y="0px"
   viewBox="0 0 512 512"
   style="enable-background:new 0 0 512 512;"
   xml:space="preserve"
   sodipodi:docname="ok.svg"
   inkscape:version="0.92.3 (2405546, 2018-03-11)"><metadata
   id="metadata999"><rdf:RDF><cc:Work
       rdf:about=""><dc:format>image/svg+xml</dc:format><dc:type
         rdf:resource="http://purl.org/dc/dcmitype/StillImage" /><dc:title></dc:title></cc:Work></rdf:RDF></metadata><defs
   id="defs997" /><sodipodi:namedview
   pagecolor="#ffffff"
   bordercolor="#666666"
   borderopacity="1"
   objecttolerance="10"
   gridtolerance="10"
   guidetolerance="10"
   inkscape:pageopacity="0"
   inkscape:pageshadow="2"
   inkscape:window-width="802"
   inkscape:window-height="480"
   id="namedview995"
   showgrid="false"
   inkscape:zoom="0.4609375"
   inkscape:cx="28.20339"
   inkscape:cy="256"
   inkscape:window-x="334"
   inkscape:window-y="248"
   inkscape:window-maximized="0"
   inkscape:current-layer="Layer_1" />
<path
   style="fill:#B4BBCC;"
   d="M336.761,62.173H51.116C22.885,62.173,0,85.059,0,113.289v285.645  c0,28.231,22.885,51.116,51.116,51.116h285.645c28.231,0,51.116-22.885,51.116-51.116V113.289  C387.877,85.059,364.992,62.173,336.761,62.173z"
   id="path956" />
<path
   style="fill:#FFFFFF;"
   d="M313.395,113.929H74.482c-12.552,0-22.726,10.175-22.726,22.726v238.911  c0,12.552,10.175,22.726,22.726,22.726h238.911c12.552,0,22.726-10.175,22.726-22.726V136.656  C336.121,124.105,325.945,113.929,313.395,113.929z"
   id="path958" />
<path
   style="opacity:0.1;enable-background:new    ;"
   d="M74.653,159.553c0-12.552,10.175-22.726,22.726-22.726h238.74v-0.171  c0-12.552-10.175-22.726-22.726-22.726H74.482c-12.552,0-22.726,10.175-22.726,22.726v238.911c0,12.552,10.175,22.726,22.726,22.726  h0.171V159.553z"
   id="path960" />
<path
   style="fill:#A5EB78;"
   d="M236.938,371.327c-9.206,0-18.139-3.574-24.835-10.102L95.321,247.391  c-14.072-13.718-14.36-36.245-0.643-50.318c13.716-14.074,36.244-14.359,50.317-0.643l85.372,83.218  c34.186-48.731,105.492-134.379,226.861-212.078c16.556-10.597,38.558-5.765,49.152,10.783  c10.597,16.551,5.768,38.557-10.782,49.153c-163.014,104.36-226.495,223.518-227.117,224.71  c-5.206,9.969-14.819,16.891-25.925,18.666C240.683,371.181,238.806,371.327,236.938,371.327z"
   id="path962" />
<g
   id="g964">
</g>
<g
   id="g966">
</g>
<g
   id="g968">
</g>
<g
   id="g970">
</g>
<g
   id="g972">
</g>
<g
   id="g974">
</g>
<g
   id="g976">
</g>
<g
   id="g978">
</g>
<g
   id="g980">
</g>
<g
   id="g982">
</g>
<g
   id="g984">
</g>
<g
   id="g986">
</g>
<g
   id="g988">
</g>
<g
   id="g990">
</g>
<g
   id="g992">
</g>
</svg>