<?xml version="1.0" encoding="UTF-8" standalone="no"?>
<svg
   xmlns:dc="http://purl.org/dc/elements/1.1/"
   xmlns:cc="http://creativecommons.org/ns#"
   xmlns:rdf="http://www.w3.org/1999/02/22-rdf-syntax-ns#"
   xmlns:svg="http://www.w3.org/2000/svg"
   xmlns="http://www.w3.org/2000/svg"
   xmlns:sodipodi="http://sodipodi.sourceforge.net/DTD/sodipodi-0.dtd"
   xmlns:inkscape="http://www.inkscape.org/namespaces/inkscape"
   viewBox="0 0 511 511.99978"
   version="1.1"
   id="svg10"
   sodipodi:docname="pagos.svg"
   inkscape:version="0.92.3 (2405546, 2018-03-11)">
  <metadata
     id="metadata16">
    <rdf:RDF>
      <cc:Work
         rdf:about="">
        <dc:format>image/svg+xml</dc:format>
        <dc:type
           rdf:resource="http://purl.org/dc/dcmitype/StillImage" />
        <dc:title />
      </cc:Work>
    </rdf:RDF>
  </metadata>
  <defs
     id="defs14" />
  <sodipodi:namedview
     pagecolor="#ffffff"
     bordercolor="#666666"
     borderopacity="1"
     objecttolerance="10"
     gridtolerance="10"
     guidetolerance="10"
     inkscape:pageopacity="0"
     inkscape:pageshadow="2"
     inkscape:window-width="1920"
     inkscape:window-height="1006"
     id="namedview12"
     showgrid="false"
     inkscape:zoom="0.46093769"
     inkscape:cx="-575.4149"
     inkscape:cy="221.28804"
     inkscape:window-x="0"
     inkscape:window-y="50"
     inkscape:window-maximized="1"
     inkscape:current-layer="svg10" />
  <path
     d="m 198.7695,377.67703 c 3.1084,-2.98232 3.1084,-7.80885 0,-10.79117 -3.11151,-2.97339 -8.15216,-2.97339 -11.26678,0 -3.10529,2.98232 -3.10529,7.80885 0,10.79117 3.11462,2.97339 8.15527,2.97339 11.26678,0 z m 0,0"
     id="path2"
     inkscape:connector-curvature="0"
     style="stroke-width:0.77944559;fill:#8dcaff;fill-opacity:1" />
  <path
     d="m 187.09188,201.02694 c 0,46.24832 39.29527,83.87742 87.59525,83.87742 48.29998,0 87.59525,-37.6291 87.59525,-83.87742 0,-46.24833 -39.29527,-83.87445 -87.59525,-83.87445 -48.29998,0 -87.59525,37.62612 -87.59525,83.87445 z m 159.26579,0 c 0,37.84062 -32.15124,68.62616 -71.67054,68.62616 -39.5193,0 -71.67054,-30.78554 -71.67054,-68.62616 0,-37.83765 32.15124,-68.62319 71.67054,-68.62319 39.5193,0 71.67054,30.78554 71.67054,68.62319 z m 0,0"
     id="path4"
     inkscape:connector-curvature="0"
     style="stroke-width:0.77944559;fill:#8dcaff;fill-opacity:1" />
  <path
     d="m 110.88118,501.00229 c 3.34942,3.06417 8.80234,3.09789 12.19564,0.0644 l 41.89468,-37.45652 c 7.11749,-6.45929 9.28178,-16.02259 6.15184,-24.33571 l 9.01167,-7.88719 c 4.85192,-4.25308 11.24011,-6.59718 17.99296,-6.59718 h 114.87607 c 20.3801,0 39.64259,-7.10276 54.24563,-19.99989 0.60099,-0.5301 -4.56156,4.98848 78.37016,-84.96354 12.30033,-13.20661 10.46017,-33.03797 -4.10572,-44.21303 -14.47473,-11.07088 -36.15812,-9.48057 -48.4922,3.49929 l -50.99076,47.56218 c -6.43884,-7.19163 -16.25747,-11.67452 -26.8662,-11.67452 h -96.35977 c -13.71164,-5.20604 -28.26065,-7.84123 -43.27223,-7.84123 -41.61106,0 -77.944747,17.4413 -97.443595,50.14221 -8.214838,-1.41259 -16.878744,0.84265 -23.111622,6.49913 l -41.107959,37.41664 c -3.356166,3.055 -3.362919,7.99751 -0.01351,11.06169 z m 64.64838,-178.16053 c 13.23559,0 26.03224,2.41764 38.04218,7.18551 1.09395,0.4351 2.27233,0.65879 3.46421,0.65879 h 98.129 c 9.36958,0 17.28391,6.93424 17.28391,15.68246 0,8.65018 -7.75226,15.68553 -17.28391,15.68553 h -70.50311 c -4.77088,0 -8.64026,3.51156 -8.64026,7.84124 0,4.33274 3.86938,7.84123 8.64026,7.84123 h 70.50311 c 19.05992,0 34.56446,-14.07071 34.56446,-31.368 0,-1.37888 -0.10808,-2.74549 -0.30389,-4.09987 49.32618,-46.01476 56.28161,-52.48019 56.57874,-52.80192 6.1586,-6.59717 17.09145,-7.43369 24.36428,-1.86914 7.27956,5.58599 8.20133,15.50167 2.02584,22.13562 l -77.5058,84.08718 c -11.31778,9.86052 -26.17742,15.28718 -41.88454,15.28718 H 198.12797 c -11.257,0 -21.91299,3.90683 -29.99615,10.99428 l -7.34372,6.43171 -67.697292,-61.43371 C 108.91273,338.16266 138.60162,322.84176 175.52956,322.84176 Z M 67.207142,374.88378 c 2.849701,-2.58618 7.225546,-3.05193 10.699886,-1.10312 1.495756,0.82734 -2.799056,-2.72099 74.845192,67.6448 3.45407,3.13466 3.26837,8.12928 0.0473,11.05249 l -35.71587,31.9318 -84.906927,-77.64321 z m 0,0"
     id="path6"
     inkscape:connector-curvature="0"
     style="stroke-width:0.82342768;fill:#8dcaff;fill-opacity:1" />
  <path
     d="m 265.13168,155.27914 v 8.93504 c -9.26919,3.14619 -15.92782,11.62242 -15.92782,21.56448 0,12.61156 10.71604,22.87539 23.89018,22.87539 4.39034,0 7.96235,3.42029 7.96235,7.62414 0,4.20385 -3.57201,7.62414 -7.96235,7.62414 -3.40088,0 -7.07558,-2.04681 -10.33955,-5.76801 -2.83148,-3.22365 -7.85346,-3.63778 -11.22011,-0.92956 -3.36666,2.71121 -3.80227,7.51986 -0.97079,10.74351 4.25654,4.84739 9.26296,8.22597 14.56809,9.93015 v 8.89929 c 0,4.21279 3.56579,7.62414 7.96236,7.62414 4.39656,0 7.96235,-3.41135 7.96235,-7.62414 v -8.93504 c 9.26919,-3.14917 15.92783,-11.6254 15.92783,-21.56448 0,-12.61454 -10.71605,-22.87539 -23.89018,-22.87539 -4.39035,0 -7.96236,-3.42029 -7.96236,-7.62414 0,-4.20385 3.57201,-7.62711 7.96236,-7.62711 2.82214,0 5.79985,1.37943 8.61266,3.98636 3.16129,2.92869 8.20194,2.84825 11.26056,-0.17578 3.05861,-3.02702 2.9746,-7.85355 -0.18358,-10.78224 -4.04186,-3.74504 -8.08682,-5.86335 -11.72729,-7.01933 v -8.88142 c 0,-4.21279 -3.56579,-7.62712 -7.96235,-7.62712 -4.39657,0 -7.96236,3.41433 -7.96236,7.62712 z m 0,0"
     id="path8"
     inkscape:connector-curvature="0"
     style="stroke-width:0.77944559;fill:#8dcaff;fill-opacity:1" />
  <text
     xml:space="preserve"
     style="font-style:normal;font-weight:normal;font-size:88.15887451px;line-height:1.25;font-family:sans-serif;letter-spacing:0px;word-spacing:0px;fill:#8dcaff;fill-opacity:1;stroke:none;stroke-width:2.20397162;"
     x="284.89481"
     y="200.55751"
     id="text20"
     transform="scale(1.1180945,0.89437879)"><tspan
       sodipodi:role="line"
       id="tspan18"
       x="284.89481"
       y="200.55751"
       style="font-style:normal;font-variant:normal;font-weight:bold;font-stretch:normal;font-size:423.16256714px;font-family:sans-serif;-inkscape-font-specification:'sans-serif, Bold';font-variant-ligatures:normal;font-variant-caps:normal;font-variant-numeric:normal;font-feature-settings:normal;text-align:start;writing-mode:lr-tb;text-anchor:start;fill:#8dcaff;stroke-width:2.20397162;fill-opacity:1;">-</tspan></text>
</svg>
