<?xml version="1.0" encoding="UTF-8" standalone="no"?>
<!-- Generator: Adobe Illustrator 19.0.0, SVG Export Plug-In . SVG Version: 6.00 Build 0)  -->

<svg
   xmlns:dc="http://purl.org/dc/elements/1.1/"
   xmlns:cc="http://creativecommons.org/ns#"
   xmlns:rdf="http://www.w3.org/1999/02/22-rdf-syntax-ns#"
   xmlns:svg="http://www.w3.org/2000/svg"
   xmlns="http://www.w3.org/2000/svg"
   xmlns:sodipodi="http://sodipodi.sourceforge.net/DTD/sodipodi-0.dtd"
   xmlns:inkscape="http://www.inkscape.org/namespaces/inkscape"
   version="1.1"
   id="Layer_1"
   x="0px"
   y="0px"
   viewBox="0 0 50 49.999962"
   xml:space="preserve"
   sodipodi:docname="passigual.svg"
   inkscape:version="0.92.3 (2405546, 2018-03-11)"
   width="50"
   height="49.999962"><metadata
   id="metadata45"><rdf:RDF><cc:Work
       rdf:about=""><dc:format>image/svg+xml</dc:format><dc:type
         rdf:resource="http://purl.org/dc/dcmitype/StillImage" /><dc:title></dc:title></cc:Work></rdf:RDF></metadata><defs
   id="defs43" /><sodipodi:namedview
   pagecolor="#ffffff"
   bordercolor="#666666"
   borderopacity="1"
   objecttolerance="10"
   gridtolerance="10"
   guidetolerance="10"
   inkscape:pageopacity="0"
   inkscape:pageshadow="2"
   inkscape:window-width="1920"
   inkscape:window-height="1006"
   id="namedview41"
   showgrid="false"
   inkscape:zoom="2.9795302"
   inkscape:cx="-109.09336"
   inkscape:cy="14.618138"
   inkscape:window-x="0"
   inkscape:window-y="50"
   inkscape:window-maximized="1"
   inkscape:current-layer="Layer_1"
   fit-margin-top="0"
   fit-margin-left="0"
   fit-margin-right="0"
   fit-margin-bottom="0" />
<g
   inkscape:groupmode="layer"
   id="layer1"
   inkscape:label="Layer 1"><rect
     style="fill:#9dde67;fill-opacity:1;stroke-width:0.98988265"
     id="rect831"
     width="50"
     height="50"
     x="-0.33562338"
     y="0.33558568" /></g><path
   style="fill:#d2e5cc;stroke-width:0.06551164"
   d="M 34.037551,12.096832 H 15.130266 c -1.868654,0 -3.383448,1.483902 -3.383448,3.314296 v 18.52085 c 0,1.830464 1.514794,3.314296 3.383448,3.314296 h 18.907285 c 1.868654,0 3.383448,-1.483832 3.383448,-3.314296 v -18.52085 c 0,-1.830394 -1.514794,-3.314296 -3.383448,-3.314296 z"
   id="path2"
   inkscape:connector-curvature="0" />
<path
   style="fill:#9dde67;stroke-width:0.06551164"
   d="M 32.49092,15.452623 H 16.676898 c -0.830837,0 -1.50427,0.659736 -1.50427,1.473524 v 15.490681 c 0,0.813854 0.673499,1.473524 1.50427,1.473524 h 15.813889 c 0.830837,0 1.50427,-0.659736 1.50427,-1.473524 V 16.926213 c 1.32e-4,-0.813789 -0.673433,-1.47359 -1.504137,-1.47359 z"
   id="path4"
   inkscape:connector-curvature="0" />
<path
   style="opacity:0.1;stroke-width:0.06551164;enable-background:new"
   d="m 16.688216,18.410824 c 0,-0.813854 0.673499,-1.473524 1.504269,-1.473524 h 15.802572 v -0.01107 c 0,-0.813854 -0.6735,-1.473525 -1.50427,-1.473525 H 16.676898 c -0.830837,0 -1.50427,0.659736 -1.50427,1.473525 v 15.49068 c 0,0.813854 0.673499,1.473525 1.50427,1.473525 h 0.01132 z"
   id="path6"
   inkscape:connector-curvature="0" />
<path
   style="fill:#ffffff;stroke-width:0.06551164"
   d="m 27.430112,32.141978 c -0.60936,0 -1.200649,-0.231734 -1.643867,-0.655 l -7.729982,-7.38085 c -0.931447,-0.889456 -0.95051,-2.350076 -0.04256,-3.262553 0.907884,-0.912542 2.399047,-0.931023 3.330561,-0.04167 l 5.650905,5.395744 c 2.262825,-3.159657 6.98268,-8.712962 15.016283,-13.750865 1.095866,-0.687094 2.552213,-0.373794 3.253446,0.699157 0.701432,1.073148 0.381793,2.499988 -0.713676,3.187017 -10.790151,6.76657 -14.992057,14.492616 -15.033227,14.569904 -0.344594,0.64638 -0.980893,1.095192 -1.716016,1.210282 -0.123978,0.01938 -0.248219,0.02884 -0.371865,0.02884 z"
   id="path8"
   inkscape:connector-curvature="0" />
<g
   id="g10"
   transform="translate(0,-400.05004)">
</g>
<g
   id="g12"
   transform="translate(0,-400.05004)">
</g>
<g
   id="g14"
   transform="translate(0,-400.05004)">
</g>
<g
   id="g16"
   transform="translate(0,-400.05004)">
</g>
<g
   id="g18"
   transform="translate(0,-400.05004)">
</g>
<g
   id="g20"
   transform="translate(0,-400.05004)">
</g>
<g
   id="g22"
   transform="translate(0,-400.05004)">
</g>
<g
   id="g24"
   transform="translate(0,-400.05004)">
</g>
<g
   id="g26"
   transform="translate(0,-400.05004)">
</g>
<g
   id="g28"
   transform="translate(0,-400.05004)">
</g>
<g
   id="g30"
   transform="translate(0,-400.05004)">
</g>
<g
   id="g32"
   transform="translate(0,-400.05004)">
</g>
<g
   id="g34"
   transform="translate(0,-400.05004)">
</g>
<g
   id="g36"
   transform="translate(0,-400.05004)">
</g>
<g
   id="g38"
   transform="translate(0,-400.05004)">
</g>
</svg>