<?xml version="1.0" encoding="UTF-8" standalone="no"?>
<!-- Generator: Adobe Illustrator 19.0.0, SVG Export Plug-In . SVG Version: 6.00 Build 0)  -->

<svg
   xmlns:dc="http://purl.org/dc/elements/1.1/"
   xmlns:cc="http://creativecommons.org/ns#"
   xmlns:rdf="http://www.w3.org/1999/02/22-rdf-syntax-ns#"
   xmlns:svg="http://www.w3.org/2000/svg"
   xmlns="http://www.w3.org/2000/svg"
   xmlns:sodipodi="http://sodipodi.sourceforge.net/DTD/sodipodi-0.dtd"
   xmlns:inkscape="http://www.inkscape.org/namespaces/inkscape"
   version="1.1"
   id="Layer_1"
   x="0px"
   y="0px"
   viewBox="0 0 490 490"
   style="enable-background:new 0 0 490 490;"
   xml:space="preserve"
   sodipodi:docname="printer.svg"
   inkscape:version="0.92.3 (2405546, 2018-03-11)"><metadata
   id="metadata51"><rdf:RDF><cc:Work
       rdf:about=""><dc:format>image/svg+xml</dc:format><dc:type
         rdf:resource="http://purl.org/dc/dcmitype/StillImage" /><dc:title></dc:title></cc:Work></rdf:RDF></metadata><defs
   id="defs49" /><sodipodi:namedview
   pagecolor="#ffffff"
   bordercolor="#666666"
   borderopacity="1"
   objecttolerance="10"
   gridtolerance="10"
   guidetolerance="10"
   inkscape:pageopacity="0"
   inkscape:pageshadow="2"
   inkscape:window-width="830"
   inkscape:window-height="480"
   id="namedview47"
   showgrid="false"
   inkscape:zoom="0.48163265"
   inkscape:cx="245"
   inkscape:cy="245"
   inkscape:window-x="0"
   inkscape:window-y="50"
   inkscape:window-maximized="0"
   inkscape:current-layer="Layer_1" />
<g
   id="g14"
   style="fill:#008dff">
	<g
   id="g12"
   style="fill:#008dff">
		<path
   style="fill:#008dff"
   d="M481.85,342.9V162.2c0-22.7-18.5-41.2-41.2-41.2h-49.6V26.5c0-14.6-11.9-26.5-26.5-26.5h-239.1    c-14.6,0-26.5,11.9-26.5,26.5V121h-49.6c-22.7,0-41.2,18.5-41.2,41.2v180.7c0,22.7,18.5,41.2,41.2,41.2h49.6v79.4    c0,14.6,11.9,26.5,26.5,26.5h239.1c14.6,0,26.5-11.9,26.5-26.5V384h49.6C463.45,384,481.85,365.6,481.85,342.9z M118.75,26.5    c0-3.7,3-6.7,6.7-6.7h239.1c3.7,0,6.7,3,6.7,6.7V121h-252.5V26.5z M371.35,463.5c0,3.7-3,6.7-6.7,6.7h-239.2c-3.7,0-6.7-3-6.7-6.7    v-201h252.5v201H371.35z M462.05,342.9c0,11.8-9.6,21.4-21.4,21.4h-49.6V252.6c0-5.5-4.4-9.9-9.9-9.9h-272.3    c-5.5,0-9.9,4.4-9.9,9.9v111.7h-49.6c-11.8,0-21.4-9.6-21.4-21.4V162.2c0-11.8,9.6-21.4,21.4-21.4h391.3    c11.8,0,21.4,9.6,21.4,21.4V342.9L462.05,342.9z"
   id="path2" />
		<path
   style="fill:#008dff"
   d="M78.55,181.6c-2.6,0-5.1,1.1-7,2.9c-1.8,1.9-2.9,4.4-2.9,7s1.1,5.1,2.9,7c1.9,1.8,4.4,2.9,7,2.9    s5.1-1.1,7-2.9c1.8-1.8,2.9-4.4,2.9-7s-1.1-5.1-2.9-7C83.75,182.7,81.15,181.6,78.55,181.6z"
   id="path4" />
		<path
   style="fill:#008dff"
   d="M174.95,376.2h140.3c5.5,0,9.9-4.4,9.9-9.9s-4.4-9.9-9.9-9.9h-140.3c-5.5,0-9.9,4.4-9.9,9.9    S169.45,376.2,174.95,376.2z"
   id="path6" />
		<path
   style="fill:#008dff"
   d="M174.95,432.3h140.3c5.5,0,9.9-4.4,9.9-9.9s-4.4-9.9-9.9-9.9h-140.3c-5.5,0-9.9,4.4-9.9,9.9    S169.45,432.3,174.95,432.3z"
   id="path8" />
		<path
   style="fill:#008dff"
   d="M174.95,320.1h140.3c5.5,0,9.9-4.4,9.9-9.9s-4.4-9.9-9.9-9.9h-140.3c-5.5,0-9.9,4.4-9.9,9.9    S169.45,320.1,174.95,320.1z"
   id="path10" />
	</g>
</g>
<g
   id="g16">
</g>
<g
   id="g18">
</g>
<g
   id="g20">
</g>
<g
   id="g22">
</g>
<g
   id="g24">
</g>
<g
   id="g26">
</g>
<g
   id="g28">
</g>
<g
   id="g30">
</g>
<g
   id="g32">
</g>
<g
   id="g34">
</g>
<g
   id="g36">
</g>
<g
   id="g38">
</g>
<g
   id="g40">
</g>
<g
   id="g42">
</g>
<g
   id="g44">
</g>
</svg>