<?xml version="1.0" encoding="UTF-8" standalone="no"?>
<!-- Generator: Adobe Illustrator 19.0.0, SVG Export Plug-In . SVG Version: 6.00 Build 0)  -->

<svg
   xmlns:dc="http://purl.org/dc/elements/1.1/"
   xmlns:cc="http://creativecommons.org/ns#"
   xmlns:rdf="http://www.w3.org/1999/02/22-rdf-syntax-ns#"
   xmlns:svg="http://www.w3.org/2000/svg"
   xmlns="http://www.w3.org/2000/svg"
   xmlns:sodipodi="http://sodipodi.sourceforge.net/DTD/sodipodi-0.dtd"
   xmlns:inkscape="http://www.inkscape.org/namespaces/inkscape"
   version="1.1"
   id="Capa_1"
   x="0px"
   y="0px"
   viewBox="0 0 511.559 511.559"
   style="enable-background:new 0 0 511.559 511.559;"
   xml:space="preserve"
   sodipodi:docname="resources.svg"
   inkscape:version="0.92.3 (2405546, 2018-03-11)"><metadata
   id="metadata187"><rdf:RDF><cc:Work
       rdf:about=""><dc:format>image/svg+xml</dc:format><dc:type
         rdf:resource="http://purl.org/dc/dcmitype/StillImage" /><dc:title></dc:title></cc:Work></rdf:RDF></metadata><defs
   id="defs185" /><sodipodi:namedview
   pagecolor="#ffffff"
   bordercolor="#666666"
   borderopacity="1"
   objecttolerance="10"
   gridtolerance="10"
   guidetolerance="10"
   inkscape:pageopacity="0"
   inkscape:pageshadow="2"
   inkscape:window-width="1049"
   inkscape:window-height="601"
   id="namedview183"
   showgrid="false"
   inkscape:zoom="0.46133487"
   inkscape:cx="325.80665"
   inkscape:cy="255.7795"
   inkscape:window-x="520"
   inkscape:window-y="131"
   inkscape:window-maximized="0"
   inkscape:current-layer="Capa_1" />
<g
   id="g6"
   style="fill:#b70000">
	<g
   id="g4"
   style="fill:#b70000">
		<path
   d="M451.612,279.767H59.949c-33.057,0-59.948,26.89-59.948,59.947c0,33.058,26.891,59.949,59.948,59.949h391.663    c33.057,0,59.947-26.891,59.947-59.949C511.559,306.658,484.669,279.767,451.612,279.767z M451.612,391.669H59.949    c-28.647,0-51.955-23.307-51.955-51.955c0-28.646,23.308-51.955,51.955-51.955h391.663c28.646,0,51.955,23.309,51.955,51.955    C503.567,368.362,480.258,391.669,451.612,391.669z"
   id="path2"
   style="fill:#b70000" />
	</g>
</g>
<g
   id="g12"
   style="fill:#b70000">
	<g
   id="g10"
   style="fill:#b70000">
		<path
   d="M507.563,351.704c-2.209,0-3.996,1.787-3.996,3.996c0,28.648-23.309,51.955-51.955,51.955H59.949    c-28.647,0-51.955-23.307-51.955-51.955c0-2.209-1.787-3.996-3.996-3.996c-2.209,0-3.997,1.787-3.997,3.996    c0,33.058,26.891,59.949,59.948,59.949h391.663c33.057,0,59.947-26.89,59.947-59.949    C511.559,353.491,509.772,351.704,507.563,351.704z"
   id="path8"
   style="fill:#b70000" />
	</g>
</g>
<g
   id="g18">
	<g
   id="g16">
		<path
   d="M451.612,303.745H395.66c-2.209,0-3.997,1.787-3.997,3.996s1.788,3.998,3.997,3.998h55.952    c2.209,0,3.996-1.789,3.996-3.998C455.608,305.532,453.821,303.745,451.612,303.745z"
   id="path14" />
	</g>
</g>
<g
   id="g24">
	<g
   id="g22">
		<path
   d="M451.612,303.745c-2.21,0-3.997,1.787-3.997,3.996v63.945c0,2.209,1.787,3.996,3.997,3.996    c2.209,0,3.996-1.787,3.996-3.996v-63.945C455.608,305.532,453.821,303.745,451.612,303.745z"
   id="path20" />
	</g>
</g>
<g
   id="g30">
	<g
   id="g28">
		<path
   d="M451.612,367.69H395.66c-2.209,0-3.997,1.787-3.997,3.996c0,2.209,1.788,3.996,3.997,3.996h55.952    c2.209,0,3.996-1.787,3.996-3.996C455.608,369.477,453.821,367.69,451.612,367.69z"
   id="path26" />
	</g>
</g>
<g
   id="g36">
	<g
   id="g34">
		<path
   d="M398.86,369.29l-23.979-31.973c-1.327-1.772-3.841-2.139-5.597-0.803c-1.772,1.326-2.131,3.832-0.804,5.596l23.98,31.972    c0.788,1.047,1.982,1.6,3.2,1.6c0.843,0,1.678-0.256,2.396-0.794C399.828,373.56,400.187,371.054,398.86,369.29z"
   id="path32" />
	</g>
</g>
<g
   id="g42">
	<g
   id="g40">
		<path
   d="M398.056,304.541c-1.765-1.312-4.271-0.961-5.597,0.803l-23.979,31.973c-1.327,1.766-0.967,4.27,0.804,5.598    c0.718,0.539,1.553,0.797,2.396,0.797c1.218,0,2.412-0.555,3.201-1.602l23.979-31.973    C400.187,308.373,399.827,305.867,398.056,304.541z"
   id="path38" />
	</g>
</g>
<g
   id="g48">
	<g
   id="g46">
		<path
   d="M419.639,319.731c-2.209,0-3.997,1.787-3.997,3.996V355.7c0,2.209,1.788,3.996,3.997,3.996s3.996-1.787,3.996-3.996    v-31.973C423.635,321.518,421.848,319.731,419.639,319.731z"
   id="path44" />
	</g>
</g>
<g
   id="g54">
	<g
   id="g52">
		<path
   d="M435.626,335.718h-31.973c-2.209,0-3.997,1.787-3.997,3.996s1.788,3.998,3.997,3.998h31.973    c2.209,0,3.996-1.789,3.996-3.998C439.622,337.505,437.835,335.718,435.626,335.718z"
   id="path50" />
	</g>
</g>
<g
   id="g60"
   style="fill:#b70000">
	<g
   id="g58"
   style="fill:#b70000">
		<path
   d="M507.563,335.718c-2.209,0-3.996,1.787-3.996,3.996V355.7c0,2.209,1.787,3.996,3.996,3.996    c2.209,0,3.996-1.787,3.996-3.996v-15.986C511.559,337.505,509.772,335.718,507.563,335.718z"
   id="path56"
   style="fill:#b70000" />
	</g>
</g>
<g
   id="g66"
   style="fill:#c60000">
	<g
   id="g64"
   style="fill:#c60000">
		<path
   d="M3.998,335.718c-2.209,0-3.997,1.787-3.997,3.996V355.7c0,2.209,1.788,3.996,3.997,3.996c2.209,0,3.996-1.787,3.996-3.996    v-15.986C7.994,337.505,6.207,335.718,3.998,335.718z"
   id="path62"
   style="fill:#c60000" />
	</g>
</g>
<g
   id="g72">
	<g
   id="g70">
		<path
   d="M507.563,79.934c-2.209,0-3.996,1.788-3.996,3.997v215.818c0,2.209,1.787,3.996,3.996,3.996    c2.209,0,3.996-1.787,3.996-3.996V83.931C511.559,81.722,509.772,79.934,507.563,79.934z"
   id="path68" />
	</g>
</g>
<g
   id="g78">
	<g
   id="g76">
		<path
   d="M443.618,207.824c-2.209,0-3.996,1.788-3.996,3.997v51.959c0,2.209,1.787,3.996,3.996,3.996s3.997-1.787,3.997-3.996    v-51.959C447.615,209.612,445.827,207.824,443.618,207.824z"
   id="path74" />
	</g>
</g>
<g
   id="g84">
	<g
   id="g82">
		<path
   d="M507.563,79.933c-0.515,0-51.268,0.766-67.816,66.974c-0.547,2.139,0.764,4.309,2.903,4.848    c0.328,0.078,0.656,0.117,0.968,0.117c1.796,0,3.42-1.21,3.871-3.029c14.987-59.941,58.247-60.909,60.089-60.917    c2.202-0.016,3.981-1.803,3.973-4.012C511.543,81.713,509.764,79.933,507.563,79.933z"
   id="path80" />
	</g>
</g>
<g
   id="g90">
	<g
   id="g88">
		<path
   d="M467.596,223.81c-13.254,0-20.342-13.653-20.412-13.785c-0.999-1.967-3.411-2.786-5.362-1.764    c-1.967,0.984-2.763,3.38-1.779,5.347c0.374,0.742,9.305,18.195,27.554,18.195c2.209,0,3.996-1.787,3.996-3.996    C471.593,225.598,469.805,223.81,467.596,223.81z"
   id="path86" />
	</g>
</g>
<g
   id="g96">
	<g
   id="g94">
		<path
   d="M467.597,143.879h-23.979c-2.209,0-3.996,1.787-3.996,3.996c0,2.209,1.787,3.997,3.996,3.997h23.979    c2.209,0,3.997-1.787,3.997-3.997C471.594,145.666,469.806,143.879,467.597,143.879z"
   id="path92" />
	</g>
</g>
<g
   id="g102">
	<g
   id="g100">
		<path
   d="M467.597,143.879c-2.209,0-3.996,1.787-3.996,3.996v79.932c0,2.209,1.787,3.996,3.996,3.996    c2.209,0,3.997-1.787,3.997-3.996v-79.932C471.594,145.666,469.806,143.879,467.597,143.879z"
   id="path98" />
	</g>
</g>
<g
   id="g108">
	<g
   id="g106">
		<path
   d="M491.577,135.885c-2.209,0-3.996,1.788-3.996,3.997v63.945c0,2.209,1.787,3.997,3.996,3.997    c2.209,0,3.996-1.788,3.996-3.997v-63.945C495.573,137.672,493.786,135.885,491.577,135.885z"
   id="path104" />
	</g>
</g>
<g
   id="g114">
	<g
   id="g112">
		<path
   d="M430.27,228.798c-1.202-1.054-121.145-106.447-164.412-142.143c-27.352-22.575-74.8-37.866-76.806-38.506    c-2.099-0.656-4.351,0.499-5.022,2.591c-0.668,2.107,0.491,4.355,2.595,5.027c0.476,0.148,47.97,15.455,74.143,37.054    c43.174,35.618,163.024,140.925,164.226,141.987c0.765,0.664,1.702,0.992,2.638,0.992c1.109,0,2.216-0.461,2.997-1.358    C432.088,232.786,431.925,230.257,430.27,228.798z"
   id="path110" />
	</g>
</g>
<g
   id="g120">
	<g
   id="g118">
		<path
   d="M350.347,256.781c-0.803-0.71-81.079-71.556-119.982-103.981c-45.657-38.045-38.635-99.734-38.561-100.351    c0.269-2.186-1.285-4.184-3.474-4.457c-2.186-0.32-4.184,1.288-4.457,3.466c-0.34,2.701-7.701,66.584,41.37,107.478    c38.827,32.363,119.007,103.131,119.812,103.84c0.757,0.672,1.709,1.004,2.646,1.004c1.108,0,2.201-0.465,2.997-1.356    C352.158,260.769,352.001,258.24,350.347,256.781z"
   id="path116" />
	</g>
</g>
<g
   id="g126">
	<g
   id="g124">
		<path
   d="M306.331,143.802l-36.219-30.935c-1.679-1.436-4.2-1.242-5.636,0.445c-1.436,1.678-1.237,4.199,0.437,5.628l36.234,30.934    c0.75,0.648,1.671,0.96,2.592,0.96c1.124,0,2.248-0.476,3.044-1.404C308.212,147.752,308.017,145.231,306.331,143.802z"
   id="path122" />
	</g>
</g>
<g
   id="g132">
	<g
   id="g130">
		<path
   d="M159.114,137.549c-0.945-1.311-2.6-1.951-4.165-1.553c-1.436,0.336-35.387,8.477-50.05,25.236    C90.958,177.164,12.116,284.818,8.767,289.398c-1.304,1.781-0.917,4.279,0.863,5.582c0.71,0.523,1.537,0.773,2.357,0.773    c1.233,0,2.447-0.571,3.227-1.64c0.819-1.116,81.987-111.946,95.702-127.62c8.47-9.68,25.306-16.377,36.055-19.874    c-12.04,19.343-42.232,67.793-74.42,119.034c-1.175,1.866-0.612,4.332,1.257,5.512c1.881,1.17,4.344,0.607,5.511-1.266    c41.64-66.283,79.943-127.909,79.943-127.909C160.117,140.617,160.058,138.868,159.114,137.549z"
   id="path128" />
	</g>
</g>
<g
   id="g138"
   style="fill:#c60000">
	<g
   id="g136"
   style="fill:#c60000">
		<path
   d="M59.947,427.637c-2.209,0-3.996,1.789-3.996,3.998c0,13.223-10.757,23.979-23.979,23.979S7.993,444.858,7.993,431.635    c0-6.316,2.432-12.279,6.842-16.783c1.546-1.576,1.522-4.105-0.055-5.65c-1.58-1.54-4.109-1.532-5.651,0.062    C3.243,415.266,0,423.211,0,431.635c0,17.633,14.344,31.973,31.973,31.973c17.63,0,31.973-14.34,31.971-31.973    C63.944,429.426,62.156,427.637,59.947,427.637z"
   id="path134"
   style="fill:#c60000" />
	</g>
</g>
<g
   id="g144"
   style="fill:#ff2a00">
	<g
   id="g142"
   style="fill:#ff2a00">
		<path
   d="M59.95,375.682c-19.834,0-35.969-16.133-35.969-35.969c0-2.209-1.788-3.996-3.997-3.996c-2.209,0-3.997,1.787-3.997,3.996    c0,24.238,19.722,43.963,43.962,43.963c2.209,0,3.998-1.787,3.998-3.996S62.159,375.682,59.95,375.682z"
   id="path140"
   style="fill:#ff2a00" />
	</g>
</g>
<g
   id="g150"
   style="fill:#c60000">
	<g
   id="g148"
   style="fill:#c60000">
		<path
   d="M31.973,415.65c-8.816,0-15.986,7.174-15.986,15.986c0,8.812,7.17,15.986,15.986,15.986    c8.817,0,15.986-7.174,15.986-15.986C47.959,422.824,40.789,415.65,31.973,415.65z M31.973,439.627    c-4.406,0-7.993-3.582-7.993-7.992s3.587-7.994,7.993-7.994c4.407,0,7.993,3.584,7.993,7.994    C39.966,436.045,36.379,439.627,31.973,439.627z"
   id="path146"
   style="fill:#c60000" />
	</g>
</g>
<g
   id="g152">
</g>
<g
   id="g154">
</g>
<g
   id="g156">
</g>
<g
   id="g158">
</g>
<g
   id="g160">
</g>
<g
   id="g162">
</g>
<g
   id="g164">
</g>
<g
   id="g166">
</g>
<g
   id="g168">
</g>
<g
   id="g170">
</g>
<g
   id="g172">
</g>
<g
   id="g174">
</g>
<g
   id="g176">
</g>
<g
   id="g178">
</g>
<g
   id="g180">
</g>
</svg>