<?xml version="1.0" encoding="UTF-8" standalone="no"?>
<!-- Generator: Adobe Illustrator 19.0.0, SVG Export Plug-In . SVG Version: 6.00 Build 0)  -->

<svg
   xmlns:dc="http://purl.org/dc/elements/1.1/"
   xmlns:cc="http://creativecommons.org/ns#"
   xmlns:rdf="http://www.w3.org/1999/02/22-rdf-syntax-ns#"
   xmlns:svg="http://www.w3.org/2000/svg"
   xmlns="http://www.w3.org/2000/svg"
   xmlns:sodipodi="http://sodipodi.sourceforge.net/DTD/sodipodi-0.dtd"
   xmlns:inkscape="http://www.inkscape.org/namespaces/inkscape"
   version="1.1"
   id="Capa_1"
   x="0px"
   y="0px"
   viewBox="0 0 512.001 512.001"
   style="enable-background:new 0 0 512.001 512.001;"
   xml:space="preserve"
   sodipodi:docname="spanish-language.svg"
   inkscape:version="0.92.3 (2405546, 2018-03-11)"><metadata
   id="metadata49"><rdf:RDF><cc:Work
       rdf:about=""><dc:format>image/svg+xml</dc:format><dc:type
         rdf:resource="http://purl.org/dc/dcmitype/StillImage" /><dc:title></dc:title></cc:Work></rdf:RDF></metadata><defs
   id="defs47">
	

		
	
			
			
			
		</defs><sodipodi:namedview
   pagecolor="#ffffff"
   bordercolor="#666666"
   borderopacity="1"
   objecttolerance="10"
   gridtolerance="10"
   guidetolerance="10"
   inkscape:pageopacity="0"
   inkscape:pageshadow="2"
   inkscape:window-width="1920"
   inkscape:window-height="1006"
   id="namedview45"
   showgrid="false"
   showguides="false"
   inkscape:zoom="0.46093662"
   inkscape:cx="28.203444"
   inkscape:cy="238.64452"
   inkscape:window-x="0"
   inkscape:window-y="50"
   inkscape:window-maximized="1"
   inkscape:current-layer="Capa_1" />

<g
   id="g14">
</g>
<g
   id="g16">
</g>
<g
   id="g18">
</g>
<g
   id="g20">
</g>
<g
   id="g22">
</g>
<g
   id="g24">
</g>
<g
   id="g26">
</g>
<g
   id="g28">
</g>
<g
   id="g30">
</g>
<g
   id="g32">
</g>
<g
   id="g34">
</g>
<g
   id="g36">
</g>
<g
   id="g38">
</g>
<g
   id="g40">
</g>
<g
   id="g42">
</g>
<g
   id="g986"
   style="fill:#e20000"><path
     style="fill:#e20000"
     d="m 195.834,209.924 c 5.991,0 9.387,-6.39 9.387,-13.779 0,-6.391 -2.797,-13.381 -9.387,-13.381 h -71.096 c -6.79,0 -13.58,3.195 -13.58,9.586 v 126.814 c 0,6.391 6.79,9.586 13.58,9.586 h 71.096 c 6.59,0 9.387,-6.99 9.387,-13.381 0,-7.388 -3.396,-13.779 -9.387,-13.779 h -53.521 v -33.95 h 29.956 c 6.591,0 9.386,-6.39 9.386,-11.782 0,-6.391 -3.395,-12.183 -9.386,-12.183 h -29.956 v -33.751 z"
     id="path4"
     inkscape:connector-curvature="0" /><path
     style="fill:#e20000"
     d="m 438.142,256 71.924,-151.419 c 2.943,-6.196 2.506,-13.469 -1.159,-19.267 C 505.241,79.516 498.859,76 492,76 H 20 C 8.954,76 0,84.954 0,96 v 320 c 0,11.046 8.954,20 20,20 h 472 c 6.859,0 13.241,-3.516 16.906,-9.314 3.665,-5.798 4.103,-13.07 1.159,-19.267 z M 40,396 V 116 h 420.358 l -62.424,131.419 c -2.579,5.43 -2.579,11.732 0,17.162 L 460.358,396 Z"
     id="path6"
     inkscape:connector-curvature="0" /><g
     id="flowRoot936"
     style="font-style:normal;font-weight:normal;font-size:40px;line-height:0;font-family:sans-serif;letter-spacing:-9.02000141px;word-spacing:0px;fill:#e20000;fill-opacity:1;stroke:none"
     transform="matrix(1.8250713,0,0,2.0457651,-215.60099,-180.91461)"
     aria-label="S"><path
       id="path979"
       style="font-style:normal;font-variant:normal;font-weight:bold;font-stretch:normal;font-size:96px;font-family:sans-serif;-inkscape-font-specification:'sans-serif Bold';fill:#e20000;fill-opacity:1"
       d="m 296.16016,180.61523 v 14.8125 q -5.76563,-2.57812 -11.25,-3.89062 -5.48438,-1.3125 -10.35938,-1.3125 -6.46875,0 -9.5625,1.78125 -3.09375,1.78125 -3.09375,5.53125 0,2.8125 2.0625,4.40625 2.10938,1.54687 7.59375,2.67187 l 7.6875,1.54688 q 11.67188,2.34375 16.59375,7.125 4.92188,4.78125 4.92188,13.59375 0,11.57812 -6.89063,17.25 -6.84375,5.625 -20.95312,5.625 -6.65625,0 -13.35938,-1.26563 -6.70312,-1.26562 -13.40625,-3.75 v -15.23437 q 6.70313,3.5625 12.9375,5.39062 6.28125,1.78125 12.09375,1.78125 5.90625,0 9.04688,-1.96875 3.14062,-1.96875 3.14062,-5.625 0,-3.28125 -2.15625,-5.0625 -2.10937,-1.78125 -8.48437,-3.1875 l -6.98438,-1.54687 q -10.5,-2.25 -15.375,-7.17188 -4.82812,-4.92187 -4.82812,-13.26562 0,-10.45313 6.75,-16.07813 6.75,-5.625 19.40625,-5.625 5.76562,0 11.85937,0.89063 6.09375,0.84375 12.60938,2.57812 z" /></g></g></svg>