<?xml version="1.0" encoding="UTF-8" standalone="no"?>
<!-- Generator: Adobe Illustrator 18.1.1, SVG Export Plug-In . SVG Version: 6.00 Build 0)  -->

<svg
   xmlns:dc="http://purl.org/dc/elements/1.1/"
   xmlns:cc="http://creativecommons.org/ns#"
   xmlns:rdf="http://www.w3.org/1999/02/22-rdf-syntax-ns#"
   xmlns:svg="http://www.w3.org/2000/svg"
   xmlns="http://www.w3.org/2000/svg"
   xmlns:sodipodi="http://sodipodi.sourceforge.net/DTD/sodipodi-0.dtd"
   xmlns:inkscape="http://www.inkscape.org/namespaces/inkscape"
   version="1.1"
   id="Capa_1"
   x="0px"
   y="0px"
   viewBox="0 0 612 612"
   style="enable-background:new 0 0 612 612;"
   xml:space="preserve"
   sodipodi:docname="ventasmostrador.svg"
   inkscape:version="0.92.3 (2405546, 2018-03-11)"><metadata
   id="metadata85"><rdf:RDF><cc:Work
       rdf:about=""><dc:format>image/svg+xml</dc:format><dc:type
         rdf:resource="http://purl.org/dc/dcmitype/StillImage" /><dc:title></dc:title></cc:Work></rdf:RDF></metadata><defs
   id="defs83" /><sodipodi:namedview
   pagecolor="#ffffff"
   bordercolor="#666666"
   borderopacity="1"
   objecttolerance="10"
   gridtolerance="10"
   guidetolerance="10"
   inkscape:pageopacity="0"
   inkscape:pageshadow="2"
   inkscape:window-width="640"
   inkscape:window-height="480"
   id="namedview81"
   showgrid="false"
   inkscape:zoom="0.38562092"
   inkscape:cx="306"
   inkscape:cy="306"
   inkscape:window-x="0"
   inkscape:window-y="50"
   inkscape:window-maximized="0"
   inkscape:current-layer="Capa_1" />
<g
   id="g48"
   style="fill:#7fff7f">
	<g
   id="g46"
   style="fill:#7fff7f">
		<g
   id="g24"
   style="fill:#7fff7f">
			<rect
   y="85"
   width="40.8"
   height="442"
   id="rect2"
   style="fill:#7fff7f" />
			<rect
   x="61.2"
   y="85"
   width="27.2"
   height="326.4"
   id="rect4"
   style="fill:#7fff7f" />
			<rect
   x="136"
   y="85"
   width="27.2"
   height="326.4"
   id="rect6"
   style="fill:#7fff7f" />
			<rect
   x="183.6"
   y="85"
   width="40.8"
   height="326.4"
   id="rect8"
   style="fill:#7fff7f" />
			<rect
   x="102"
   y="85"
   width="20.4"
   height="326.4"
   id="rect10"
   style="fill:#7fff7f" />
			<rect
   x="238"
   y="85"
   width="20.4"
   height="326.4"
   id="rect12"
   style="fill:#7fff7f" />
			<polygon
   points="376.264,85 333.2,85 333.2,411.4 376.264,411.4 388.736,411.4 414.8,411.4 414.8,85 388.736,85    "
   id="polygon14"
   style="fill:#7fff7f" />
			<rect
   x="272"
   y="85"
   width="34"
   height="326.4"
   id="rect16"
   style="fill:#7fff7f" />
			<rect
   x="523.6"
   y="85"
   width="40.8"
   height="326.4"
   id="rect18"
   style="fill:#7fff7f" />
			<polygon
   points="478.264,85 442,85 442,411.4 478.264,411.4 485.064,411.4 503.2,411.4 503.2,85 485.064,85    "
   id="polygon20"
   style="fill:#7fff7f" />
			<rect
   x="578"
   y="85"
   width="34"
   height="442"
   id="rect22"
   style="fill:#7fff7f" />
		</g>
		<g
   id="g44"
   style="fill:#7fff7f">
			<path
   d="M112.152,490.491c0,23.276-8.636,36.122-23.8,36.122c-13.376,0-22.433-12.532-22.644-35.176     c0-22.957,9.901-35.591,23.8-35.591C103.938,455.838,112.152,468.69,112.152,490.491z M74.977,491.538     c0,17.802,5.474,27.907,13.899,27.907c9.479,0,14.008-11.057,14.008-28.54c0-16.85-4.318-27.907-13.899-27.907     C80.879,462.998,74.977,472.899,74.977,491.538z"
   id="path26"
   style="fill:#7fff7f" />
			<path
   d="M141.875,465.637h-0.211l-11.9,6.419l-1.795-7.052l14.953-8.01h7.902v68.456h-8.949V465.637z"
   id="path28"
   style="fill:#7fff7f" />
			<path
   d="M176.868,525.45v-5.685l7.262-7.058c17.483-16.64,25.378-25.486,25.486-35.809c0-6.95-3.373-13.376-13.586-13.376     c-6.215,0-11.376,3.155-14.538,5.794l-2.951-6.528c4.74-4.005,11.485-6.95,19.387-6.95c14.742,0,20.958,10.105,20.958,19.904     c0,12.634-9.166,22.855-23.596,36.754l-5.481,5.059v0.204h30.75v7.691L176.868,525.45L176.868,525.45z"
   id="path30"
   style="fill:#7fff7f" />
			<path
   d="M234.178,514.814c2.632,1.686,8.738,4.318,15.164,4.318c11.907,0,15.592-7.575,15.484-13.267     c-0.109-9.581-8.745-13.695-17.7-13.695h-5.161v-6.943h5.161c6.739,0,15.273-3.482,15.273-11.587     c0-5.474-3.475-10.316-12.009-10.316c-5.481,0-10.744,2.421-13.695,4.529l-2.414-6.739c3.577-2.638,10.533-5.263,17.904-5.263     c13.478,0,19.591,8.004,19.591,16.32c0,7.058-4.216,13.063-12.641,16.116v0.204c8.425,1.686,15.273,8.01,15.273,17.592     c0,10.948-8.534,20.536-24.963,20.536c-7.684,0-14.423-2.414-17.796-4.631L234.178,514.814z"
   id="path32"
   style="fill:#7fff7f" />
			<path
   d="M315.717,525.45v-18.639h-31.804v-6.113l30.539-43.71h10.01v42.554h9.581v7.262h-9.581v18.639h-8.745V525.45z      M315.717,499.548v-22.855c0-3.577,0.109-7.16,0.32-10.744h-0.32c-2.108,4.005-3.794,6.95-5.685,10.112l-16.748,23.276v0.211     L315.717,499.548L315.717,499.548z"
   id="path34"
   style="fill:#7fff7f" />
			<path
   d="M383.044,464.794h-26.119l-2.638,17.592c1.578-0.211,3.053-0.428,5.583-0.428c5.263,0,10.533,1.163,14.742,3.686     c5.372,3.053,9.792,8.949,9.792,17.592c0,13.376-10.635,23.378-25.486,23.378c-7.48,0-13.79-2.108-17.061-4.209l2.319-7.058     c2.842,1.686,8.425,3.794,14.634,3.794c8.745,0,16.225-5.685,16.225-14.851c-0.109-8.847-6.004-15.157-19.693-15.157     c-3.896,0-6.95,0.422-9.479,0.734l4.42-32.864h32.749v7.793H383.044z"
   id="path36"
   style="fill:#7fff7f" />
			<path
   d="M436.356,463.529c-1.89-0.109-4.318,0-6.95,0.422c-14.538,2.421-22.229,13.063-23.8,24.33h0.313     c3.264-4.325,8.949-7.902,16.538-7.902c12.111,0,20.645,8.745,20.645,22.12c0,12.532-8.534,24.113-22.753,24.113     c-14.64,0-24.228-11.37-24.228-29.172c0-13.478,4.848-24.113,11.587-30.852c5.685-5.583,13.267-9.058,21.91-10.112     c2.734-0.422,5.052-0.524,6.732-0.524v7.575H436.356z M433.724,503.023c0-9.792-5.583-15.694-14.11-15.694     c-5.583,0-10.744,3.475-13.267,8.425c-0.639,1.047-1.054,2.414-1.054,4.107c0.211,11.268,5.372,19.591,15.062,19.591     C428.352,519.452,433.724,512.815,433.724,503.023z"
   id="path38"
   style="fill:#7fff7f" />
			<path
   d="M496.828,456.994v6.106l-29.804,62.349h-9.581l29.696-60.554v-0.211h-33.49v-7.691L496.828,456.994L496.828,456.994z"
   id="path40"
   style="fill:#7fff7f" />
			<path
   d="M506.654,508.076c0-8.629,5.161-14.742,13.586-18.319l-0.109-0.32c-7.582-3.577-10.853-9.479-10.853-15.375     c0-10.853,9.166-18.224,21.168-18.224c13.267,0,19.904,8.323,19.904,16.85c0,5.794-2.842,12.009-11.268,16.007v0.32     c8.534,3.366,13.797,9.37,13.797,17.694c0,11.9-10.214,19.904-23.276,19.904C515.284,526.606,506.654,518.078,506.654,508.076z      M543.517,507.654c0-8.323-5.8-12.328-15.062-14.953c-8.01,2.319-12.328,7.582-12.328,14.11     c-0.313,6.95,4.957,13.056,13.695,13.056C538.145,519.867,543.517,514.706,543.517,507.654z M518.031,473.423     c0,6.848,5.161,10.533,13.056,12.641c5.896-2.006,10.424-6.215,10.424-12.43c0-5.474-3.257-11.166-11.58-11.166     C522.24,462.475,518.031,467.527,518.031,473.423z"
   id="path42"
   style="fill:#7fff7f" />
		</g>
	</g>
</g>
<g
   id="g50">
</g>
<g
   id="g52">
</g>
<g
   id="g54">
</g>
<g
   id="g56">
</g>
<g
   id="g58">
</g>
<g
   id="g60">
</g>
<g
   id="g62">
</g>
<g
   id="g64">
</g>
<g
   id="g66">
</g>
<g
   id="g68">
</g>
<g
   id="g70">
</g>
<g
   id="g72">
</g>
<g
   id="g74">
</g>
<g
   id="g76">
</g>
<g
   id="g78">
</g>
</svg>