<?xml version="1.0" encoding="UTF-8" standalone="no"?>
<!-- Generator: Adobe Illustrator 19.0.0, SVG Export Plug-In . SVG Version: 6.00 Build 0)  -->

<svg
   xmlns:dc="http://purl.org/dc/elements/1.1/"
   xmlns:cc="http://creativecommons.org/ns#"
   xmlns:rdf="http://www.w3.org/1999/02/22-rdf-syntax-ns#"
   xmlns:svg="http://www.w3.org/2000/svg"
   xmlns="http://www.w3.org/2000/svg"
   xmlns:sodipodi="http://sodipodi.sourceforge.net/DTD/sodipodi-0.dtd"
   xmlns:inkscape="http://www.inkscape.org/namespaces/inkscape"
   version="1.1"
   id="Capa_1"
   x="0px"
   y="0px"
   viewBox="0 0 49.999999 49.999999"
   xml:space="preserve"
   sodipodi:docname="viewpass.svg"
   width="50"
   height="50"
   inkscape:version="0.92.3 (2405546, 2018-03-11)"><metadata
   id="metadata41"><rdf:RDF><cc:Work
       rdf:about=""><dc:format>image/svg+xml</dc:format><dc:type
         rdf:resource="http://purl.org/dc/dcmitype/StillImage" /><dc:title></dc:title></cc:Work></rdf:RDF></metadata><defs
   id="defs39" /><sodipodi:namedview
   pagecolor="#ffffff"
   bordercolor="#666666"
   borderopacity="1"
   objecttolerance="10"
   gridtolerance="10"
   guidetolerance="10"
   inkscape:pageopacity="0"
   inkscape:pageshadow="2"
   inkscape:window-width="1371"
   inkscape:window-height="726"
   id="namedview37"
   showgrid="false"
   inkscape:zoom="4.22"
   inkscape:cx="78.462349"
   inkscape:cy="17.511827"
   inkscape:window-x="94"
   inkscape:window-y="78"
   inkscape:window-maximized="0"
   inkscape:current-layer="Capa_1" />
<rect
   style="fill:#7aaedc;fill-opacity:1;stroke-width:0.10078636"
   id="rect848"
   width="50"
   height="50"
   x="0"
   y="0" /><g
   id="g4"
   transform="matrix(0.1005762,0,0,0.100997,0.2083335,0.2092039)">
	<path
   d="m 245.4607,156.72415 c -56.59407,0 -107.91653,34.39091 -145.787288,90.25091 -3.090254,4.57647 -3.090254,10.97009 0,15.54657 37.870758,55.92729 89.193218,90.3182 145.787288,90.3182 56.59406,0 107.91652,-34.39091 145.78729,-90.25091 3.09025,-4.57647 3.09025,-10.97008 0,-15.54657 -37.87077,-55.92729 -89.19323,-90.3182 -145.78729,-90.3182 z m 4.05975,167.10886 c -37.5678,2.62475 -68.59153,-31.76616 -66.2284,-73.5602 1.93899,-34.4582 27.08517,-62.3882 58.1089,-64.54184 37.5678,-2.62474 68.59153,31.76617 66.22839,73.56021 -1.99958,34.39091 -27.14576,62.3209 -58.10889,64.54183 z m -1.8784,-31.90076 c -20.23813,1.41332 -36.96186,-17.0945 -35.62881,-39.5731 1.03008,-18.57514 14.60297,-33.5833 31.3267,-34.79472 20.23813,-1.41333 36.96186,17.09451 35.62881,39.5731 -1.09068,18.64244 -14.66356,33.6506 -31.3267,34.79472 z"
   id="path2"
   inkscape:connector-curvature="0"
   style="stroke-width:0.63859189" />
</g>
<g
   id="g6"
   transform="translate(2.0710001,-388.85001)">
</g>
<g
   id="g8"
   transform="translate(2.0710001,-388.85001)">
</g>
<g
   id="g10"
   transform="translate(2.0710001,-388.85001)">
</g>
<g
   id="g12"
   transform="translate(2.0710001,-388.85001)">
</g>
<g
   id="g14"
   transform="translate(2.0710001,-388.85001)">
</g>
<g
   id="g16"
   transform="translate(2.0710001,-388.85001)">
</g>
<g
   id="g18"
   transform="translate(2.0710001,-388.85001)">
</g>
<g
   id="g20"
   transform="translate(2.0710001,-388.85001)">
</g>
<g
   id="g22"
   transform="translate(2.0710001,-388.85001)">
</g>
<g
   id="g24"
   transform="translate(2.0710001,-388.85001)">
</g>
<g
   id="g26"
   transform="translate(2.0710001,-388.85001)">
</g>
<g
   id="g28"
   transform="translate(2.0710001,-388.85001)">
</g>
<g
   id="g30"
   transform="translate(2.0710001,-388.85001)">
</g>
<g
   id="g32"
   transform="translate(2.0710001,-388.85001)">
</g>
<g
   id="g34"
   transform="translate(2.0710001,-388.85001)">
</g>
</svg>