<?xml version="1.0" encoding="UTF-8" standalone="no"?>
<!-- Generator: Adobe Illustrator 19.0.0, SVG Export Plug-In . SVG Version: 6.00 Build 0)  -->

<svg
   xmlns:dc="http://purl.org/dc/elements/1.1/"
   xmlns:cc="http://creativecommons.org/ns#"
   xmlns:rdf="http://www.w3.org/1999/02/22-rdf-syntax-ns#"
   xmlns:svg="http://www.w3.org/2000/svg"
   xmlns="http://www.w3.org/2000/svg"
   xmlns:sodipodi="http://sodipodi.sourceforge.net/DTD/sodipodi-0.dtd"
   xmlns:inkscape="http://www.inkscape.org/namespaces/inkscape"
   version="1.1"
   id="Capa_1"
   x="0px"
   y="0px"
   viewBox="0 0 512 512"
   style="enable-background:new 0 0 512 512;"
   xml:space="preserve"
   sodipodi:docname="w-graphics.svg"
   inkscape:version="0.92.5 (2060ec1f9f, 2020-04-08)"><metadata
   id="metadata49"><rdf:RDF><cc:Work
       rdf:about=""><dc:format>image/svg+xml</dc:format><dc:type
         rdf:resource="http://purl.org/dc/dcmitype/StillImage" /><dc:title></dc:title></cc:Work></rdf:RDF></metadata><defs
   id="defs47" /><sodipodi:namedview
   pagecolor="#ffffff"
   bordercolor="#666666"
   borderopacity="1"
   objecttolerance="10"
   gridtolerance="10"
   guidetolerance="10"
   inkscape:pageopacity="0"
   inkscape:pageshadow="2"
   inkscape:window-width="640"
   inkscape:window-height="480"
   id="namedview45"
   showgrid="false"
   inkscape:zoom="0.4609375"
   inkscape:cx="256"
   inkscape:cy="256"
   inkscape:window-x="0"
   inkscape:window-y="27"
   inkscape:window-maximized="0"
   inkscape:current-layer="Capa_1" />
<path
   style="fill:#ffffff"
   d="M512,278.41c0,5.03-0.16,10.03-0.47,15c-3.57,56.76-27.38,109.61-67.95,150.18  c-40.56,40.56-93.41,64.37-150.17,67.94c-4.97,0.31-9.97,0.47-15,0.47c-105.875,0-193.54-69.989-222.9-163.53  c-1.43-4.55-0.61-9.52,2.22-13.37c2.82-3.85,7.31-6.12,12.09-6.12h88.71c5.48,0,10.52,2.99,13.16,7.79  c21.37,39.02,62.26,63.26,106.72,63.26c5.08,0,10.08-0.31,15-0.93c55.09-6.8,98.89-50.6,105.69-105.69c0.62-4.92,0.93-9.92,0.93-15  c0-44.45-24.24-85.35-63.26-106.72c-4.8-2.64-7.79-7.68-7.79-13.16V69.82c0-4.78,2.27-9.27,6.12-12.09  c3.85-2.83,8.82-3.65,13.37-2.22C441.923,84.843,512,172.445,512,278.41z"
   id="path2" />
<path
   style="fill:#808080"
   d="M511.53,293.41c0.31-4.97,0.47-9.97,0.47-15c0-105.965-70.077-193.567-163.53-222.9  c-4.55-1.43-9.52-0.61-13.37,2.22c-3.85,2.82-6.12,7.31-6.12,12.09v88.71c0,5.48,2.99,10.52,7.79,13.16  c39.02,21.37,63.26,62.27,63.26,106.72c0,5.08-0.31,10.08-0.93,15c-3.4,27.545-16.05,52.268-34.736,70.954l79.221,79.221  C484.152,403.016,507.96,350.168,511.53,293.41z"
   id="path4" />
<path
   style="fill:#bfbfbf"
   d="M278.406,0C204.042,0,134.128,28.959,81.543,81.544C28.959,134.128,0,204.042,0,278.406  c0,8.284,6.716,15,15,15h263.406c8.284,0,15-6.716,15-15V15C293.406,6.716,286.69,0,278.406,0z"
   id="path6" />
<path
   style="fill:#bfbfbf"
   d="M293.41,399.1v112.43c-4.97,0.31-9.97,0.47-15,0.47c-105.875,0-193.54-69.989-222.9-163.53  c-1.43-4.55-0.61-9.52,2.22-13.37c2.82-3.85,7.31-6.12,12.09-6.12h88.71c5.48,0,10.52,2.99,13.16,7.79  c21.37,39.02,62.26,63.26,106.72,63.26C283.49,400.03,288.49,399.72,293.41,399.1z"
   id="path8" />
<path
   style="fill:#ffffff"
   d="M293.406,15c0-8.284-6.716-15-15-15C204.042,0,134.128,28.959,81.544,81.544l207.469,207.469  c2.714-2.714,4.393-6.464,4.393-10.606V15z"
   id="path10" />
<path
   style="fill:#bfbfbf"
   d="M336.77,171.69c39.02,21.37,63.26,62.27,63.26,106.72c0,5.08-0.31,10.08-0.93,15h112.43  c0.31-4.97,0.47-9.97,0.47-15c0-105.965-70.077-193.567-163.53-222.9c-4.55-1.43-9.52-0.61-13.37,2.22  c-3.85,2.82-6.12,7.31-6.12,12.09v88.71C328.98,164.01,331.97,169.05,336.77,171.69z"
   id="path12" />
<g
   id="g14">
</g>
<g
   id="g16">
</g>
<g
   id="g18">
</g>
<g
   id="g20">
</g>
<g
   id="g22">
</g>
<g
   id="g24">
</g>
<g
   id="g26">
</g>
<g
   id="g28">
</g>
<g
   id="g30">
</g>
<g
   id="g32">
</g>
<g
   id="g34">
</g>
<g
   id="g36">
</g>
<g
   id="g38">
</g>
<g
   id="g40">
</g>
<g
   id="g42">
</g>
</svg>