<?xml version="1.0" encoding="UTF-8" standalone="no"?>
<svg
   xmlns:dc="http://purl.org/dc/elements/1.1/"
   xmlns:cc="http://creativecommons.org/ns#"
   xmlns:rdf="http://www.w3.org/1999/02/22-rdf-syntax-ns#"
   xmlns:svg="http://www.w3.org/2000/svg"
   xmlns="http://www.w3.org/2000/svg"
   xmlns:sodipodi="http://sodipodi.sourceforge.net/DTD/sodipodi-0.dtd"
   xmlns:inkscape="http://www.inkscape.org/namespaces/inkscape"
   height="512"
   viewBox="0 0 60 60"
   width="512"
   version="1.1"
   id="svg50"
   sodipodi:docname="w-help.svg"
   inkscape:version="0.92.5 (2060ec1f9f, 2020-04-08)">
  <metadata
     id="metadata56">
    <rdf:RDF>
      <cc:Work
         rdf:about="">
        <dc:format>image/svg+xml</dc:format>
        <dc:type
           rdf:resource="http://purl.org/dc/dcmitype/StillImage" />
        <dc:title></dc:title>
      </cc:Work>
    </rdf:RDF>
  </metadata>
  <defs
     id="defs54" />
  <sodipodi:namedview
     pagecolor="#ffffff"
     bordercolor="#666666"
     borderopacity="1"
     objecttolerance="10"
     gridtolerance="10"
     guidetolerance="10"
     inkscape:pageopacity="0"
     inkscape:pageshadow="2"
     inkscape:window-width="640"
     inkscape:window-height="480"
     id="namedview52"
     showgrid="false"
     inkscape:zoom="0.4609375"
     inkscape:cx="256"
     inkscape:cy="256"
     inkscape:window-x="680"
     inkscape:window-y="314"
     inkscape:window-maximized="0"
     inkscape:current-layer="svg50" />
  <g
     style="fill:none;fill-rule:evenodd"
     id="Icons_copy"
     transform="translate(1,1)">
    <path
       id="Path"
       d="m 26.02,13.28 c -3.158879,0.595578 -6.065118,2.128846 -8.34,4.4 L 9.91,9.91 C 14.235705,5.5733793 19.911878,2.8428894 26,2.17 V 13 c 0.0013,0.09364 0.008,0.187124 0.02,0.28 z"
       inkscape:connector-curvature="0"
       style="fill:#f5f5f5" />
    <path
       id="path3"
       d="m 17.68,17.68 c -2.271154,2.274882 -3.804422,5.181121 -4.4,8.34 C 13.187124,26.008005 13.093638,26.001327 13,26 H 2.17 C 2.8428894,19.911878 5.5733793,14.235705 9.91,9.91 Z"
       inkscape:connector-curvature="0"
       style="fill:#ff9801" />
    <path
       id="path5"
       d="M 32,55.83 V 45 c -0.0013,-0.09364 -0.008,-0.187124 -0.02,-0.28 3.158879,-0.595578 6.065118,-2.128846 8.34,-4.4 l 7.77,7.77 C 43.764295,52.426621 38.088121,55.157111 32,55.83 Z"
       inkscape:connector-curvature="0"
       style="fill:#f5f5f5" />
    <path
       id="path7"
       d="m 46.5,46.57 c -3.767806,4.395703 -8.852843,7.458999 -14.5,8.735 v 0.525 c 6.088121,-0.672889 11.764295,-3.403379 16.09,-7.74"
       inkscape:connector-curvature="0"
       style="fill:#cfd8dc" />
    <path
       id="path9"
       d="m 55.83,32 c -0.672889,6.088121 -3.403379,11.764295 -7.74,16.09 l -7.77,-7.77 c 2.271154,-2.274882 3.804422,-5.181121 4.4,-8.34 0.09288,0.01199 0.186362,0.01867 0.28,0.02 z"
       inkscape:connector-curvature="0"
       style="fill:#ff9801" />
    <path
       id="path11"
       d="M 45,32 C 44.90636,31.9987 44.812876,31.992 44.72,31.98 V 32 Z"
       inkscape:connector-curvature="0"
       style="fill:#f57c00" />
    <path
       id="path13"
       d="m 52.83,32 c -0.591822,5.365868 -2.787317,10.42875 -6.3,14.528 l 1.56,1.562 C 52.426621,43.764295 55.157111,38.088121 55.83,32 Z"
       inkscape:connector-curvature="0"
       style="fill:#f57c00" />
    <path
       id="path15"
       d="M 17.68,40.32 9.91,48.09 C 5.5733793,43.764295 2.8428894,38.088121 2.17,32 H 13 c 0.09364,-0.0013 0.187124,-0.008 0.28,-0.02 0.595578,3.158879 2.128846,6.065118 4.4,8.34 z"
       inkscape:connector-curvature="0"
       style="fill:#f5f5f5" />
    <path
       id="path17"
       d="M 26.02,44.72 C 26.008005,44.812876 26.001327,44.906362 26,45 V 55.83 C 19.911878,55.157111 14.235705,52.426621 9.91,48.09 l 7.77,-7.77 c 2.274882,2.271154 5.181121,3.804422 8.34,4.4 z"
       inkscape:connector-curvature="0"
       style="fill:#ff9801" />
    <path
       id="path19"
       d="M 55.83,26 H 45 c -0.09364,0.0013 -0.187124,0.008 -0.28,0.02 -0.595578,-3.158879 -2.128846,-6.065118 -4.4,-8.34 l 7.77,-7.77 c 4.336621,4.325705 7.067111,10.001878 7.74,16.09 z"
       inkscape:connector-curvature="0"
       style="fill:#f5f5f5" />
    <path
       id="path21"
       d="M 44.72,26.02 C 44.812876,26.008005 44.906362,26.001327 45,26 H 44.715 Z"
       inkscape:connector-curvature="0"
       style="fill:#cfd8dc" />
    <path
       id="path23"
       d="m 48.09,9.91 -1.562,1.562 c 3.513406,4.099004 5.709609,9.161909 6.302,14.528 h 3 C 55.157111,19.911878 52.426621,14.235705 48.09,9.91 Z"
       inkscape:connector-curvature="0"
       style="fill:#cfd8dc" />
    <path
       id="path25"
       d="m 48.09,9.91 -7.77,7.77 C 38.045118,15.408846 35.138879,13.875578 31.98,13.28 31.99199,13.18712 31.99867,13.093638 32,13 V 2.17 c 6.088122,0.6728894 11.764295,3.4033793 16.09,7.74 z"
       inkscape:connector-curvature="0"
       style="fill:#ff9801" />
    <path
       id="path27"
       d="M 48.09,9.91 C 43.764295,5.5733793 38.088121,2.8428894 32,2.17 V 2.7 c 5.683516,1.2855449 10.796299,4.3809369 14.57,8.821 z"
       inkscape:connector-curvature="0"
       style="fill:#f57c00" />
    <path
       id="path29"
       d="m 32,2 v 11 c -0.0013,0.09364 -0.008,0.187124 -0.02,0.28 C 31.835703,14.263837 30.994348,14.994711 30,15 H 28 C 27.005652,14.994711 26.164297,14.263837 26.02,13.28 26.008005,13.187124 26.001327,13.093638 26,13 V 2 c 0.0033,-1.10320187 0.896798,-1.9967052 2,-2 h 2 c 1.103202,0.0032948 1.996705,0.89679813 2,2 z"
       inkscape:connector-curvature="0"
       style="fill:#ffe0b2" />
    <path
       id="path31"
       d="M 30,0 H 28 C 27.830892,0.00190932 27.662776,0.02611815 27.5,0.072 28.379984,0.29920212 28.996139,1.0911669 29,2 v 11 c -0.0013,0.09364 -0.008,0.187124 -0.02,0.28 -0.119589,0.795773 -0.701614,1.443866 -1.48,1.648 0.162893,0.04533 0.330937,0.06952 0.5,0.072 h 2 c 0.994348,-0.0053 1.835703,-0.736163 1.98,-1.72 C 31.99199,13.18712 31.99867,13.093638 32,13 V 2 C 31.996705,0.89679813 31.103202,0.0032948 30,0 Z"
       inkscape:connector-curvature="0"
       style="fill:#dfc49c" />
    <path
       id="path33"
       d="m 32,45 v 11 c -0.0033,1.103202 -0.896798,1.996705 -2,2 H 28 C 26.896798,57.9967 26.003295,57.103202 26,56 V 45 c 0.0013,-0.09364 0.008,-0.187124 0.02,-0.28 C 26.164297,43.736163 27.005652,43.005289 28,43 h 2 c 0.994348,0.0053 1.835703,0.736163 1.98,1.72 0.01199,0.09288 0.01867,0.186362 0.02,0.28 z"
       inkscape:connector-curvature="0"
       style="fill:#ffe0b2" />
    <path
       id="path35"
       d="M 31.98,44.72 C 31.835703,43.736163 30.994348,43.005289 30,43 h -2 c -0.169063,0.0025 -0.337107,0.02667 -0.5,0.072 0.778386,0.204134 1.360411,0.852227 1.48,1.648 0.01199,0.09288 0.01867,0.186362 0.02,0.28 v 11 c -0.0039,0.908833 -0.620016,1.700798 -1.5,1.928 0.162776,0.04588 0.330892,0.07009 0.5,0.072 h 2 c 1.103202,-0.0033 1.996705,-0.896798 2,-2 V 45 c -0.0013,-0.09364 -0.008,-0.187124 -0.02,-0.28 z"
       inkscape:connector-curvature="0"
       style="fill:#dfc49c" />
    <path
       id="path37"
       d="m 58,28 v 2 c -0.0033,1.103202 -0.896798,1.996705 -2,2 H 45 C 44.90636,31.9987 44.812876,31.992 44.72,31.98 43.736163,31.835703 43.005289,30.994348 43,30 v -2 c 0.0053,-0.994348 0.736163,-1.835703 1.72,-1.98 C 44.81288,26.00801 44.906362,26.00133 45,26 h 11 c 1.103202,0.0033 1.996705,0.896798 2,2 z"
       inkscape:connector-curvature="0"
       style="fill:#ffe0b2" />
    <path
       id="path39"
       d="m 56,26 h -3 c 1.103202,0.0033 1.996705,0.896798 2,2 v 2 c -0.0033,1.103202 -0.896798,1.996705 -2,2 h 3 c 1.103202,-0.0033 1.996705,-0.896798 2,-2 v -2 c -0.0033,-1.103202 -0.896798,-1.996705 -2,-2 z"
       inkscape:connector-curvature="0"
       style="fill:#dfc49c" />
    <path
       id="path41"
       d="m 15,28 v 2 c -0.0053,0.994348 -0.736163,1.835703 -1.72,1.98 C 13.18712,31.99199 13.093638,31.99867 13,32 H 2 C 0.89679813,31.996705 0.0032948,31.103202 0,30 v -2 c 0.0032948,-1.103202 0.89679813,-1.996705 2,-2 h 11 c 0.09364,0.0013 0.187124,0.008 0.28,0.02 0.983837,0.144297 1.714711,0.985652 1.72,1.98 z"
       inkscape:connector-curvature="0"
       style="fill:#ffe0b2" />
    <path
       id="path43"
       d="M 13.28,26.02 C 13.187124,26.008005 13.093638,26.001327 13,26 h -3 c 0.09364,0.0013 0.187124,0.008 0.28,0.02 0.983837,0.144297 1.714711,0.985652 1.72,1.98 v 2 c -0.0053,0.994348 -0.736163,1.835703 -1.72,1.98 C 10.18712,31.99199 10.093638,31.99867 10,32 h 3 c 0.09364,-0.0013 0.187124,-0.008 0.28,-0.02 C 14.263837,31.835703 14.994711,30.994348 15,30 v -2 c -0.0053,-0.994348 -0.736163,-1.835703 -1.72,-1.98 z"
       inkscape:connector-curvature="0"
       style="fill:#dfc49c" />
  </g>
  <path
     style="fill:#ffffff;fill-rule:nonzero"
     inkscape:connector-curvature="0"
     d="M 57.7,26.091 C 55.911728,13.767932 46.232068,4.0882723 33.909,2.3 33.586036,0.95405214 32.384149,0.00378018 31,0 H 29 C 27.615852,0.00378018 26.413964,0.95405214 26.091,2.3 13.767932,4.0882723 4.0882723,13.767932 2.3,26.091 0.95405214,26.413964 0.00378018,27.615852 0,29 v 2 c 0.00378018,1.384149 0.95405214,2.586036 2.3,2.909 1.7882723,12.323068 11.467932,22.002728 23.791,23.791 0.322964,1.345948 1.524852,2.29622 2.909,2.3 h 2 c 1.384149,-0.0038 2.586036,-0.954052 2.909,-2.3 C 46.232068,55.911728 55.911728,46.232068 57.7,33.909 59.045948,33.586036 59.99622,32.384149 60,31 V 29 C 59.9962,27.615852 59.045948,26.413964 57.7,26.091 Z M 31,43 h -2 c -1.087593,0.0038 -2.087388,0.597741 -2.611,1.551 C 21.004956,43.198971 16.801029,38.995044 15.449,33.611 16.402259,33.087388 16.996163,32.087593 17,31 v -2 c -0.0038,-1.087593 -0.597741,-2.087388 -1.551,-2.611 1.352029,-5.384044 5.555956,-9.587971 10.94,-10.94 0.523612,0.953259 1.523407,1.547163 2.611,1.551 h 2 c 1.087593,-0.0038 2.087388,-0.597741 2.611,-1.551 5.384044,1.352029 9.587971,5.555956 10.94,10.94 C 43.597741,26.912612 43.003837,27.912407 43,29 v 2 c 0.0038,1.087593 0.597741,2.087388 1.551,2.611 -1.352029,5.384044 -5.555956,9.587971 -10.94,10.94 C 33.087388,43.597741 32.087593,43.003837 31,43 Z M 26,13.488 c -2.702891,0.656336 -5.202513,1.968311 -7.278,3.82 L 12.378,10.964 C 16.156144,7.4457353 20.899991,5.1375415 26,4.336 Z m -8.692,5.234 C 15.456311,20.797487 14.144336,23.297109 13.488,26 H 4.336 C 5.1375415,20.899991 7.4457353,16.156144 10.964,12.378 Z M 13.488,34 c 0.656336,2.702891 1.968311,5.202514 3.82,7.278 l -6.344,6.344 C 7.4457353,43.843856 5.1375415,39.100009 4.336,34 Z m 5.234,8.692 c 2.075487,1.851689 4.575109,3.163664 7.278,3.82 v 9.152 C 20.899991,54.862459 16.156144,52.554265 12.378,49.036 Z M 41.278,17.308 C 39.202514,15.456311 36.702891,14.144336 34,13.488 V 4.336 c 5.100009,0.8015415 9.843856,3.1097353 13.622,6.628 z M 34,46.512 c 2.702891,-0.656336 5.202514,-1.968311 7.278,-3.82 l 6.344,6.344 C 43.843856,52.554265 39.100009,54.862459 34,55.664 Z m 8.692,-5.234 c 1.851689,-2.075486 3.163664,-4.575109 3.82,-7.278 h 9.152 c -0.801541,5.100009 -3.109735,9.843856 -6.628,13.622 z M 46.512,26 c -0.656336,-2.702891 -1.968311,-5.202514 -3.82,-7.278 l 6.344,-6.344 c 3.518265,3.778144 5.826459,8.521991 6.628,13.622 z M 28,3 c 0,-0.5522847 0.447715,-1 1,-1 h 2 c 0.552285,0 1,0.4477153 1,1 v 11 c 0,0.552285 -0.447715,1 -1,1 h -2 c -0.552285,0 -1,-0.447715 -1,-1 z M 2,29 c 0,-0.552285 0.4477153,-1 1,-1 h 11 c 0.552285,0 1,0.447715 1,1 v 2 c 0,0.552285 -0.447715,1 -1,1 H 3 C 2.4477153,32 2,31.552285 2,31 Z m 30,28 c 0,0.552285 -0.447715,1 -1,1 h -2 c -0.552285,0 -1,-0.447715 -1,-1 V 46 c 0,-0.552285 0.447715,-1 1,-1 h 2 c 0.552285,0 1,0.447715 1,1 z M 58,31 c 0,0.552285 -0.447715,1 -1,1 H 46 c -0.552285,0 -1,-0.447715 -1,-1 v -2 c 0,-0.552285 0.447715,-1 1,-1 h 11 c 0.552285,0 1,0.447715 1,1 z"
     id="Shape" />
  <text
     xml:space="preserve"
     style="font-style:normal;font-weight:normal;font-size:27.6453476px;line-height:1.25;font-family:sans-serif;letter-spacing:0px;word-spacing:0px;fill:#ffffff;fill-opacity:1;stroke:none;stroke-width:0.69113374"
     x="21.534304"
     y="40.13485"
     id="text60"
     transform="scale(1.0524251,0.95018638)"><tspan
       sodipodi:role="line"
       id="tspan58"
       x="21.534304"
       y="40.13485"
       style="font-style:normal;font-variant:normal;font-weight:bold;font-stretch:normal;font-family:sans-serif;-inkscape-font-specification:'sans-serif Bold';fill:#ffffff;stroke-width:0.69113374">?</tspan></text>
</svg>
