<?xml version="1.0" encoding="UTF-8" standalone="no"?>
<svg
   xmlns:dc="http://purl.org/dc/elements/1.1/"
   xmlns:cc="http://creativecommons.org/ns#"
   xmlns:rdf="http://www.w3.org/1999/02/22-rdf-syntax-ns#"
   xmlns:svg="http://www.w3.org/2000/svg"
   xmlns="http://www.w3.org/2000/svg"
   xmlns:sodipodi="http://sodipodi.sourceforge.net/DTD/sodipodi-0.dtd"
   xmlns:inkscape="http://www.inkscape.org/namespaces/inkscape"
   height="512pt"
   viewBox="-61 0 512 512"
   width="512pt"
   version="1.1"
   id="svg4"
   sodipodi:docname="w-nuevo.svg"
   inkscape:version="0.92.5 (2060ec1f9f, 2020-04-08)">
  <metadata
     id="metadata10">
    <rdf:RDF>
      <cc:Work
         rdf:about="">
        <dc:format>image/svg+xml</dc:format>
        <dc:type
           rdf:resource="http://purl.org/dc/dcmitype/StillImage" />
        <dc:title></dc:title>
      </cc:Work>
    </rdf:RDF>
  </metadata>
  <defs
     id="defs8" />
  <sodipodi:namedview
     pagecolor="#ffffff"
     bordercolor="#666666"
     borderopacity="1"
     objecttolerance="10"
     gridtolerance="10"
     guidetolerance="10"
     inkscape:pageopacity="0"
     inkscape:pageshadow="2"
     inkscape:window-width="830"
     inkscape:window-height="480"
     id="namedview6"
     showgrid="false"
     inkscape:zoom="0.34570313"
     inkscape:cx="-237.19774"
     inkscape:cy="341.33333"
     inkscape:window-x="0"
     inkscape:window-y="50"
     inkscape:window-maximized="0"
     inkscape:current-layer="svg4" />
  <path
     d="m374.660156 55.078125h-40.207031v-40.113281c0-8.265625-6.699219-14.964844-14.964844-14.964844h-53.316406c-8.265625 0-14.964844 6.699219-14.964844 14.964844v40.113281l-124.828125-.121094c-5.511718 0-7.921875 1.71875-10.574218 4.375l-111.414063 111.21875c-2.5625 2.574219-4.390625 5.492188-4.390625 10.59375v315.890625c0 8.265625 6.699219 14.964844 14.964844 14.964844h304.75c8.265625 0 14.96875-6.699219 14.96875-14.964844l-.230469-358.804687h40.207031c8.265625 0 14.964844-6.699219 14.964844-14.964844v-53.222656c0-8.265625-6.699219-14.964844-14.964844-14.964844zm-263.246094 50.933594v60.164062h-60.273437zm193.335938 376.054687h-274.820312v-285.957031h96.449218c8.265625 0 14.964844-6.699219 14.964844-14.964844v-96.253906h54.691406v38.375c0 8.265625 6.699219 14.964844 14.964844 14.964844h40.207031v40.113281c0 8.265625 6.699219 14.964844 14.964844 14.964844h38.578125zm54.945312-373.765625h-40.207031c-8.265625 0-14.964843 6.699219-14.964843 14.964844v40.109375h-23.386719v-40.109375c0-8.265625-6.699219-14.964844-14.964844-14.964844h-40.207031v-23.292969h40.207031c8.265625 0 14.964844-6.699218 14.964844-14.964843v-40.109375h23.386719v40.109375c0 8.265625 6.699218 14.964843 14.964843 14.964843h40.207031zm0 0"
     id="path2"
     style="fill:#ffffff" />
</svg>
