<?xml version="1.0" encoding="UTF-8" standalone="no"?>
<!-- Generator: Adobe Illustrator 19.0.0, SVG Export Plug-In . SVG Version: 6.00 Build 0)  -->

<svg
   xmlns:dc="http://purl.org/dc/elements/1.1/"
   xmlns:cc="http://creativecommons.org/ns#"
   xmlns:rdf="http://www.w3.org/1999/02/22-rdf-syntax-ns#"
   xmlns:svg="http://www.w3.org/2000/svg"
   xmlns="http://www.w3.org/2000/svg"
   xmlns:sodipodi="http://sodipodi.sourceforge.net/DTD/sodipodi-0.dtd"
   xmlns:inkscape="http://www.inkscape.org/namespaces/inkscape"
   version="1.1"
   id="Capa_1"
   x="0px"
   y="0px"
   viewBox="0 0 479.792 479.792"
   style="enable-background:new 0 0 479.792 479.792;"
   xml:space="preserve"
   sodipodi:docname="w-settings.svg"
   inkscape:version="0.92.5 (2060ec1f9f, 2020-04-08)"><metadata
   id="metadata63"><rdf:RDF><cc:Work
       rdf:about=""><dc:format>image/svg+xml</dc:format><dc:type
         rdf:resource="http://purl.org/dc/dcmitype/StillImage" /><dc:title></dc:title></cc:Work></rdf:RDF></metadata><defs
   id="defs61" /><sodipodi:namedview
   pagecolor="#ffffff"
   bordercolor="#666666"
   borderopacity="1"
   objecttolerance="10"
   gridtolerance="10"
   guidetolerance="10"
   inkscape:pageopacity="0"
   inkscape:pageshadow="2"
   inkscape:window-width="640"
   inkscape:window-height="480"
   id="namedview59"
   showgrid="false"
   inkscape:zoom="0.49187982"
   inkscape:cx="239.896"
   inkscape:cy="239.896"
   inkscape:window-x="0"
   inkscape:window-y="27"
   inkscape:window-maximized="0"
   inkscape:current-layer="Capa_1" />
<path
   style="fill:#ffffff"
   d="M319.376,242.528c11.714,3.743,23.942,5.633,36.24,5.6c5.353-0.024,10.698-0.406,16-1.144v-78.856  c-8.853,0.009-16.045-7.147-16.08-16l0.08-48c-0.031-8.806,7.082-15.969,15.888-16c0.037,0,0.075,0,0.112,0h97.12  c-22.118-62.474-90.694-95.19-153.168-73.072c-47.904,16.96-79.931,62.254-79.952,113.072c-0.028,11.763,1.698,23.465,5.12,34.72  C252.249,200.725,281.653,230.518,319.376,242.528z"
   id="path2" />
<path
   style="fill:#ffffff"
   d="M468.816,168.048l-97.2,0.08v78.856C416.246,240.961,453.764,210.493,468.816,168.048  L468.816,168.048z"
   id="path4" />
<g
   id="g10"
   style="fill:#ffffff">
	<path
   style="fill:#ffffff"
   d="M36.336,457.728c18.691,18.756,49.047,18.808,67.803,0.117c0.039-0.039,0.078-0.078,0.117-0.117   l215.12-215.2c-37.723-12.01-67.127-41.803-78.64-79.68l-215.68,215.68c-18.756,18.691-18.808,49.047-0.117,67.803   c0.039,0.039,0.078,0.078,0.117,0.117L36.336,457.728z M56.336,404.816c6.247-6.249,16.378-6.251,22.627-0.003   c6.249,6.247,6.251,16.378,0.003,22.627c-6.247,6.249-16.378,6.251-22.627,0.003c-0.001-0.001-0.002-0.002-0.003-0.003   c-6.255-6.239-6.269-16.367-0.032-22.624H56.336z"
   id="path6" />
	<circle
   style="fill:#ffffff"
   cx="67.616"
   cy="416.128"
   r="16"
   id="circle8" />
</g>
<g
   id="g26"
   style="fill:#808080">
	<path
   style="fill:#808080"
   d="M67.616,440.128c-13.255,0.003-24.002-10.74-24.005-23.995   c-0.003-13.255,10.74-24.002,23.995-24.005c6.368-0.001,12.476,2.528,16.978,7.032c9.371,9.374,9.369,24.57-0.005,33.941   C80.08,437.599,73.978,440.127,67.616,440.128z M67.616,408.128c-4.418-0.001-8.001,3.58-8.002,7.998   c-0.001,4.418,3.58,8.001,7.998,8.002c4.418,0.001,8.001-3.58,8.002-7.998c0-2.122-0.842-4.157-2.342-5.658   C71.772,408.972,69.738,408.128,67.616,408.128z"
   id="path12" />
	<path
   style="fill:#808080"
   d="M331.616,96.128h-32c-4.418,0-8,3.582-8,8s3.582,8,8,8h32c4.418,0,8-3.582,8-8   S336.034,96.128,331.616,96.128z"
   id="path14" />
	<path
   style="fill:#808080"
   d="M331.616,72.128h-32c-4.418,0-8,3.582-8,8s3.582,8,8,8h32c4.418,0,8-3.582,8-8   S336.034,72.128,331.616,72.128z"
   id="path16" />
	<path
   style="fill:#808080"
   d="M331.616,120.128h-32c-4.418,0-8,3.582-8,8s3.582,8,8,8h32c4.418,0,8-3.582,8-8   S336.034,120.128,331.616,120.128z"
   id="path18" />
	<path
   style="fill:#808080"
   d="M331.616,144.128h-32c-4.418,0-8,3.582-8,8s3.582,8,8,8h32c4.418,0,8-3.582,8-8   S336.034,144.128,331.616,144.128z"
   id="path20" />
	<path
   style="fill:#808080"
   d="M331.616,168.128h-32c-4.418,0-8,3.582-8,8s3.582,8,8,8h32c4.418,0,8-3.582,8-8   S336.034,168.128,331.616,168.128z"
   id="path22" />
	<path
   style="fill:#808080"
   d="M476.36,170.72c0.1-0.434,0.162-0.875,0.184-1.32c0.131-0.444,0.222-0.899,0.272-1.36   c0-0.08,0-0.152-0.048-0.232c-0.048-0.568-0.161-1.129-0.336-1.672c-0.081-0.968-0.494-1.877-1.168-2.576   c-0.271-0.455-0.587-0.881-0.944-1.272c-0.846-0.6-1.725-1.153-2.632-1.656c-0.08,0-0.128-0.096-0.208-0.128   c-0.444-0.103-0.897-0.167-1.352-0.192c-0.429-0.124-0.868-0.212-1.312-0.264l-97.2,0.08c-4.439,0.018-8.054-3.561-8.08-8l0.08-48   c-0.049-4.369,3.454-7.951,7.823-8c0.059-0.001,0.118-0.001,0.177,0h97.12c0.433-0.048,0.862-0.134,1.28-0.256   c0.464-0.023,0.925-0.09,1.376-0.2c0.08,0,0.128-0.088,0.208-0.12c0.536-0.24,1.04-0.544,1.504-0.904   c0.4-0.22,0.78-0.475,1.136-0.76c0.335-0.375,0.635-0.779,0.896-1.208c0.329-0.398,0.618-0.826,0.864-1.28   c0.142-0.421,0.254-0.851,0.336-1.288c0.185-0.568,0.303-1.156,0.352-1.752c0-0.08,0.048-0.152,0.048-0.232   c-0.051-0.441-0.139-0.878-0.264-1.304c-0.025-0.455-0.089-0.908-0.192-1.352c-0.048-0.144-0.12-0.28-0.168-0.424v-0.056   c-23.741-66.554-96.939-101.261-163.493-77.52c-62.536,22.308-97.616,88.745-80.771,152.968L19.4,372.872   C-2.47,394.703-2.503,430.13,19.328,452c0.024,0.024,0.048,0.048,0.072,0.072l11.264,11.272   c10.452,10.55,24.694,16.474,39.544,16.448h0.056c14.882,0.039,29.16-5.882,39.648-16.44L321.736,251.48   c11.031,3.074,22.428,4.637,33.88,4.648c6.95,0.057,13.89-0.519,20.736-1.72c45.894-7.592,84.087-39.425,99.824-83.2v-0.064   C476.248,170.984,476.312,170.856,476.36,170.72L476.36,170.72z M98.6,452.072c-7.495,7.547-17.7,11.779-28.336,11.752   c-10.611,0.027-20.788-4.207-28.248-11.752l-11.312-11.288c-15.63-15.612-15.644-40.939-0.031-56.569   c0.01-0.01,0.021-0.021,0.031-0.031l206.768-206.76c0.2,0.472,0.464,0.912,0.664,1.392c0.56,1.296,1.208,2.536,1.808,3.808   c1.448,3.072,2.992,6.088,4.664,9.024c0.8,1.4,1.6,2.776,2.488,4.144c1.76,2.824,3.64,5.552,5.6,8.224   c0.848,1.16,1.664,2.344,2.56,3.472c2.847,3.626,5.886,7.098,9.104,10.4l0.144,0.152c3.312,3.32,6.803,6.458,10.456,9.4   c1.104,0.896,2.272,1.72,3.408,2.576c2.648,2.008,5.36,3.928,8.168,5.728c1.36,0.872,2.728,1.72,4.128,2.544   c2.896,1.704,5.864,3.272,8.904,4.752c1.28,0.624,2.528,1.296,3.84,1.88c0.512,0.232,0.992,0.52,1.504,0.736L98.6,452.072z    M321.8,234.904c-4.362-1.392-8.637-3.045-12.8-4.952c-29.225-13.383-51.29-38.678-60.584-69.448   c-3.203-10.493-4.821-21.405-4.8-32.376c-0.034-61.825,50.058-111.971,111.883-112.005c43.276-0.024,82.689,24.898,101.221,64.005   h-85.104c-13.255,0-24,10.745-24,24l-0.08,48c0.051,10.158,6.491,19.184,16.08,22.536v65.152c-2.648,0.184-5.312,0.312-8,0.312   c-11.48,0.028-22.895-1.734-33.832-5.224L321.8,234.904z M379.616,237.456v-61.328l77.176-0.064   C441.911,207.335,413.432,229.989,379.616,237.456z"
   id="path24" />
</g>
<g
   id="g28">
</g>
<g
   id="g30">
</g>
<g
   id="g32">
</g>
<g
   id="g34">
</g>
<g
   id="g36">
</g>
<g
   id="g38">
</g>
<g
   id="g40">
</g>
<g
   id="g42">
</g>
<g
   id="g44">
</g>
<g
   id="g46">
</g>
<g
   id="g48">
</g>
<g
   id="g50">
</g>
<g
   id="g52">
</g>
<g
   id="g54">
</g>
<g
   id="g56">
</g>
</svg>