<?xml version="1.0" encoding="UTF-8" standalone="no"?>
<!-- Created with Inkscape (http://www.inkscape.org/) -->

<svg
   xmlns:osb="http://www.openswatchbook.org/uri/2009/osb"
   xmlns:dc="http://purl.org/dc/elements/1.1/"
   xmlns:cc="http://creativecommons.org/ns#"
   xmlns:rdf="http://www.w3.org/1999/02/22-rdf-syntax-ns#"
   xmlns:svg="http://www.w3.org/2000/svg"
   xmlns="http://www.w3.org/2000/svg"
   xmlns:sodipodi="http://sodipodi.sourceforge.net/DTD/sodipodi-0.dtd"
   xmlns:inkscape="http://www.inkscape.org/namespaces/inkscape"
   width="176.75833mm"
   height="81.566872mm"
   viewBox="0 0 176.75833 81.566871"
   version="1.1"
   id="svg58"
   sodipodi:docname="yulelogo.svg"
   inkscape:version="0.92.3 (2405546, 2018-03-11)">
  <defs
     id="defs52">
    <linearGradient
       id="linearGradient2362"
       osb:paint="solid">
      <stop
         style="stop-color:#74ff00;stop-opacity:1;"
         offset="0"
         id="stop2360" />
    </linearGradient>
    <linearGradient
       id="linearGradient890"
       osb:paint="solid">
      <stop
         style="stop-color:#74ff00;stop-opacity:1;"
         offset="0"
         id="stop888" />
    </linearGradient>
    <clipPath
       clipPathUnits="userSpaceOnUse"
       id="clipPath5376">
      <g
         style="fill:#cccccc"
         id="use5378"
         inkscape:label="Clip">
        <circle
           style="display:inline;fill:#cccccc;fill-opacity:1;stroke:none;stroke-width:0.26458332"
           id="circle91"
           cx="178.76955"
           cy="45.182621"
           r="5.6126599" />
      </g>
    </clipPath>
    <clipPath
       clipPathUnits="userSpaceOnUse"
       id="clipPath5376-6">
      <g
         style="fill:#cccccc"
         id="use5378-8"
         inkscape:label="Clip">
        <circle
           style="display:inline;fill:#cccccc;fill-opacity:1;stroke:none;stroke-width:0.26458332"
           id="circle87"
           cx="178.76955"
           cy="45.182621"
           r="5.6126599" />
      </g>
    </clipPath>
    <clipPath
       clipPathUnits="userSpaceOnUse"
       id="clipPath5376-6-3">
      <g
         style="fill:#cccccc"
         id="use5378-8-2"
         inkscape:label="Clip">
        <circle
           style="display:inline;fill:#cccccc;fill-opacity:1;stroke:none;stroke-width:0.26458332"
           id="circle79"
           cx="178.76955"
           cy="45.182621"
           r="5.6126599" />
      </g>
    </clipPath>
    <clipPath
       clipPathUnits="userSpaceOnUse"
       id="clipPath5376-8">
      <g
         style="fill:#cccccc"
         id="use5378-7"
         inkscape:label="Clip">
        <circle
           style="display:inline;fill:#cccccc;fill-opacity:1;stroke:none;stroke-width:0.26458332"
           id="circle83"
           cx="178.76955"
           cy="45.182621"
           r="5.6126599" />
      </g>
    </clipPath>
  </defs>
  <sodipodi:namedview
     id="base"
     pagecolor="#ffffff"
     bordercolor="#666666"
     borderopacity="1.0"
     inkscape:pageopacity="0.0"
     inkscape:pageshadow="2"
     inkscape:zoom="0.7"
     inkscape:cx="133.83885"
     inkscape:cy="2.445199"
     inkscape:document-units="mm"
     inkscape:current-layer="layer2"
     showgrid="false"
     inkscape:window-width="1920"
     inkscape:window-height="1005"
     inkscape:window-x="0"
     inkscape:window-y="50"
     inkscape:window-maximized="1"
     height="105mm"
     fit-margin-top="0"
     fit-margin-left="0"
     fit-margin-right="0"
     fit-margin-bottom="0"
     showguides="false" />
  <metadata
     id="metadata55">
    <rdf:RDF>
      <cc:Work
         rdf:about="">
        <dc:format>image/svg+xml</dc:format>
        <dc:type
           rdf:resource="http://purl.org/dc/dcmitype/StillImage" />
        <dc:title></dc:title>
      </cc:Work>
    </rdf:RDF>
  </metadata>
  <g
     inkscape:label="Layer 1"
     inkscape:groupmode="layer"
     id="layer1"
     transform="translate(-37.426545,-29.117649)">
    <flowRoot
       xml:space="preserve"
       id="flowRoot3773"
       style="font-style:normal;font-weight:normal;font-size:40px;line-height:1.25;font-family:sans-serif;letter-spacing:0px;word-spacing:0px;fill:#000000;fill-opacity:1;stroke:none"
       transform="scale(0.26458333)"><flowRegion
         id="flowRegion3775"><rect
           id="rect3777"
           width="405.71429"
           height="422.85715"
           x="0"
           y="48.233971" /></flowRegion><flowPara
         id="flowPara3779" /></flowRoot>    <flowRoot
       xml:space="preserve"
       id="flowRoot4395"
       style="font-style:normal;font-weight:normal;font-size:40px;line-height:1.25;font-family:sans-serif;letter-spacing:0px;word-spacing:0px;fill:#000000;fill-opacity:1;stroke:none"><flowRegion
         id="flowRegion4397"><rect
           id="rect4399"
           width="234.35539"
           height="42.426407"
           x="830.3454"
           y="372.52609" /></flowRegion><flowPara
         id="flowPara4401" /></flowRoot>  </g>
  <g
     inkscape:groupmode="layer"
     id="layer2"
     inkscape:label="Layer 2"
     transform="translate(-36.792809,44.850212)"
     style="display:inline">
    <path
       id="path4344"
       d="m 164.7399,-14.812841 c -1.38407,9.17e-4 -7.43152,-0.04268 -8.80573,0.0794 -3.73038,-8.986652 -14.93708,-15.12806 -27.64359,-15.147893 -3.16321,-0.0022 -6.30385,0.386189 -9.29352,1.148122 -7.40014,-11.837127 -24.937499,-18.270778 -42.153194,-15.4631 -17.217097,2.807675 -29.472104,14.098929 -29.459401,27.140539 0.0011,2.253452 0.959982,4.91987 1.704933,7.1033835 0,0 -12.247296,3.880784 -12.296589,22.7586685 C 37.095207,28.84131 50.84881,38.163728 63.584774,36.53272 L 188.65054,36.48937 c 17.63789,-0.006 24.9006,-12.185502 24.9006,-26.352278 0,-14.1667709 -8.58011,-24.355106 -27.73013,-24.355106 z M 160.07514,32.108871 63.882523,32.42486 C 50.927019,31.312191 42.452202,24.866379 41.174839,11.484815 41.630529,-1.2647791 48.541707,-4.3819246 52.4854,-5.8087953 c 2.206077,-1.455587 1.684038,-0.8909177 2.206077,-1.455587 0.523432,-0.5646647 0.649,-1.2796258 0.338609,-1.9246679 -5.735275,-12.1419008 2.796387,-25.4381878 19.138734,-29.8281848 16.342337,-4.389996 34.41868,1.760801 40.549,13.796242 0.28076,0.558404 0.86207,1.004083 1.60559,1.231619 0.74497,0.227535 1.5816,0.215009 2.31246,-0.03444 3.02494,-1.040612 6.31938,-1.580232 9.65471,-1.582319 10.99368,0.01451 20.46076,5.743742 22.6561,13.712739 0.31462,1.158558 1.83979,1.9079663 3.40447,1.674168 1.88355,-0.279721 29.54683,0.7699996 31.46986,0.7679086 15.95861,0 22.22361,7.7836486 22.22361,19.5884254 0,11.805818 -4.52542,21.463192 -20.48404,21.463192 z"
       inkscape:connector-curvature="0"
       style="fill:#00a9ff;stroke-width:0.31065914"
       sodipodi:nodetypes="cccccccccsscccccccscccccccsccc" />
    <g
       aria-label="Y"
       transform="matrix(0.89083583,0.01431085,-0.0108494,0.65380702,176.83358,-3.4103542)"
       inkscape:transform-center-x="6.1016451"
       inkscape:transform-center-y="-21.113425"
       style="font-style:normal;font-weight:normal;font-size:27.11431694px;line-height:1.25;font-family:sans-serif;letter-spacing:0px;word-spacing:0px;fill:#ff0000;fill-opacity:1;stroke:none;stroke-width:0.67785788"
       id="text3783-0">
      <path
         d="m -101.22828,5.0232736 7.113157,38.9538434 -14.921727,1.102454 -5.28364,-36.5411494 -22.31068,-32.4869676 c 20.99454,1.605284 35.40289,28.9718196 35.40289,28.9718196 l 2.156777,-38.6211366 14.50978,-4.91864 z"
         style="font-style:normal;font-variant:normal;font-weight:normal;font-stretch:normal;font-size:130.14871216px;font-family:Jamrul;-inkscape-font-specification:Jamrul;fill:#ff0000;stroke-width:0.67785788"
         id="path131"
         inkscape:connector-curvature="0"
         sodipodi:nodetypes="ccccccccc"
         inkscape:transform-center-x="113.32228"
         inkscape:transform-center-y="-22.45064" />
    </g>
    <flowRoot
       xml:space="preserve"
       id="flowRoot53"
       style="font-style:normal;font-weight:normal;font-size:40px;line-height:1.25;font-family:sans-serif;letter-spacing:0px;word-spacing:0px;fill:#000000;fill-opacity:1;stroke:none"><flowRegion
         id="flowRegion55"><rect
           id="rect57"
           width="535.38086"
           height="66.670067"
           x="260.61935"
           y="449.29767" /></flowRegion><flowPara
         id="flowPara59" /></flowRoot>    <path
       inkscape:connector-curvature="0"
       id="path875"
       style="font-style:normal;font-weight:normal;font-size:50.79999924px;line-height:1.25;font-family:sans-serif;letter-spacing:0px;word-spacing:0px;fill:#ff7f00;fill-opacity:1;stroke:none;stroke-width:0.26458332"
       d="M 96.222999,13.104656 V -3.7129216 h 4.564061 V 12.931024 q 0,3.943945 1.53789,5.92832 1.53789,1.95957 4.61367,1.95957 3.6959,0 5.82911,-2.356445 2.158,-2.356445 2.158,-6.424414 V -3.7129216 h 4.56407 V 24.068328 h -4.56407 v -4.266406 q -1.66191,2.530078 -3.86953,3.770312 -2.18281,1.21543 -5.08496,1.21543 -4.7873,0 -7.267772,-2.976562 -2.480469,-2.976563 -2.480469,-8.706446 z M 107.70757,-4.3826481 Z" />
    <path
       inkscape:connector-curvature="0"
       id="path877"
       style="font-style:normal;font-weight:normal;font-size:50.79999924px;line-height:1.25;font-family:sans-serif;letter-spacing:0px;word-spacing:0px;fill:#ff7f00;fill-opacity:1;stroke:none;stroke-width:0.28700691"
       d="m 128.94038,-21.347072 h 4.56406 v 45.4154 h -4.56406 z" />
    <path
       inkscape:connector-curvature="0"
       id="path879"
       style="font-style:normal;font-weight:normal;font-size:50.79999924px;line-height:1.25;font-family:sans-serif;letter-spacing:0px;word-spacing:0px;fill:#ff7f00;fill-opacity:1;stroke:none;stroke-width:0.26458332"
       d="M 166.79233,9.0366876 V 11.26911 h -20.98476 q 0.29765,4.71289 2.82773,7.193359 2.55489,2.455664 7.09414,2.455664 2.6293,0 5.08496,-0.644922 2.48047,-0.644922 4.91133,-1.934766 v 4.316016 q -2.45566,1.041797 -5.03535,1.5875 -2.57969,0.545703 -5.23379,0.545703 -6.64765,0 -10.54199,-3.869531 -3.86953,-3.869531 -3.86953,-10.467578 0,-6.8212892 3.67109,-10.81484374 3.6959,-4.01835936 9.94668,-4.01835936 5.60586,0 8.85528,3.62148436 3.27421,3.59667954 3.27421,9.79785134 z m -4.56406,-1.3394531 q -0.0496,-3.7455077 -2.1084,-5.9779296 -2.03398,-2.23242177 -5.40742,-2.23242177 -3.81992,0 -6.12676,2.15800777 -2.28203,2.1580077 -2.62929,6.0771483 z" />
    <path
       inkscape:connector-curvature="0"
       id="path881"
       style="font-style:normal;font-weight:normal;font-size:50.79999924px;line-height:1.25;font-family:sans-serif;letter-spacing:0px;word-spacing:0px;fill:#24d000;fill-opacity:1;stroke:none;stroke-width:0.26458332;"
       d="M 198.04624,9.0366876 V 11.26911 h -20.98476 q 0.29765,4.71289 2.82773,7.193359 2.55489,2.455664 7.09414,2.455664 2.6293,0 5.08496,-0.644922 2.48047,-0.644922 4.91133,-1.934766 v 4.316016 q -2.45566,1.041797 -5.03535,1.5875 -2.57969,0.545703 -5.23379,0.545703 -6.64765,0 -10.54199,-3.869531 -3.86953,-3.869531 -3.86953,-10.467578 0,-6.8212892 3.67109,-10.81484374 3.6959,-4.01835936 9.94668,-4.01835936 5.60586,0 8.85528,3.62148436 3.27421,3.59667954 3.27421,9.79785134 z m -4.56406,-1.3394531 q -0.0496,-3.7455077 -2.1084,-5.9779296 -2.03398,-2.23242177 -5.40742,-2.23242177 -3.81992,0 -6.12676,2.15800777 -2.28203,2.1580077 -2.62929,6.0771483 z" />
  </g>
</svg>
